<svg width="256px" height="256px" viewBox="0 0 64 64" version="1.1" xmlns="http://www.w3.org/2000/svg"><path d=" M 23.89 10.62 C 24.94 8.75 25.92 6.84 27.05 5.01 C 26.92 5.73 26.65 7.18 26.51 7.90 C 27.44 9.07 28.55 10.07 29.71 11.00 C 29.99 11.63 30.54 12.88 30.81 13.51 C 30.76 14.54 30.72 15.57 30.69 16.60 C 30.43 21.07 28.32 25.42 24.93 28.40 C 25.34 25.24 26.29 22.16 24.92 19.07 C 26.57 17.13 25.77 15.71 23.66 14.86 C 25.34 14.91 26.98 15.25 28.46 16.07 C 27.04 14.14 24.80 12.93 23.89 10.62 Z" /><path d=" M 37.76 7.61 C 37.44 6.64 37.13 5.67 36.85 4.69 C 38.02 6.77 39.90 8.83 39.92 11.34 C 38.95 13.32 36.89 14.42 35.48 16.03 C 36.72 15.75 39.20 15.20 40.45 14.92 C 39.79 15.32 38.48 16.11 37.82 16.50 C 38.35 17.31 38.88 18.12 39.41 18.92 C 38.71 21.04 37.66 23.37 38.90 25.52 C 38.92 26.24 38.96 27.68 38.97 28.40 C 36.23 25.35 33.77 21.67 33.66 17.44 L 33.09 16.39 C 33.29 16.11 33.69 15.57 33.89 15.30 C 33.65 14.83 33.18 13.90 32.95 13.44 C 34.13 11.16 36.12 9.54 37.76 7.61 Z" /><path d=" M 42.12 11.61 C 42.41 12.21 42.98 13.40 43.27 14.00 C 44.47 13.99 45.66 13.99 46.86 13.98 C 48.62 16.43 53.04 17.93 52.19 21.44 C 54.40 25.65 55.74 30.25 57.95 34.47 C 58.19 37.83 57.44 41.44 59.12 44.54 C 59.30 41.25 59.10 37.96 59.06 34.67 C 59.96 33.27 60.78 31.82 61.59 30.37 C 64.88 35.00 61.77 40.86 62.02 46.01 C 62.32 49.00 61.13 51.71 59.63 54.20 C 57.13 53.45 54.72 52.47 52.22 51.74 C 49.47 41.80 46.43 31.93 43.80 21.95 C 43.47 20.55 42.30 19.59 41.38 18.56 C 42.05 16.30 42.22 13.95 42.12 11.61 Z" /><path d=" M 17.28 14.06 C 19.06 14.04 21.02 14.20 22.05 12.41 C 21.90 14.46 21.98 16.55 22.90 18.42 C 21.98 19.39 20.90 20.31 20.50 21.64 C 17.57 31.68 14.88 41.80 11.79 51.80 C 9.31 52.28 7.08 53.71 4.56 53.97 C 1.45 50.33 2.32 45.29 1.68 40.91 C 1.26 37.37 -0.05 33.32 2.51 30.26 C 3.25 31.70 4.02 33.13 4.96 34.45 C 5.23 37.77 4.25 41.34 5.79 44.44 C 6.15 41.31 5.81 38.15 6.12 35.03 C 7.79 29.72 11.31 24.90 11.91 19.33 C 13.64 17.51 15.45 15.77 17.28 14.06 Z" /><path d=" M 27.40 49.46 C 29.38 40.87 30.00 31.93 32.85 23.58 C 33.29 32.55 36.14 41.22 37.06 50.14 C 35.24 52.83 33.84 55.78 32.46 58.72 C 30.58 55.74 28.94 52.62 27.40 49.46 Z" /><path d=" M 19.97 39.06 C 22.55 35.96 25.15 32.87 27.67 29.72 C 27.04 33.51 26.19 37.29 25.92 41.14 C 24.37 42.07 22.79 42.93 21.20 43.77 C 20.89 42.17 20.47 40.60 19.97 39.06 Z" /><path d=" M 36.71 30.15 C 39.29 32.96 41.46 36.13 44.15 38.85 C 43.67 40.46 43.19 42.07 42.73 43.68 C 41.14 42.82 39.57 41.94 38.04 40.99 C 38.13 37.32 36.93 33.80 36.71 30.15 Z" /></svg>
