<svg width="18.3vw" height="28.25vh" viewBox="0 0 250 217" version="1.1" xmlns="http://www.w3.org/2000/svg"><path d=" M 144.57 0.10 C 149.44 8.41 156.73 16.42 156.65 26.57 C 152.75 34.41 144.68 38.73 139.06 45.15 C 145.60 43.81 152.11 42.28 158.63 40.86 C 155.28 43.06 151.78 45.04 148.36 47.13 C 150.44 50.41 152.60 53.63 154.72 56.88 C 152.24 64.45 148.54 72.70 151.47 80.67 C 153.67 85.09 152.48 90.17 152.88 94.91 C 142.38 83.15 132.89 69.10 131.79 52.93 C 131.81 50.61 130.45 48.67 129.39 46.72 C 130.44 45.23 131.50 43.76 132.57 42.28 C 131.31 39.80 130.07 37.31 128.80 34.83 C 133.60 25.88 141.35 19.12 148.04 11.64 C 146.99 7.76 145.63 3.98 144.57 0.10 Z" /><path d=" M 92.33 23.68 C 96.45 16.15 100.48 8.54 105.00 1.23 C 104.38 5.08 103.55 8.89 102.97 12.75 C 106.07 16.38 109.45 19.79 113.14 22.83 C 117.18 25.65 118.10 30.87 120.07 35.09 C 120.23 40.37 119.81 45.66 119.43 50.93 C 117.58 67.75 109.26 83.74 96.61 94.96 C 98.21 82.67 101.90 69.55 96.60 57.62 C 98.41 54.80 100.91 51.60 99.86 48.04 C 98.86 44.24 95.09 42.28 91.86 40.63 C 98.41 40.66 104.85 42.41 110.72 45.26 C 104.87 37.82 96.25 32.58 92.33 23.68 Z" /><path d=" M 165.70 27.75 C 167.19 30.85 168.69 33.95 170.18 37.06 C 174.97 37.09 179.75 37.00 184.53 37.03 C 190.50 44.86 200.50 48.92 205.15 57.84 C 207.12 61.05 205.64 64.93 206.73 68.31 C 215.01 84.91 220.71 102.66 228.97 119.27 C 230.20 132.77 227.30 147.21 233.71 159.86 C 234.84 147.26 233.80 134.60 233.69 121.98 C 233.48 119.99 234.81 118.39 235.74 116.77 C 238.64 112.25 241.17 107.50 243.90 102.87 C 248.19 109.17 250.04 116.79 250.00 124.36 L 250.00 125.41 C 249.48 136.41 246.68 147.13 245.72 158.08 C 245.11 164.05 246.30 170.09 245.17 176.02 C 243.86 184.16 240.05 191.61 235.97 198.68 C 225.95 195.63 216.20 191.78 206.18 188.74 C 195.05 148.93 183.00 109.37 172.42 69.41 C 171.06 63.62 166.44 59.60 162.62 55.38 C 165.23 46.42 165.94 37.04 165.70 27.75 Z" /><path d=" M 65.88 37.34 C 72.63 37.48 80.89 37.50 84.94 31.03 C 84.43 39.10 84.87 47.45 88.33 54.89 C 84.67 58.76 80.42 62.49 78.79 67.74 C 66.98 108.12 56.23 148.82 43.68 188.99 C 33.79 191.14 24.86 196.52 14.75 197.81 C 10.86 193.08 8.21 187.44 6.80 181.49 C 3.94 169.48 4.94 157.01 3.17 144.85 C 2.05 135.65 -0.32 126.45 0.61 117.13 C 1.10 111.79 3.15 106.64 6.51 102.48 C 9.44 108.35 12.88 113.93 16.32 119.50 C 17.46 132.76 13.64 146.85 19.61 159.42 C 21.31 146.70 19.58 133.78 21.25 121.08 C 28.11 99.90 41.54 80.93 44.41 58.47 C 51.21 51.08 58.53 44.17 65.88 37.34 Z" /><path d=" M 107.29 175.91 C 114.65 142.56 117.37 108.12 128.41 75.64 C 130.21 111.74 141.56 146.44 145.27 182.28 C 138.05 193.20 132.36 205.02 126.84 216.85 C 119.53 205.25 113.15 193.09 107.09 180.81 C 106.09 179.29 107.11 177.50 107.29 175.91 Z" /><path d=" M 76.64 137.84 C 86.95 125.40 97.35 113.03 107.50 100.45 C 105.06 115.68 101.68 130.79 100.50 146.20 C 94.27 149.86 87.93 153.33 81.55 156.72 C 80.32 150.33 78.61 144.04 76.64 137.84 Z" /><path d=" M 143.85 102.03 C 154.19 113.36 162.99 126.02 173.74 136.99 C 171.77 143.42 169.93 149.89 168.02 156.33 C 161.68 152.88 155.38 149.37 149.25 145.58 C 149.42 130.85 144.87 116.64 143.85 102.03 Z" /></svg>