<svg width="17.56vw" height="32.55vh" viewBox="0 0 240 250" version="1.1" xmlns="http://www.w3.org/2000/svg"><path d=" M 136.88 0.06 C 161.38 11.56 183.16 30.38 194.78 55.15 C 198.98 64.03 201.93 73.54 203.04 83.32 C 205.29 67.12 205.69 48.84 195.64 34.99 C 204.03 41.59 210.99 50.23 214.39 60.44 C 220.09 77.05 217.75 95.19 212.73 111.65 C 209.58 121.32 205.83 130.93 200.42 139.57 C 195.74 144.08 189.47 146.47 183.61 149.07 C 184.59 143.97 184.14 138.84 182.33 133.99 C 183.42 125.06 184.63 116.05 184.06 107.01 C 183.53 93.09 179.71 78.90 171.15 67.71 C 174.45 73.73 177.65 79.87 179.39 86.56 C 183.43 101.79 181.99 118.44 175.23 132.70 C 177.66 122.74 179.23 112.34 177.51 102.13 C 174.24 78.59 157.66 58.58 137.37 47.12 C 149.11 56.91 160.56 67.65 167.83 81.29 C 172.68 90.51 175.55 101.30 173.49 111.70 C 170.70 126.74 159.91 139.49 146.69 146.71 C 134.04 152.91 119.07 148.64 107.56 141.88 C 106.66 146.20 103.92 149.73 100.68 152.60 C 103.19 145.04 105.20 136.69 102.38 128.91 C 109.55 135.99 118.61 141.90 128.90 142.76 C 138.46 143.58 147.53 138.99 154.43 132.69 C 151.22 134.99 147.95 137.44 144.01 138.25 C 136.62 140.11 128.92 137.75 122.44 134.15 C 128.24 134.82 134.51 134.84 139.61 131.60 C 145.87 127.88 149.78 121.48 153.23 115.29 C 154.10 113.83 154.05 112.07 154.36 110.46 C 149.55 110.45 148.54 115.85 145.39 118.37 C 141.99 120.38 137.72 118.31 135.96 115.09 C 128.74 103.35 118.70 92.67 105.50 87.83 C 117.64 89.24 128.42 95.78 137.57 103.53 C 139.48 105.80 142.78 104.03 143.52 101.61 C 146.38 94.48 145.01 86.21 141.29 79.65 C 136.55 71.56 128.92 65.46 120.60 61.34 C 109.72 55.87 97.10 55.02 85.19 56.51 C 95.11 56.10 105.62 57.22 113.98 63.07 C 118.94 66.26 122.93 70.73 126.12 75.65 C 117.27 68.47 106.62 62.79 95.00 62.46 C 79.08 61.90 64.24 70.39 53.38 81.48 C 63.44 72.81 75.76 66.22 89.19 65.18 C 94.69 64.51 100.19 65.35 105.63 66.07 C 100.70 67.60 96.29 70.38 92.49 73.84 C 78.35 72.21 63.97 78.07 54.57 88.65 C 58.57 85.49 62.73 81.39 68.30 82.09 C 69.92 85.90 67.63 89.53 65.52 92.58 C 54.37 108.72 51.83 129.79 56.50 148.62 C 60.84 166.71 71.88 183.09 87.05 193.86 C 103.17 205.42 123.32 210.54 143.00 210.16 C 159.17 209.86 174.72 203.79 188.34 195.36 C 207.63 183.44 222.77 165.06 231.10 144.01 C 228.76 154.55 223.14 164.07 216.60 172.55 C 200.66 192.66 177.67 207.58 152.26 212.16 C 131.86 215.35 110.25 212.07 92.23 201.78 C 72.45 190.60 57.64 171.91 48.97 151.11 C 50.63 165.50 58.05 178.67 67.56 189.37 C 81.02 204.37 100.04 213.94 119.91 216.78 C 141.19 219.88 163.62 216.98 182.67 206.68 C 207.84 193.26 226.42 169.90 238.52 144.46 C 228.93 169.39 212.37 192.33 189.33 206.38 C 165.98 220.89 136.92 225.08 110.17 219.38 C 96.19 216.34 82.51 210.82 71.30 201.78 C 66.14 197.59 61.50 192.61 58.45 186.65 C 57.64 184.91 56.50 183.37 54.86 182.33 C 54.83 184.10 54.53 185.97 55.24 187.66 C 57.56 193.74 61.54 198.96 65.24 204.24 C 48.98 190.98 40.21 170.96 34.27 151.34 C 37.32 175.07 48.05 197.94 65.38 214.58 C 83.37 232.33 107.04 243.37 131.32 249.52 C 101.50 245.04 71.23 234.22 49.54 212.49 C 30.12 193.40 19.59 166.10 20.01 138.97 C 20.31 113.78 28.86 87.93 46.71 69.70 C 47.81 68.70 47.88 67.17 48.22 65.83 C 46.83 66.23 45.32 66.30 44.09 67.14 C 26.92 77.72 14.53 94.96 8.13 113.93 C 5.02 122.48 3.52 131.48 2.29 140.46 C -1.43 124.71 -0.29 107.87 5.91 92.90 C 17.21 65.22 41.09 43.46 68.84 32.89 C 89.61 24.92 113.80 24.51 133.81 34.91 C 126.92 27.88 116.93 25.57 107.57 23.94 C 123.24 22.00 139.34 25.91 152.62 34.37 C 161.62 39.79 169.42 47.00 176.23 54.96 C 173.45 46.79 167.24 40.46 160.46 35.41 C 165.76 37.82 170.93 40.72 175.05 44.90 C 176.43 46.21 178.53 48.23 180.44 46.62 C 182.38 43.87 179.98 40.84 178.54 38.49 C 167.86 22.65 152.55 10.66 136.88 0.06 Z" /></svg>