<svg width="128px" height="256px" viewBox="0 0 64 128" version="1.1" xmlns="http://www.w3.org/2000/svg"><path d=" M 4.33 8.62 C 4.40 7.44 4.47 6.27 4.55 5.10 C 7.79 6.13 11.22 5.78 14.57 5.99 C 14.51 6.46 14.40 7.41 14.35 7.88 C 11.00 8.01 7.63 7.92 4.33 8.62 Z" /><path d=" M 40.18 5.27 C 42.79 5.40 45.42 5.29 48.03 5.47 C 48.02 6.08 48.00 7.29 48.00 7.90 C 45.85 9.33 42.47 8.13 39.84 8.22 C 39.93 7.48 40.09 6.01 40.18 5.27 Z" /><path d=" M 50.49 5.91 C 53.53 5.87 56.59 5.90 59.56 5.15 C 59.57 6.30 59.58 7.46 59.60 8.62 C 56.61 8.05 53.57 7.97 50.54 7.96 C 50.33 7.72 49.90 7.25 49.69 7.01 C 49.89 6.74 50.29 6.18 50.49 5.91 Z" /><path d=" M 15.90 5.46 C 18.39 5.24 20.91 5.25 23.40 5.43 C 23.52 6.18 23.76 7.68 23.89 8.44 C 21.05 8.47 18.22 8.47 15.38 8.45 C 15.51 7.70 15.77 6.21 15.90 5.46 Z" /><path d=" M 24.58 5.89 C 29.23 5.88 33.88 5.78 38.52 5.82 C 38.67 6.12 38.96 6.70 39.10 6.99 C 38.93 7.25 38.60 7.76 38.43 8.02 C 33.80 8.04 29.18 7.92 24.55 8.00 C 24.56 7.47 24.58 6.41 24.58 5.89 Z" /><path d=" M 8.87 10.65 C 24.10 12.25 39.52 12.56 54.73 10.52 C 54.88 40.53 54.74 70.54 54.79 100.55 C 52.48 102.66 50.20 104.88 47.39 106.32 C 43.26 108.57 38.49 109.20 34.28 111.27 C 29.58 113.35 25.66 116.82 20.99 118.95 C 17.15 120.82 12.92 121.60 8.83 122.72 C 8.96 85.37 8.89 48.01 8.87 10.65 M 40.69 13.14 C 40.68 13.86 40.68 15.31 40.68 16.04 C 44.84 15.65 49.01 15.34 53.17 14.98 C 53.19 14.28 53.23 12.88 53.25 12.18 C 49.11 12.95 44.89 13.14 40.69 13.14 M 10.15 12.25 C 10.25 12.89 10.46 14.16 10.56 14.80 C 14.71 15.57 18.95 15.58 23.15 15.92 C 23.15 15.26 23.16 13.94 23.17 13.28 C 18.81 13.14 14.47 12.84 10.15 12.25 M 25.80 13.36 C 25.79 14.03 25.78 15.38 25.77 16.05 C 29.87 16.13 33.97 16.13 38.07 16.04 C 37.97 15.39 37.76 14.10 37.66 13.45 C 33.71 13.33 29.75 13.55 25.80 13.36 M 27.17 42.78 C 24.82 44.20 22.47 45.59 20.12 47.00 C 18.79 46.43 17.52 45.59 16.06 45.42 C 13.43 45.70 11.16 48.26 11.68 50.94 C 11.94 52.99 14.00 53.97 15.37 55.24 C 15.37 57.96 15.35 60.68 15.23 63.40 C 12.56 64.65 10.28 67.81 12.36 70.62 C 14.02 73.53 17.75 73.17 20.08 71.32 C 22.39 72.72 24.71 74.09 27.06 75.41 C 27.13 78.08 28.07 81.42 31.18 81.83 C 34.75 82.49 36.95 78.72 36.60 75.57 C 38.95 74.11 41.34 72.72 43.75 71.36 C 44.80 71.92 45.88 72.41 46.99 72.83 C 50.28 73.30 53.35 69.34 51.71 66.33 C 51.10 64.88 49.54 64.21 48.40 63.25 C 48.36 60.51 48.37 57.77 48.47 55.03 C 51.13 53.73 53.45 50.49 51.38 47.66 C 49.71 44.78 46.04 45.27 43.73 47.03 C 41.35 45.64 38.97 44.25 36.60 42.83 C 37.03 39.60 34.63 35.75 31.01 36.57 C 28.02 37.03 27.15 40.20 27.17 42.78 Z" /><path d=" M 35.38 44.16 C 37.83 45.67 40.32 47.13 42.85 48.49 C 42.87 49.57 42.89 50.65 42.91 51.73 C 39.55 53.71 36.16 55.64 32.83 57.68 C 32.82 53.80 32.82 49.92 32.86 46.04 C 33.70 45.42 34.54 44.79 35.38 44.16 Z" /><path d=" M 20.73 48.72 C 23.23 47.20 25.74 45.72 28.26 44.24 C 29.16 44.80 30.05 45.36 30.95 45.92 C 30.93 49.81 30.94 53.70 30.96 57.60 C 27.56 55.69 24.22 53.70 20.83 51.77 C 20.81 51.01 20.75 49.48 20.73 48.72 Z" /><path d=" M 17.17 55.00 C 18.08 54.42 18.99 53.85 19.90 53.27 C 23.29 55.31 26.71 57.29 30.22 59.13 C 26.77 61.07 23.33 63.03 19.97 65.13 C 19.04 64.55 18.11 63.99 17.19 63.42 C 17.19 60.61 17.19 57.81 17.17 55.00 Z" /><path d=" M 33.64 59.14 C 37.07 57.21 40.49 55.27 43.87 53.25 C 44.55 53.68 45.91 54.53 46.59 54.96 C 46.58 57.84 46.57 60.73 46.50 63.61 C 45.81 63.98 44.43 64.72 43.74 65.10 C 40.42 63.03 37.03 61.09 33.64 59.14 Z" /><path d=" M 20.89 66.51 C 24.28 64.63 27.61 62.65 30.99 60.75 C 30.94 64.70 30.95 68.65 30.88 72.60 C 29.98 73.10 29.08 73.61 28.18 74.11 C 25.75 72.57 23.27 71.13 20.78 69.73 C 20.81 68.65 20.85 67.58 20.89 66.51 Z" /><path d=" M 32.79 60.69 C 36.13 62.65 39.46 64.63 42.86 66.49 C 42.87 67.57 42.88 68.64 42.90 69.72 C 40.48 71.11 38.08 72.55 35.74 74.09 C 34.75 73.54 33.76 72.99 32.77 72.45 C 32.85 68.53 32.85 64.61 32.79 60.69 Z" /></svg>