<svg width="128px" height="256px" viewBox="0 0 717 1252" version="1.1" xmlns="http://www.w3.org/2000/svg"><path d=" M 323.68 43.74 C 335.36 29.36 346.68 14.66 358.59 0.48 C 424.81 83.43 491.35 166.12 557.65 249.01 C 505.09 314.72 452.36 380.31 399.81 446.03 C 416.33 466.79 433.03 487.42 449.54 508.18 C 485.12 464.31 520.20 420.02 555.66 376.04 C 603.01 435.15 650.39 494.23 697.74 553.32 C 704.22 561.15 710.23 569.40 717.00 576.97 L 717.00 576.98 C 681.69 621.21 646.10 665.23 610.91 709.55 C 640.95 746.79 670.75 784.23 700.75 821.51 C 701.27 822.27 702.52 823.31 701.34 824.19 C 587.05 966.78 472.71 1109.34 358.50 1252.00 L 358.48 1252.00 C 310.40 1192.24 262.52 1132.31 214.52 1072.48 C 147.96 989.36 81.25 906.35 14.78 823.16 C 45.21 785.33 75.42 747.33 105.95 709.58 C 70.80 665.36 35.37 621.34 0.00 577.29 L 0.00 577.17 C 53.71 510.12 107.44 443.08 161.19 376.06 C 196.60 420.05 231.79 464.22 267.21 508.20 C 283.87 487.51 300.45 466.75 317.06 446.03 C 264.45 380.34 211.78 314.71 159.18 249.01 C 213.98 180.56 268.85 112.17 323.68 43.74 M 358.37 3.96 C 292.98 85.71 227.48 167.37 161.98 249.03 C 214.67 314.64 267.30 380.31 319.87 446.03 C 302.33 467.95 284.91 489.99 267.11 511.69 C 239.23 477.00 211.43 442.24 183.60 407.52 C 176.01 398.32 168.91 388.68 161.03 379.76 C 108.36 445.53 55.71 511.34 2.89 577.00 C 15.54 593.35 28.73 609.31 41.58 625.51 C 64.00 653.42 86.30 681.41 108.78 709.27 C 78.63 747.39 47.98 785.13 17.71 823.15 C 56.94 872.58 96.63 921.67 136.02 970.98 C 210.20 1063.41 284.17 1156.02 358.48 1248.35 C 459.61 1122.22 560.70 996.07 661.81 869.92 C 674.19 854.23 687.07 838.89 699.13 822.99 C 668.65 785.27 638.52 747.27 608.04 709.55 C 621.28 692.63 634.88 676.01 648.25 659.20 C 670.21 631.93 691.94 604.48 714.02 577.32 C 661.43 511.37 608.45 445.71 555.86 379.76 C 554.34 380.94 553.26 382.54 552.08 384.03 C 517.99 426.57 483.89 469.10 449.80 511.64 C 443.98 505.25 438.90 498.18 433.37 491.52 C 421.22 476.36 409.05 461.21 396.91 446.03 C 449.56 380.36 502.16 314.65 554.86 249.02 C 489.30 167.38 423.91 85.61 358.37 3.96 Z" /><path d=" M 239.04 248.96 C 278.81 199.34 318.58 149.71 358.36 100.09 C 398.30 149.62 438.04 199.31 477.76 249.02 C 438.04 298.72 398.28 348.41 358.36 397.94 C 318.61 348.26 278.69 298.71 239.04 248.96 M 352.75 110.67 C 315.79 156.76 278.86 202.87 241.89 248.96 C 253.09 263.15 264.48 277.18 275.76 291.30 C 303.39 325.63 330.73 360.20 358.54 394.37 C 397.26 345.83 436.24 297.49 474.96 248.96 C 436.16 200.57 397.33 152.21 358.62 103.75 C 356.31 105.73 354.73 108.39 352.75 110.67 Z" /><path d=" M 159.57 477.60 C 160.12 476.87 160.78 476.27 161.54 475.77 C 183.67 503.98 206.42 531.71 228.65 559.84 C 201.76 593.74 174.40 627.27 147.60 661.25 C 145.85 660.03 144.75 658.16 143.40 656.55 C 122.28 630.22 101.20 603.85 80.05 577.55 C 80.13 577.27 80.29 576.72 80.37 576.45 C 106.77 543.50 133.20 510.57 159.57 477.60 M 82.69 577.14 C 104.13 604.10 125.76 630.92 147.29 657.82 C 173.52 625.21 199.61 592.50 225.84 559.89 C 204.33 532.96 182.85 506.00 161.14 479.25 C 134.99 511.88 108.82 544.50 82.69 577.14 Z" /><path d=" M 555.29 475.80 C 556.80 476.59 557.64 478.14 558.71 479.40 C 584.79 512.00 610.92 544.55 637.01 577.13 C 615.49 604.24 593.72 631.14 572.14 658.19 C 571.30 659.30 570.42 660.39 569.34 661.28 C 542.82 627.95 516.09 594.80 489.48 561.54 C 489.23 560.98 488.74 559.86 488.49 559.30 C 510.78 531.49 533.22 503.78 555.29 475.80 M 491.01 559.92 C 517.17 592.51 543.38 625.06 569.38 657.78 C 572.25 654.80 574.61 651.37 577.27 648.20 C 596.17 624.43 615.46 600.94 634.11 576.99 C 607.89 544.45 581.81 511.79 555.67 479.19 C 534.07 506.06 512.45 532.92 491.01 559.92 Z" /><path d=" M 358.33 528.78 C 437.20 626.73 515.65 725.05 594.41 823.11 C 520.73 915.50 446.62 1007.57 372.78 1099.84 C 367.84 1105.65 363.52 1112.05 358.21 1117.50 C 279.66 1019.38 200.91 921.40 122.44 823.21 C 200.99 725.00 279.76 626.97 358.33 528.78 M 344.61 549.51 C 271.49 640.70 198.46 731.96 125.28 823.09 C 137.42 838.72 150.02 854.02 162.33 869.53 C 202.53 919.67 242.72 969.82 282.91 1019.97 C 308.17 1051.31 333.10 1082.94 358.57 1114.10 C 436.14 1017.06 513.95 920.22 591.60 823.24 C 514.02 726.24 436.11 629.51 358.67 532.40 C 353.60 537.73 349.37 543.87 344.61 549.51 Z" /><path d=" M 197.22 823.20 C 250.93 756.16 304.68 689.17 358.36 622.11 C 412.22 689.05 465.85 756.19 519.63 823.20 C 486.22 865.00 452.72 906.72 419.26 948.48 C 398.90 973.71 378.87 999.23 358.30 1024.27 C 304.65 957.21 250.84 890.28 197.22 823.20 M 337.16 652.18 C 291.42 709.15 245.86 766.26 200.02 823.14 C 252.77 889.09 305.67 954.93 358.44 1020.87 C 411.16 954.96 463.97 889.10 516.80 823.28 C 464.09 757.42 411.28 691.64 358.55 625.80 C 351.14 634.34 344.33 643.42 337.16 652.18 Z" /><path d=" M 358.37 3.96 C 423.91 85.61 489.30 167.38 554.86 249.02 C 502.16 314.65 449.56 380.36 396.91 446.03 C 409.05 461.21 421.22 476.36 433.37 491.52 C 438.90 498.18 443.98 505.25 449.80 511.64 C 483.89 469.10 517.99 426.57 552.08 384.03 C 553.26 382.54 554.34 380.94 555.86 379.76 C 608.45 445.71 661.43 511.37 714.02 577.32 C 691.94 604.48 670.21 631.93 648.25 659.20 C 634.88 676.01 621.28 692.63 608.04 709.55 C 638.52 747.27 668.65 785.27 699.13 822.99 C 687.07 838.89 674.19 854.23 661.81 869.92 C 560.70 996.07 459.61 1122.22 358.48 1248.35 C 284.17 1156.02 210.20 1063.41 136.02 970.98 C 96.63 921.67 56.94 872.58 17.71 823.15 C 47.98 785.13 78.63 747.39 108.78 709.27 C 86.30 681.41 64.00 653.42 41.58 625.51 C 28.73 609.31 15.54 593.35 2.89 577.00 C 55.71 511.34 108.36 445.53 161.03 379.76 C 168.91 388.68 176.01 398.32 183.60 407.52 C 211.43 442.24 239.23 477.00 267.11 511.69 C 284.91 489.99 302.33 467.95 319.87 446.03 C 267.30 380.31 214.67 314.64 161.98 249.03 C 227.48 167.37 292.98 85.71 358.37 3.96 M 239.04 248.96 C 278.69 298.71 318.61 348.26 358.36 397.94 C 398.28 348.41 438.04 298.72 477.76 249.02 C 438.04 199.31 398.30 149.62 358.36 100.09 C 318.58 149.71 278.81 199.34 239.04 248.96 M 159.57 477.60 C 133.20 510.57 106.77 543.50 80.37 576.45 C 80.29 576.72 80.13 577.27 80.05 577.55 C 101.20 603.85 122.28 630.22 143.40 656.55 C 144.75 658.16 145.85 660.03 147.60 661.25 C 174.40 627.27 201.76 593.74 228.65 559.84 C 206.42 531.71 183.67 503.98 161.54 475.77 C 160.78 476.27 160.12 476.87 159.57 477.60 M 555.29 475.80 C 533.22 503.78 510.78 531.49 488.49 559.30 C 488.74 559.86 489.23 560.98 489.48 561.54 C 516.09 594.80 542.82 627.95 569.34 661.28 C 570.42 660.39 571.30 659.30 572.14 658.19 C 593.72 631.14 615.49 604.24 637.01 577.13 C 610.92 544.55 584.79 512.00 558.71 479.40 C 557.64 478.14 556.80 476.59 555.29 475.80 M 358.33 528.78 C 279.76 626.97 200.99 725.00 122.44 823.21 C 200.91 921.40 279.66 1019.38 358.21 1117.50 C 363.52 1112.05 367.84 1105.65 372.78 1099.84 C 446.62 1007.57 520.73 915.50 594.41 823.11 C 515.65 725.05 437.20 626.73 358.33 528.78 Z" /><path d=" M 337.16 652.18 C 344.33 643.42 351.14 634.34 358.55 625.80 C 411.28 691.64 464.09 757.42 516.80 823.28 C 463.97 889.10 411.16 954.96 358.44 1020.87 C 305.67 954.93 252.77 889.09 200.02 823.14 C 245.86 766.26 291.42 709.15 337.16 652.18 Z" /></svg>
