<svg width="256px" height="256px" viewBox="0 0 128 128" version="1.1" xmlns="http://www.w3.org/2000/svg"><path d=" M 55.77 16.81 C 57.94 11.52 59.70 6.01 60.13 0.27 C 60.67 5.91 62.28 11.37 64.51 16.56 C 66.68 11.38 68.37 5.97 68.84 0.35 C 69.35 6.09 71.03 11.63 73.28 16.92 C 92.16 20.33 108.04 35.99 111.35 54.94 C 116.62 57.24 122.17 59.01 127.94 59.41 C 122.36 60.03 116.93 61.59 111.78 63.80 C 116.96 65.94 122.35 67.67 127.95 68.18 C 122.33 68.74 116.71 70.09 111.68 72.69 C 109.55 79.68 107.16 86.78 102.51 92.57 C 95.58 102.06 84.88 108.08 73.61 110.83 C 70.71 115.73 69.55 121.56 68.87 127.18 C 68.33 121.63 66.68 116.26 64.52 111.14 C 62.31 116.24 60.65 121.60 60.14 127.16 C 59.66 121.43 57.88 115.91 55.61 110.66 C 40.95 107.89 27.90 97.94 21.54 84.42 C 19.58 80.72 18.83 76.56 17.36 72.67 C 12.23 70.04 6.49 68.67 0.75 68.21 C 6.45 67.74 11.95 66.04 17.18 63.78 C 12.01 61.61 6.58 59.94 0.96 59.48 C 6.76 59.03 12.35 57.22 17.66 54.89 C 20.20 41.75 28.38 29.74 39.97 22.95 C 44.83 19.99 50.26 18.14 55.77 16.81 M 57.72 20.63 C 59.36 20.63 61.00 20.63 62.65 20.62 C 61.78 18.38 60.96 16.12 60.18 13.84 C 59.39 16.12 58.57 18.38 57.72 20.63 M 68.84 13.80 C 68.06 16.09 67.24 18.37 66.38 20.63 C 68.01 20.63 69.64 20.63 71.27 20.63 C 70.43 18.37 69.61 16.09 68.84 13.80 M 21.35 53.26 C 22.31 52.70 24.25 51.59 25.22 51.03 C 24.49 55.31 24.70 59.64 25.04 63.94 C 24.63 68.16 24.56 72.41 25.21 76.61 C 23.94 75.86 22.66 75.12 21.38 74.39 C 25.26 90.18 38.24 103.11 54.03 106.98 C 53.25 105.68 52.46 104.39 51.68 103.10 C 57.46 104.28 63.30 102.76 69.09 103.57 C 71.85 103.75 74.60 103.41 77.34 103.12 C 76.57 104.40 75.81 105.69 75.05 106.98 C 90.84 103.04 103.72 90.12 107.68 74.34 C 106.38 75.11 105.08 75.88 103.78 76.66 C 104.47 72.41 104.36 68.12 103.93 63.86 C 104.34 59.58 104.50 55.26 103.77 51.00 C 105.06 51.76 106.36 52.51 107.65 53.27 C 103.76 37.51 90.86 24.54 75.09 20.67 C 75.63 21.63 76.71 23.55 77.25 24.51 C 72.89 23.76 68.50 24.11 64.13 24.38 C 60.01 23.93 55.85 23.88 51.76 24.55 C 52.49 23.26 53.22 21.96 53.94 20.66 C 38.15 24.53 25.30 37.52 21.35 53.26 M 14.31 59.50 C 16.67 60.23 19.00 61.05 21.31 61.93 C 21.30 60.29 21.29 58.65 21.28 57.01 C 18.98 57.88 16.66 58.74 14.31 59.50 M 107.68 57.00 C 107.69 58.66 107.70 60.32 107.71 61.98 C 109.99 61.08 112.28 60.21 114.59 59.42 C 112.27 58.66 109.97 57.85 107.68 57.00 M 14.23 68.16 C 16.62 68.91 19.00 69.73 21.35 70.59 C 21.30 68.97 21.26 67.34 21.21 65.72 C 18.90 66.57 16.57 67.39 14.23 68.16 M 107.68 65.71 C 107.69 67.35 107.69 68.99 107.69 70.63 C 109.99 69.76 112.30 68.92 114.63 68.12 C 112.30 67.37 109.98 66.56 107.68 65.71 M 57.68 107.00 C 58.54 109.27 59.38 111.54 60.19 113.83 C 60.98 111.54 61.80 109.27 62.65 107.02 C 60.99 107.01 59.34 107.01 57.68 107.00 M 66.36 107.01 C 67.21 109.27 68.04 111.55 68.81 113.85 C 69.60 111.55 70.45 109.27 71.32 107.00 C 69.66 107.01 68.01 107.01 66.36 107.01 Z" /><path d=" M 63.42 38.98 C 63.95 36.31 62.87 33.13 64.99 30.97 C 65.32 33.60 65.25 36.27 65.59 38.89 C 67.17 43.23 70.71 46.64 72.06 51.07 C 71.32 54.52 69.15 57.45 67.72 60.63 C 70.84 59.14 73.77 57.11 77.14 56.19 C 81.06 57.39 84.17 60.31 87.84 62.09 C 90.74 63.88 94.64 61.87 97.37 64.18 C 93.95 65.06 90.08 63.93 87.00 65.98 C 83.67 67.68 80.80 70.47 77.11 71.35 C 73.72 70.62 70.87 68.40 67.71 67.05 C 68.88 70.92 73.73 74.85 71.10 79.05 C 69.39 82.30 67.00 85.19 65.60 88.61 C 65.18 91.26 65.33 93.96 65.04 96.62 C 62.58 94.48 64.22 90.96 63.28 88.24 C 61.57 84.29 58.50 81.07 57.03 77.01 C 57.18 73.36 60.01 70.40 61.28 67.06 C 58.15 68.42 55.31 70.59 51.93 71.31 C 46.54 70.26 42.83 64.45 37.03 64.71 C 35.37 64.33 32.58 65.45 32.08 63.05 C 34.59 62.93 37.12 63.13 39.61 62.74 C 43.91 60.91 47.61 57.92 51.85 55.93 C 55.03 57.41 58.18 58.99 61.32 60.57 C 59.83 57.43 57.63 54.51 56.95 51.05 C 58.22 46.63 61.78 43.27 63.42 38.98 M 64.35 40.46 C 62.83 43.50 61.11 46.43 59.36 49.34 C 61.10 51.05 62.91 52.69 64.74 54.29 C 65.17 52.49 66.76 51.68 68.26 50.86 C 67.07 50.84 64.68 50.80 63.48 50.78 C 65.77 50.24 68.08 49.80 70.34 49.15 C 68.06 48.92 65.78 48.81 63.50 48.62 C 65.47 48.27 67.45 47.99 69.43 47.62 C 67.55 47.05 65.59 46.89 63.64 46.75 C 65.14 46.25 66.63 45.73 68.12 45.18 C 66.96 45.03 64.64 44.74 63.48 44.59 C 64.23 44.44 65.72 44.14 66.47 43.99 C 65.73 42.83 65.04 41.65 64.35 40.46 M 61.52 59.90 C 62.44 60.78 63.37 61.66 64.30 62.53 C 65.20 61.67 66.11 60.80 67.02 59.93 C 66.10 59.01 65.18 58.09 64.27 57.17 C 63.35 58.08 62.43 58.99 61.52 59.90 M 41.20 63.80 C 42.31 64.27 43.41 64.74 44.51 65.21 C 46.67 66.27 48.69 67.59 50.53 69.13 C 50.52 68.44 50.50 67.05 50.49 66.35 C 51.05 66.41 52.18 66.54 52.75 66.60 C 52.65 66.10 52.46 65.10 52.36 64.60 C 53.08 64.49 54.50 64.26 55.21 64.15 C 53.53 62.30 51.81 60.49 50.07 58.69 C 47.10 60.37 44.14 62.08 41.20 63.80 M 73.83 64.21 C 74.53 64.30 75.94 64.48 76.64 64.57 C 76.54 65.08 76.34 66.08 76.24 66.58 C 76.80 66.53 77.93 66.43 78.49 66.38 C 78.49 67.06 78.48 68.41 78.47 69.09 C 79.91 67.97 81.46 67.01 83.10 66.22 C 83.16 66.06 83.28 65.76 83.34 65.61 C 84.84 65.00 86.34 64.42 87.84 63.85 C 84.87 62.10 81.87 60.39 78.90 58.64 C 77.20 60.48 75.50 62.33 73.83 64.21 M 60.31 61.09 C 59.39 62.00 58.46 62.91 57.54 63.82 C 58.44 64.72 59.34 65.62 60.24 66.52 C 61.13 65.60 62.03 64.67 62.93 63.75 C 62.05 62.86 61.18 61.98 60.31 61.09 M 65.76 63.86 C 66.68 64.79 67.60 65.72 68.53 66.65 C 69.46 65.71 70.39 64.76 71.32 63.82 C 70.39 62.89 69.46 61.95 68.53 61.02 C 67.61 61.97 66.68 62.92 65.76 63.86 M 64.31 64.99 C 63.38 65.91 62.46 66.83 61.53 67.76 C 62.44 68.65 63.34 69.55 64.25 70.44 C 65.18 69.53 66.11 68.63 67.04 67.72 C 66.13 66.81 65.22 65.90 64.31 64.99 M 62.83 73.90 C 63.31 74.29 64.26 75.07 64.73 75.46 C 63.31 75.74 61.90 76.04 60.49 76.35 C 62.05 76.73 63.62 77.11 65.18 77.50 C 63.04 77.66 60.91 77.86 58.77 78.09 C 60.81 79.25 63.14 79.57 65.41 79.96 C 64.02 80.10 61.24 80.38 59.85 80.52 C 61.60 80.98 63.35 81.42 65.10 81.83 C 64.09 82.03 62.06 82.43 61.05 82.63 C 62.39 83.02 63.74 83.40 65.10 83.77 C 64.58 83.84 63.54 83.99 63.02 84.06 C 63.38 84.86 64.11 86.44 64.48 87.23 C 66.14 84.17 67.92 81.16 69.67 78.15 C 67.51 76.63 65.88 73.23 62.83 73.90 Z" /><path d=" M 48.46 36.47 C 52.22 38.98 52.93 43.93 55.13 47.62 C 52.77 44.00 49.75 40.68 48.46 36.47 Z" /><path d=" M 73.91 47.57 C 75.96 43.81 76.93 39.19 80.39 36.40 C 79.40 40.70 76.18 43.93 73.91 47.57 Z" /><path d=" M 37.32 47.64 C 41.16 49.14 44.39 51.79 47.77 54.08 C 44.27 52.06 39.23 51.55 37.32 47.64 Z" /><path d=" M 81.04 54.30 C 84.16 52.20 87.05 49.65 90.50 48.12 L 91.88 48.94 C 88.34 50.88 84.68 52.57 81.04 54.30 Z" /><path d=" M 79.07 74.86 C 82.62 77.19 86.63 79.00 89.43 82.30 C 85.06 81.50 82.51 77.31 79.07 74.86 Z" /><path d=" M 39.59 82.42 C 42.09 79.06 46.08 77.41 49.46 75.13 C 46.32 77.71 43.72 81.38 39.59 82.42 Z" /><path d=" M 52.72 92.56 C 51.98 88.37 55.49 85.03 57.04 81.40 C 55.87 85.21 54.76 89.10 52.72 92.56 Z" /><path d=" M 71.89 81.11 C 73.30 84.84 77.09 88.25 76.17 92.48 C 74.20 88.91 73.04 84.99 71.89 81.11 Z" /></svg>