<svg width="256px" height="256px" viewBox="0 0 128 128" version="1.1" xmlns="http://www.w3.org/2000/svg"><path d=" M 64.62 9.38 C 72.61 24.81 84.04 37.95 94.47 51.71 C 90.26 54.44 86.03 57.16 81.78 59.85 C 83.11 57.94 84.45 56.04 85.79 54.13 C 79.28 47.76 72.92 41.21 65.97 35.31 C 66.05 46.38 68.95 57.39 74.68 66.88 C 67.62 65.34 60.27 65.34 53.17 66.61 C 58.61 57.12 63.23 46.92 62.11 35.62 C 54.77 41.51 47.81 47.87 41.04 54.40 C 43.06 56.66 45.07 58.93 47.02 61.26 C 42.09 58.09 37.23 54.83 32.62 51.22 C 44.42 38.21 56.20 24.91 64.62 9.38 Z" /><path d=" M 85.76 68.66 C 90.36 66.63 95.02 64.76 99.70 62.92 C 106.40 79.01 112.91 95.34 122.81 109.82 C 105.16 108.29 87.53 110.29 69.99 112.09 C 70.02 107.30 70.03 102.52 70.12 97.74 C 70.51 99.22 71.29 102.20 71.68 103.69 C 80.57 101.77 89.46 99.82 98.28 97.61 C 88.66 91.69 77.41 89.28 66.24 88.83 C 70.62 83.53 75.22 78.06 76.96 71.24 C 82.81 80.55 89.88 89.82 100.12 94.54 C 98.08 85.71 95.41 77.04 93.00 68.31 C 90.59 68.43 88.17 68.55 85.76 68.66 Z" /><path d=" M 27.47 63.78 C 32.47 65.53 37.40 67.52 42.29 69.59 C 39.62 69.43 36.99 69.29 34.33 69.12 C 32.19 77.81 29.72 86.41 27.86 95.17 C 37.69 89.66 45.06 81.03 50.39 71.22 C 51.89 78.23 56.37 84.16 61.77 88.71 C 50.50 89.03 39.53 92.35 29.59 97.57 C 38.30 100.13 47.21 101.96 56.08 103.89 C 56.64 101.83 57.21 99.78 57.78 97.72 C 57.87 102.55 57.97 107.38 58.03 112.22 C 40.44 110.99 22.83 109.01 5.18 110.74 C 14.86 96.25 21.12 79.90 27.47 63.78 Z" /><path d=" M 54.08 69.93 C 60.31 69.56 66.57 69.40 72.81 69.82 C 72.40 76.36 68.86 82.00 63.91 86.06 C 59.36 81.60 55.38 76.30 54.08 69.93 Z" /></svg>
