<svg width="256px" height="256px" viewBox="0 0 650 500" version="1.1" xmlns="http://www.w3.org/2000/svg"><path d=" M 248.29 0.00 L 248.69 0.00 C 292.26 9.59 335.14 22.03 377.65 35.52 C 392.78 40.01 407.56 45.65 421.93 52.18 C 439.19 60.36 456.04 69.97 469.98 83.17 C 476.71 89.42 482.34 96.71 487.93 103.97 C 502.32 124.30 507.78 149.48 509.51 173.95 C 511.11 196.83 510.92 220.46 503.21 242.34 C 498.06 257.20 488.59 270.75 475.53 279.68 C 464.86 287.79 451.29 291.55 437.98 291.13 C 421.82 290.72 406.20 285.52 391.67 278.73 C 391.63 226.81 391.68 174.90 391.65 122.98 C 391.63 112.97 390.63 102.44 385.24 93.74 C 380.92 86.72 373.04 82.64 365.11 81.27 C 359.69 80.62 356.03 85.45 353.33 89.41 C 350.06 94.99 350.31 101.76 350.07 108.01 C 349.99 238.67 350.13 369.34 350.00 500.00 L 349.76 500.00 C 315.98 489.46 282.07 479.33 248.27 468.87 C 248.30 312.58 248.25 156.29 248.29 0.00 Z" /><path d=" M 130.82 313.59 C 159.54 303.52 187.98 292.62 216.99 283.41 C 217.01 303.94 217.00 324.46 216.99 344.99 C 184.34 356.68 151.52 367.88 119.01 379.98 C 112.41 382.38 106.09 385.52 100.13 389.22 C 97.61 390.79 96.43 394.43 98.18 397.00 C 100.15 399.91 103.14 402.65 106.86 402.74 C 115.07 403.69 123.28 404.74 131.48 405.77 C 134.62 406.12 137.81 406.90 140.97 406.23 C 151.26 404.25 161.56 402.26 171.87 400.34 C 176.70 399.51 181.06 397.16 185.62 395.49 C 195.92 391.21 206.46 387.58 216.97 383.84 C 216.98 401.51 216.98 419.18 216.96 436.85 C 208.33 437.83 199.74 439.24 191.06 439.76 C 143.46 443.95 95.03 438.71 49.42 424.46 C 36.88 420.27 24.24 415.50 13.71 407.31 C 6.74 402.00 1.07 394.40 0.00 385.51 L 0.00 382.53 C 1.04 375.95 5.44 370.59 10.21 366.24 C 21.54 356.39 35.18 349.75 48.86 343.83 C 75.75 332.63 103.47 323.60 130.82 313.59 Z" /><path d=" M 424.97 315.00 C 449.33 310.28 474.18 308.69 498.96 308.74 C 525.60 308.90 552.20 312.52 577.93 319.42 C 595.95 324.54 614.09 330.16 630.33 339.71 C 639.61 345.28 648.76 353.51 650.00 364.92 L 650.00 369.44 C 649.11 379.76 641.58 387.85 633.44 393.46 C 620.50 402.63 605.17 407.24 590.96 413.95 C 582.34 418.10 573.13 420.77 564.18 424.08 C 501.57 446.26 438.93 468.39 376.36 490.69 C 376.33 470.28 376.33 449.87 376.35 429.46 C 429.61 410.08 483.18 391.57 536.16 371.43 C 541.13 369.42 546.34 367.89 551.00 365.17 C 553.54 363.58 556.47 361.37 556.47 358.06 C 555.83 353.29 551.25 350.24 546.93 349.08 C 536.06 346.85 525.08 343.39 513.86 345.23 C 503.66 347.11 493.64 349.92 483.61 352.51 C 447.93 365.26 412.16 377.73 376.38 390.20 C 376.36 369.21 376.38 348.22 376.37 327.23 C 392.33 322.28 408.53 318.05 424.97 315.00 Z" /></svg>
