<svg width="147px" height="256px" viewBox="0 0 782 1366" version="1.1" xmlns="http://www.w3.org/2000/svg"><path d=" M 390.60 0.90 C 390.90 1.17 391.50 1.71 391.80 1.99 C 463.93 91.70 536.07 181.42 608.20 271.14 C 550.56 342.87 492.81 414.53 435.24 486.33 C 438.65 491.46 443.06 496.16 446.84 501.13 C 461.62 519.51 476.40 537.90 491.18 556.27 C 529.71 508.33 568.25 460.40 606.90 412.55 C 665.05 484.88 723.21 557.20 781.36 629.54 C 742.82 677.48 704.38 725.51 665.78 773.41 C 696.02 811.10 726.34 848.73 756.60 886.40 C 758.89 889.55 761.94 892.44 763.74 895.74 C 639.53 1052.14 515.14 1208.41 390.82 1364.72 C 266.45 1208.33 142.07 1051.95 17.70 895.56 C 50.43 854.84 83.20 814.15 115.89 773.40 C 77.27 725.52 38.86 677.47 0.31 629.54 C 58.44 557.20 116.62 484.90 174.75 412.55 C 213.42 460.38 251.95 508.32 290.47 556.27 C 309.21 533.04 327.87 509.74 346.60 486.50 C 288.92 414.69 231.19 342.92 173.46 271.15 C 222.57 210.06 271.69 148.97 320.80 87.89 C 344.04 58.87 367.50 30.02 390.60 0.90 M 390.70 110.95 C 348.11 164.20 305.27 217.25 262.58 270.42 C 305.38 323.86 348.19 377.29 391.00 430.72 C 433.75 377.35 476.53 324.00 519.25 270.61 C 476.35 217.44 433.76 163.99 390.70 110.95 M 88.81 629.50 C 112.47 659.22 136.40 688.73 160.16 718.37 C 188.89 682.65 217.61 646.93 246.32 611.20 C 222.54 581.61 198.76 552.02 174.96 522.44 C 146.22 558.11 117.60 593.87 88.81 629.50 M 606.69 522.44 C 582.92 552.04 559.11 581.60 535.34 611.20 C 564.05 646.92 592.79 682.63 621.49 718.37 C 645.31 688.81 669.05 659.19 692.87 629.63 C 664.17 593.87 635.44 558.15 606.69 522.44 M 136.52 897.17 C 221.27 1003.76 306.09 1110.29 390.82 1216.90 C 475.59 1110.31 560.39 1003.75 645.15 897.15 C 560.37 790.58 475.59 684.01 390.82 577.43 C 306.10 684.04 221.27 790.58 136.52 897.17 Z" /><path d=" M 217.50 897.20 C 275.27 824.55 333.09 751.95 390.82 679.28 C 448.59 751.87 506.28 824.53 564.12 897.07 C 506.48 969.82 448.57 1042.36 390.83 1115.04 C 333.05 1042.42 275.34 969.76 217.50 897.20 Z" /></svg>