<svg width="18.3vw" height="30.4vh" viewBox="0 0 250 234" version="1.1" xmlns="http://www.w3.org/2000/svg"><path d=" M 142.71 0.00 L 143.39 0.00 C 179.03 35.26 214.42 70.77 250.00 106.09 L 250.00 106.71 C 239.13 117.30 228.41 128.03 217.74 138.82 C 192.97 114.14 168.33 89.31 143.35 64.85 C 132.80 75.42 122.15 85.90 111.64 96.51 C 125.16 96.57 138.67 96.56 152.19 96.51 C 181.97 126.16 211.74 155.81 241.48 185.48 C 244.33 188.14 246.79 191.24 250.00 193.49 L 250.00 194.47 C 247.83 195.73 246.17 197.65 244.41 199.39 C 235.32 208.46 226.31 217.60 217.12 226.55 C 189.15 198.64 161.20 170.70 133.12 142.90 C 125.88 142.94 118.64 142.86 111.40 142.94 C 141.93 173.26 172.35 203.68 202.87 234.00 L 55.56 234.00 C 55.56 219.28 55.54 204.56 55.57 189.83 C 68.02 189.75 80.47 189.56 92.92 189.36 C 81.24 177.97 69.80 166.33 58.19 154.87 C 38.85 135.39 19.11 116.29 0.01 96.59 C 14.70 96.50 29.40 96.55 44.09 96.56 C 45.30 96.65 46.52 96.35 47.28 95.34 C 79.03 63.50 111.13 32.00 142.71 0.00 Z" /></svg>