<svg width="18.3vw" height="28.1vh" viewBox="0 0 250 216" version="1.1" xmlns="http://www.w3.org/2000/svg"><path d=" M 99.42 15.39 C 106.60 4.25 121.18 -1.69 133.95 2.63 C 143.25 5.48 150.11 13.18 154.30 21.68 C 183.21 70.38 212.27 119.00 241.23 167.67 C 244.98 173.67 249.83 179.46 250.00 186.91 L 250.00 191.52 C 249.23 197.69 246.65 203.75 242.10 208.08 C 237.27 213.06 230.38 215.58 223.55 216.00 L 28.03 216.00 C 20.67 215.94 13.11 213.46 7.91 208.09 C 3.39 203.80 0.84 197.81 0.00 191.70 L 0.00 187.12 C 0.10 178.55 6.32 172.27 10.24 165.22 C 39.94 115.26 69.79 65.38 99.42 15.39 M 124.68 27.14 C 92.83 80.73 61.09 134.38 29.27 188.00 C 93.09 188.00 156.91 188.00 220.73 188.00 C 188.91 134.40 157.18 80.74 125.33 27.17 C 125.17 27.16 124.85 27.15 124.68 27.14 Z" /><path d=" M 113.49 76.04 C 121.16 75.98 128.84 75.98 136.51 76.04 C 135.29 96.69 133.83 117.33 132.50 137.97 C 127.50 138.02 122.50 138.02 117.49 137.97 C 116.18 117.33 114.70 96.69 113.49 76.04 Z" /><path d=" M 121.42 152.66 C 127.69 150.26 135.95 154.99 136.02 161.97 C 136.08 168.46 128.89 173.09 122.88 171.75 C 118.56 170.96 114.51 167.53 114.04 163.01 C 113.44 158.29 117.07 153.98 121.42 152.66 Z" /></svg>