<svg width="18.3vw" height="28.51vh" viewBox="0 0 250 219" version="1.1" xmlns="http://www.w3.org/2000/svg"><path d=" M 111.70 9.04 C 113.42 5.81 115.38 2.19 119.13 1.03 C 123.09 -0.15 127.58 -0.15 131.42 1.47 C 134.65 2.81 136.18 6.13 137.71 9.04 C 148.19 11.30 158.86 13.53 168.42 18.59 C 175.31 22.04 181.36 26.83 187.61 31.27 C 181.63 34.17 175.63 37.01 169.63 39.86 C 160.03 33.23 149.02 28.86 137.57 26.73 C 137.41 33.46 137.77 40.21 137.41 46.93 C 137.05 51.87 132.89 56.14 127.99 56.71 C 125.35 57.01 122.63 57.03 120.03 56.43 C 115.54 55.17 111.88 50.84 112.12 46.06 C 112.06 39.62 112.08 33.17 111.77 26.74 C 100.39 28.85 89.46 33.17 79.90 39.74 C 73.95 36.91 68.00 34.05 62.05 31.18 C 68.96 25.89 76.04 20.71 84.02 17.13 C 92.74 12.94 102.32 11.14 111.70 9.04 M 123.34 8.40 C 120.90 9.09 119.48 11.56 119.63 14.02 C 119.49 22.99 119.66 31.97 119.55 40.95 C 119.47 43.69 119.69 47.17 122.65 48.36 C 126.11 50.17 130.20 46.77 129.84 43.09 C 129.94 33.37 129.91 23.65 129.82 13.93 C 130.14 10.56 126.67 7.30 123.34 8.40 Z" /><path d=" M 28.95 29.98 C 46.54 38.29 64.13 46.63 81.71 54.97 C 81.72 88.15 81.76 121.33 81.68 154.51 C 75.10 149.40 68.77 143.65 64.55 136.38 C 63.51 134.79 63.51 132.85 63.48 131.03 C 63.48 109.73 63.47 88.44 63.46 67.15 C 51.86 54.85 40.43 42.38 28.95 29.98 Z" /><path d=" M 168.26 54.92 C 185.81 46.56 203.37 38.25 220.93 29.93 C 210.13 41.79 199.09 53.42 188.25 65.24 C 186.56 66.72 186.37 68.94 186.47 71.03 C 186.58 90.67 186.44 110.31 186.51 129.95 C 186.43 132.13 186.68 134.49 185.39 136.39 C 181.10 143.58 174.84 149.33 168.30 154.45 C 168.22 121.27 168.27 88.09 168.26 54.92 Z" /><path d=" M 40.08 57.67 C 44.30 62.30 48.47 66.97 52.66 71.62 C 42.68 93.27 42.20 119.20 52.19 140.93 C 59.37 156.97 72.07 170.20 87.32 178.81 C 87.30 185.32 87.29 191.83 87.29 198.34 C 83.01 196.34 78.80 194.19 74.68 191.87 C 74.70 195.68 74.71 199.49 74.69 203.30 C 72.86 204.32 71.06 205.43 69.05 206.09 C 65.01 206.75 61.27 204.61 57.70 203.03 C 57.69 194.98 57.69 186.92 57.65 178.87 C 44.66 165.66 34.30 149.36 30.46 131.05 C 23.88 131.02 17.30 131.24 10.72 131.07 C 8.37 131.02 6.31 129.77 4.34 128.64 C 1.64 126.98 1.26 123.62 0.00 120.99 L 0.00 118.99 C 0.43 113.96 3.77 108.91 8.98 108.00 C 14.95 107.06 21.04 107.71 27.06 107.55 C 27.04 96.36 29.56 85.37 32.69 74.69 C 34.45 68.73 37.15 63.13 40.08 57.67 M 8.40 116.76 C 6.24 117.60 6.23 120.83 8.04 122.18 C 13.66 122.81 19.34 122.39 24.99 122.51 C 26.74 122.31 29.03 122.88 30.19 121.18 C 31.67 119.43 30.13 116.41 27.87 116.52 C 21.39 116.30 14.85 116.11 8.40 116.76 Z" /><path d=" M 196.85 72.02 C 201.03 67.32 205.28 62.67 209.55 58.05 C 217.66 73.19 221.74 90.42 222.32 107.54 C 228.53 107.65 234.82 107.08 240.99 108.02 C 245.90 108.91 249.08 113.48 250.00 118.13 L 250.00 120.82 C 248.90 125.67 245.26 130.35 240.02 130.83 C 232.99 131.45 225.91 130.92 218.86 131.08 C 216.85 139.36 214.19 147.55 209.95 154.98 C 205.03 163.45 199.02 171.28 192.27 178.36 C 191.94 186.45 192.92 194.68 191.77 202.69 C 187.26 206.94 180.03 207.27 175.20 203.33 C 175.16 199.40 175.18 195.46 175.19 191.53 C 171.16 193.84 167.07 196.04 162.87 198.05 C 162.84 191.48 162.86 184.92 162.86 178.36 C 179.75 168.68 193.27 153.11 199.71 134.66 C 206.97 114.44 205.77 91.52 196.85 72.02 M 221.41 116.64 C 218.60 117.01 218.29 121.45 221.04 122.21 C 227.32 122.77 233.67 122.51 239.97 122.38 C 242.66 122.88 244.20 119.32 242.46 117.44 C 241.03 116.06 238.82 116.52 237.03 116.35 C 231.82 116.46 226.59 116.11 221.41 116.64 Z" /><path d=" M 108.01 97.75 C 119.34 97.71 130.68 97.73 142.01 97.74 C 136.24 130.50 130.87 163.32 125.04 196.07 C 119.09 163.35 113.67 130.53 108.01 97.75 Z" /><path d=" M 98.44 218.44 C 98.45 205.48 98.45 192.52 98.45 179.56 C 101.60 179.56 104.76 179.56 107.92 179.56 C 107.84 186.72 108.04 193.89 107.89 201.05 C 107.99 203.68 106.07 205.69 104.79 207.80 C 102.40 211.18 100.36 214.78 98.44 218.44 Z" /><path d=" M 141.98 179.56 C 145.14 179.56 148.30 179.55 151.46 179.56 C 151.28 192.71 152.32 205.84 151.74 219.00 L 151.39 219.00 C 149.45 213.05 144.96 208.46 142.34 202.89 C 141.37 195.16 142.24 187.33 141.98 179.56 Z" /></svg>