<svg width="18.3vw" height="32.55vh" viewBox="0 0 250 250" version="1.1" xmlns="http://www.w3.org/2000/svg"><path d=" M 118.58 0.00 L 129.55 0.00 C 155.84 1.02 181.72 10.43 202.37 26.75 C 231.09 49.27 249.17 84.83 250.00 121.37 L 250.00 131.24 C 248.32 160.23 236.69 188.62 216.78 209.86 C 194.57 234.17 162.43 248.76 129.56 250.00 L 119.46 250.00 C 91.41 248.63 63.89 237.80 42.83 219.16 C 16.90 196.95 1.26 163.65 0.00 129.59 L 0.00 120.41 C 1.13 91.10 12.75 62.30 32.67 40.72 C 54.48 16.50 86.09 1.80 118.58 0.00 M 34.98 55.36 C 56.51 50.01 77.87 43.98 99.37 38.48 C 101.07 37.84 102.89 38.61 104.03 39.93 C 106.53 42.78 107.93 46.99 106.57 50.67 C 105.49 53.57 101.92 53.97 99.91 56.02 C 97.78 57.61 97.02 60.46 98.01 62.92 C 109.15 104.88 120.08 146.91 131.33 188.83 C 133.13 193.54 139.01 192.34 142.94 192.81 C 147.14 194.83 148.65 200.34 147.49 204.61 C 147.07 206.29 145.63 207.46 143.96 207.77 C 120.51 214.12 96.99 220.18 73.57 226.64 C 99.04 239.80 129.70 242.21 157.11 234.01 C 182.24 226.55 204.47 209.98 219.00 188.18 C 196.40 194.00 173.90 200.19 151.30 206.04 C 149.23 198.75 147.19 191.43 145.55 184.02 C 146.38 179.82 151.76 178.75 155.32 179.67 C 158.39 181.35 158.65 187.09 163.01 186.47 C 167.35 185.58 171.63 184.39 175.86 183.09 C 178.95 181.81 182.77 178.82 181.50 175.02 C 173.26 143.56 164.93 112.13 156.67 80.68 C 150.09 82.32 143.49 83.93 137.01 85.93 C 133.02 86.99 133.96 91.86 133.58 94.97 C 131.69 99.39 122.96 100.86 121.81 95.16 C 119.43 86.46 117.00 77.77 114.91 69.00 C 114.27 64.79 119.59 62.92 123.00 63.35 C 126.75 63.70 127.13 68.42 129.88 70.23 C 131.18 71.12 132.78 70.50 134.18 70.26 C 140.31 68.73 146.41 67.09 152.50 65.39 C 151.30 60.23 149.90 55.12 148.53 50.01 C 147.99 48.00 147.15 45.71 145.03 44.91 C 139.74 42.78 134.16 45.11 129.00 46.48 C 127.27 47.09 124.89 47.18 124.11 49.17 C 122.74 51.95 124.75 55.86 122.07 58.02 C 119.56 60.39 115.11 61.18 112.41 58.71 C 109.69 51.47 108.25 43.81 106.08 36.40 C 126.29 30.59 146.79 25.74 166.99 19.84 C 148.71 12.31 128.44 10.02 108.88 12.60 C 79.95 16.54 52.72 32.12 34.98 55.36 M 177.15 37.11 C 176.21 38.59 176.84 40.31 177.19 41.85 C 188.31 83.74 199.30 125.67 210.43 167.55 C 211.43 171.76 216.57 171.71 220.00 171.67 C 222.91 171.22 224.57 173.97 226.19 175.85 C 238.62 151.08 241.42 121.72 234.04 95.02 C 226.79 68.35 209.36 44.59 186.06 29.73 C 183.35 32.52 179.03 33.51 177.15 37.11 M 62.49 71.94 C 73.54 113.49 84.59 155.04 95.65 196.59 C 96.10 199.08 98.04 200.75 100.24 201.78 C 103.87 199.20 102.28 194.61 101.26 191.10 C 90.48 150.74 79.80 110.36 69.03 70.00 C 68.62 67.42 66.24 66.07 63.96 65.39 C 62.74 67.33 61.51 69.60 62.49 71.94 M 22.79 74.71 C 11.26 97.27 8.16 123.81 13.31 148.55 C 18.88 175.93 35.25 200.67 57.73 217.14 C 59.79 213.28 64.92 212.80 66.99 208.96 C 68.06 206.80 66.91 204.48 66.46 202.32 C 55.47 161.25 44.64 120.13 33.63 79.07 C 32.35 74.44 26.65 74.56 22.79 74.71 Z" /></svg>