<svg width="18vw" height="32.5vh" viewBox="0 0 246 250" version="1.1" xmlns="http://www.w3.org/2000/svg"><path d=" M 8.96 0.00 L 29.17 0.00 C 41.48 10.56 52.20 22.82 63.96 33.97 C 67.82 30.79 71.24 27.09 75.31 24.17 C 76.60 24.53 77.50 25.65 78.49 26.49 C 87.17 35.14 96.05 43.57 104.95 51.99 C 107.21 54.14 109.40 56.54 110.38 59.58 C 112.00 64.45 112.35 69.62 113.59 74.58 C 107.59 78.06 101.45 81.33 95.71 85.24 C 96.57 77.69 98.35 68.68 92.77 62.43 C 86.82 55.84 77.15 57.07 69.15 56.85 C 49.26 37.71 29.03 18.94 8.96 0.00 Z" /><path d=" M 216.65 0.00 L 236.92 0.00 C 216.81 18.91 196.63 37.75 176.70 56.85 C 170.84 56.99 164.79 56.47 159.15 58.40 C 154.07 60.11 150.27 64.82 149.49 70.10 C 148.78 75.15 149.49 80.26 150.20 85.27 C 144.43 81.36 138.30 78.06 132.27 74.60 C 133.50 69.55 133.90 64.31 135.57 59.37 C 136.87 55.45 140.19 52.77 143.05 49.99 C 152.26 41.33 161.21 32.39 170.44 23.76 C 174.24 27.20 178.05 30.63 181.94 33.97 C 193.66 22.80 204.42 10.62 216.65 0.00 Z" /><path d=" M 0.00 8.94 C 17.51 26.12 35.36 42.98 52.81 60.25 C 55.20 62.83 58.36 64.90 59.95 68.10 C 61.01 74.20 59.41 81.20 63.45 86.49 C 67.43 92.14 74.94 92.57 81.07 94.16 C 78.16 95.44 75.24 96.71 72.34 98.00 C 72.25 102.52 72.16 107.03 72.09 111.54 C 68.96 110.81 65.77 110.31 62.73 109.27 C 59.04 107.99 56.56 104.82 53.80 102.24 C 44.74 93.51 35.71 84.75 26.73 75.95 C 29.23 71.68 32.57 68.01 35.93 64.42 C 23.84 52.99 12.06 41.22 0.00 29.77 L 0.00 8.94 Z" /><path d=" M 192.61 60.67 C 210.25 43.24 228.27 26.18 246.00 8.84 L 246.00 29.65 C 233.90 41.19 221.98 52.93 209.94 64.54 C 213.37 68.05 216.72 71.69 219.12 76.00 C 208.63 86.24 198.09 96.42 187.54 106.59 C 183.86 110.08 178.54 110.32 173.87 111.54 C 173.78 107.00 173.65 102.46 173.46 97.92 C 170.55 96.67 167.64 95.42 164.73 94.16 C 170.89 92.58 178.43 92.16 182.42 86.48 C 186.50 81.14 184.69 74.10 186.00 67.98 C 187.49 65.01 190.36 63.04 192.61 60.67 Z" /><path d=" M 98.66 114.00 C 106.78 109.49 115.04 105.21 122.94 100.33 C 130.85 105.23 139.12 109.51 147.25 114.02 C 147.30 123.45 147.28 132.89 147.45 142.32 C 139.24 147.15 130.80 151.66 122.97 157.11 C 115.06 151.73 106.66 147.13 98.41 142.32 C 98.63 132.88 98.62 123.44 98.66 114.00 Z" /><path d=" M 63.62 137.67 C 66.49 136.28 69.58 135.43 72.58 134.36 C 72.50 141.43 72.88 148.53 72.40 155.57 C 70.72 158.30 68.44 160.77 67.77 164.00 C 66.70 168.56 67.24 173.29 67.33 177.92 C 48.05 199.10 29.39 220.86 9.52 241.51 C 9.32 234.08 9.44 226.66 9.51 219.23 C 21.11 207.55 32.12 195.29 43.32 183.23 C 39.29 179.74 33.53 177.61 31.80 172.11 C 39.84 162.71 48.51 153.87 56.56 144.49 C 58.72 142.05 60.61 139.15 63.62 137.67 Z" /><path d=" M 173.27 153.98 C 173.18 147.44 173.27 140.89 173.26 134.35 C 177.75 136.06 183.03 136.90 186.21 140.87 C 195.15 151.59 205.02 161.50 214.05 172.14 C 212.33 177.67 206.48 179.70 202.55 183.33 C 213.87 195.19 224.59 207.61 236.31 219.09 C 236.40 226.52 236.50 233.95 236.30 241.37 C 216.34 220.85 197.83 199.00 178.48 177.91 C 178.77 171.82 179.62 165.10 176.24 159.66 C 175.24 157.77 173.07 156.32 173.27 153.98 Z" /><path d=" M 103.30 174.91 C 108.18 177.91 112.99 181.00 117.86 184.00 C 107.11 196.44 96.30 208.83 85.73 221.42 C 81.24 218.13 76.84 214.71 72.53 211.17 C 61.91 224.15 51.69 237.48 40.52 250.00 L 19.75 250.00 C 38.81 229.69 56.67 208.29 75.11 187.42 C 81.33 187.89 87.96 189.34 93.92 186.82 C 98.29 184.04 100.53 179.10 103.30 174.91 Z" /><path d=" M 128.02 184.01 C 132.87 181.00 137.68 177.92 142.54 174.92 C 145.37 179.11 147.59 184.13 152.03 186.88 C 158.01 189.30 164.59 187.88 170.80 187.44 C 189.19 208.33 207.08 229.68 226.11 250.00 L 205.39 250.00 C 194.16 237.52 183.96 224.16 173.35 211.15 C 169.04 214.70 164.64 218.13 160.14 221.42 C 149.56 208.84 138.76 196.45 128.02 184.01 Z" /></svg>