<svg width="8.78vw" height="32.5vh" viewBox="0 0 120 250" version="1.1" xmlns="http://www.w3.org/2000/svg"><path d=" M 24.88 0.07 C 47.48 2.36 70.78 6.37 90.35 18.61 C 99.56 24.11 106.78 33.15 109.28 43.66 C 111.64 52.30 109.36 61.33 106.54 69.57 C 99.35 89.07 84.19 103.94 73.50 121.43 C 64.25 136.44 56.20 152.53 52.78 169.96 C 49.76 185.44 51.01 202.26 58.85 216.20 C 67.38 231.56 82.02 242.61 97.68 250.00 L 94.78 250.00 C 75.54 248.02 55.96 245.12 38.33 236.73 C 26.34 230.89 14.75 222.82 7.87 211.12 C 3.20 203.27 0.71 194.27 0.00 185.20 L 0.00 176.70 C 0.59 166.52 3.73 156.60 8.76 147.75 C 24.06 119.06 54.88 102.42 69.14 73.01 C 78.10 55.14 72.26 32.38 57.94 19.06 C 48.89 9.77 36.45 5.28 24.88 0.07 Z" /><path d=" M 24.33 68.87 C 26.22 54.52 33.66 40.94 44.77 31.66 C 39.86 40.06 32.81 48.73 34.38 59.11 C 35.94 68.62 43.68 75.31 50.72 81.13 C 44.69 88.12 38.77 95.41 31.57 101.20 C 26.61 91.24 22.94 80.13 24.33 68.87 Z" /><path d=" M 71.05 142.55 C 77.32 132.46 83.39 122.20 90.89 112.96 C 105.36 128.75 118.38 147.94 119.40 170.01 C 120.99 193.68 108.03 216.03 90.62 231.18 C 96.95 214.74 101.24 196.63 97.32 179.08 C 94.31 163.84 84.04 150.74 71.05 142.55 Z" /></svg>