<svg width="17.86vw" height="32.5vh" viewBox="0 0 244 250" version="1.1" xmlns="http://www.w3.org/2000/svg"><path d=" M 54.25 13.22 C 65.91 2.71 82.48 0.88 97.52 0.36 C 99.13 11.82 99.01 23.43 99.07 34.97 C 98.74 48.62 98.87 62.28 98.86 75.93 C 98.97 84.15 99.76 92.62 97.42 100.61 C 96.89 103.17 94.21 104.16 92.13 105.19 C 84.10 108.64 75.00 107.45 66.82 105.24 C 62.55 104.04 61.79 98.88 61.34 95.11 C 60.61 78.69 58.96 62.33 56.95 46.01 C 56.03 35.09 54.11 24.17 54.25 13.22 Z" /><path d=" M 110.08 0.41 C 123.85 0.24 138.72 -1.49 151.25 5.55 C 151.22 19.92 151.32 34.29 151.22 48.66 C 136.74 51.27 122.24 53.82 107.86 56.92 C 106.91 38.05 108.08 19.18 110.08 0.41 Z" /><path d=" M 160.64 7.11 C 172.93 5.89 186.23 9.05 195.34 17.76 C 196.60 19.04 198.05 20.29 198.71 22.01 C 200.90 30.03 202.39 38.66 199.89 46.80 C 186.69 46.65 173.66 49.56 160.44 48.86 C 159.91 34.94 160.81 21.03 160.64 7.11 Z" /><path d=" M 8.36 31.33 C 18.72 22.95 31.76 16.35 45.43 17.56 C 48.06 46.31 51.36 75.01 53.37 103.82 C 43.55 109.87 31.29 110.83 20.38 107.44 C 15.10 87.56 7.63 68.37 0.91 48.96 C -1.38 42.13 3.29 35.47 8.36 31.33 Z" /><path d=" M 194.78 53.34 C 203.30 52.16 211.87 51.64 220.47 51.70 C 234.50 78.95 239.44 109.62 244.00 139.60 L 244.00 148.98 C 243.73 150.58 243.42 152.17 243.12 153.77 C 228.34 166.35 211.95 176.80 196.33 188.26 C 181.72 198.81 166.04 207.79 151.48 218.42 C 150.52 219.15 149.58 219.93 148.85 220.89 C 148.72 230.90 154.93 239.48 156.22 249.23 C 132.13 244.60 108.24 239.01 84.16 234.38 C 80.86 233.62 77.56 234.62 74.35 235.32 C 54.31 239.60 34.55 245.09 14.55 249.57 C 14.69 242.60 14.32 235.56 15.64 228.67 C 17.61 218.65 16.29 208.31 18.30 198.28 C 19.19 192.24 20.45 185.73 18.07 179.87 C 8.78 158.02 5.96 134.21 3.08 110.85 C 2.04 103.65 2.19 96.35 2.62 89.11 C 9.26 98.43 12.74 109.43 17.40 119.78 C 45.02 122.07 72.77 119.18 100.39 121.29 C 94.04 134.61 85.46 146.71 79.04 159.99 C 81.17 159.31 83.78 159.28 85.29 157.40 C 92.73 149.31 98.08 139.57 105.45 131.42 C 106.75 129.92 108.55 129.03 110.36 128.30 C 123.80 122.93 137.22 117.47 150.88 112.68 C 159.18 109.78 168.21 107.29 174.25 100.44 C 162.45 100.81 151.84 107.36 139.97 107.23 C 129.01 107.85 118.12 102.01 112.12 92.92 C 108.05 84.89 107.52 75.63 107.65 66.78 C 135.38 56.06 165.43 54.76 194.78 53.34 Z" /></svg>