<svg width="13.4vw" height="32.55vh" viewBox="0 0 184 250" version="1.1" xmlns="http://www.w3.org/2000/svg"><path d=" M 73.98 0.80 C 83.35 19.22 89.27 39.35 91.63 59.86 C 95.19 89.04 89.99 119.30 76.44 145.42 C 70.96 155.74 66.79 167.18 67.18 179.03 C 67.19 188.29 70.65 197.93 77.89 203.99 C 82.83 208.27 89.61 210.14 96.07 209.25 C 103.44 208.44 109.62 203.88 114.88 198.96 C 115.31 219.25 101.27 239.76 81.12 244.54 C 65.71 248.02 49.03 246.92 34.55 240.37 C 20.01 233.84 7.89 222.33 0.00 208.54 L 0.00 208.35 C 6.50 211.71 13.11 215.96 20.69 215.95 C 6.99 200.45 5.53 177.23 12.64 158.46 C 18.00 145.53 27.59 135.06 36.68 124.67 C 50.35 109.37 64.20 93.61 72.27 74.49 C 79.96 56.78 81.46 36.77 77.80 17.90 C 76.99 12.10 74.81 6.60 73.98 0.80 Z" /><path d=" M 117.07 60.01 C 121.85 43.96 129.23 28.75 138.08 14.57 C 128.35 40.50 125.80 70.06 135.67 96.35 C 139.95 108.42 147.67 118.76 154.31 129.58 C 161.66 141.42 169.13 153.21 175.32 165.71 C 180.31 176.04 184.55 187.29 183.74 198.97 C 182.71 211.63 176.92 223.87 167.79 232.72 C 157.32 243.01 143.00 248.74 128.49 250.00 L 119.53 250.00 C 114.62 249.41 109.69 248.73 104.95 247.23 C 119.27 241.92 131.92 231.19 137.83 216.90 C 143.97 202.41 142.94 185.97 138.92 171.06 C 133.73 151.14 121.75 133.83 116.23 114.02 C 110.95 96.46 111.76 77.46 117.07 60.01 Z" /></svg>