<svg width="18.3vw" height="31.38vh" viewBox="0 0 250 241" version="1.1" xmlns="http://www.w3.org/2000/svg"><path d=" M 0.34 0.79 C 11.31 1.31 22.51 -0.49 33.31 1.73 C 39.08 6.49 43.67 12.52 49.22 17.54 C 116.15 17.64 183.08 17.17 250.00 17.76 L 250.00 140.32 C 195.96 140.33 141.92 140.31 87.88 140.33 C 87.88 151.43 87.88 162.53 87.91 173.63 C 141.94 173.66 195.97 173.63 250.00 173.64 L 250.00 196.13 C 177.84 196.15 105.68 196.16 33.52 196.13 C 33.48 188.63 33.44 181.14 33.45 173.65 C 44.25 173.64 55.05 173.65 65.86 173.64 C 65.88 162.54 65.87 151.43 65.86 140.33 C 55.07 140.32 44.28 140.33 33.49 140.32 C 33.27 105.53 33.74 70.74 33.21 35.96 C 33.30 34.78 32.99 33.73 32.27 32.81 C 24.75 22.31 13.77 13.41 0.54 11.96 C 0.38 8.24 0.33 4.52 0.34 0.79 M 55.17 40.14 C 55.23 66.06 54.99 91.98 55.39 117.90 C 113.24 117.68 171.06 118.60 228.90 117.44 C 228.39 91.69 228.73 65.93 228.62 40.17 C 170.81 40.13 112.99 40.13 55.17 40.14 Z" /><path d=" M 56.42 207.54 C 68.70 203.43 81.15 218.47 75.98 229.95 C 73.51 237.18 65.44 241.46 58.03 240.32 C 48.88 239.40 42.38 229.23 44.65 220.48 C 45.75 214.41 50.35 209.03 56.42 207.54 Z" /><path d=" M 220.18 207.15 C 230.38 204.90 241.00 214.75 239.78 225.09 C 239.17 230.17 236.74 235.50 232.09 238.07 C 224.94 242.44 214.35 240.80 209.85 233.41 C 203.41 224.09 208.86 209.37 220.18 207.15 Z" /></svg>