<svg width="16.32vw" height="32.5vh" viewBox="0 0 223 250" version="1.1" xmlns="http://www.w3.org/2000/svg"><path d=" M 111.22 0.00 L 111.52 0.00 C 127.66 16.02 143.61 32.24 159.65 48.35 C 143.67 64.63 127.44 80.67 111.43 96.92 C 95.49 81.06 79.62 65.12 63.70 49.24 C 62.48 48.39 64.26 47.40 64.69 46.69 C 80.07 31.00 95.60 15.45 111.22 0.00 Z" /><path d=" M 0.00 111.53 C 16.21 95.58 32.18 79.39 48.22 63.27 C 64.29 79.51 80.57 95.54 96.52 111.91 C 80.41 128.04 64.50 144.40 48.14 160.27 C 32.12 144.07 15.79 128.17 0.00 111.74 L 0.00 111.53 Z" /><path d=" M 126.32 112.00 C 142.27 95.59 158.57 79.53 174.69 63.29 C 190.57 79.63 207.15 95.29 222.64 112.00 L 223.00 111.17 L 223.00 112.21 C 207.28 127.39 192.08 143.11 176.58 158.51 C 175.83 159.14 174.63 160.82 173.71 159.37 C 157.90 143.60 142.09 127.82 126.32 112.00 Z" /><path d=" M 57.73 182.76 C 75.61 164.34 93.95 146.34 112.05 128.13 C 129.53 145.99 147.11 163.75 164.40 181.79 C 166.09 204.42 164.47 227.09 164.88 249.74 C 147.21 231.82 129.85 213.57 111.97 195.87 C 94.01 213.93 76.04 231.98 57.99 249.95 C 57.74 227.55 58.02 205.15 57.73 182.76 Z" /></svg>