<svg width="16.47vw" height="32.5vh" viewBox="0 0 225 250" version="1.1" xmlns="http://www.w3.org/2000/svg"><path d=" M 110.56 0.00 L 114.56 0.00 C 124.53 0.76 133.70 7.69 136.88 17.19 C 138.89 22.56 138.39 28.45 137.01 33.90 C 151.25 41.96 165.39 50.21 179.61 58.31 C 186.04 51.22 196.34 47.86 205.64 50.46 C 216.15 52.89 224.02 62.61 225.00 73.24 L 225.00 77.08 C 224.17 88.44 215.31 98.26 204.20 100.53 C 204.21 116.85 204.19 133.17 204.22 149.49 C 215.43 151.52 224.13 161.55 225.00 172.84 L 225.00 176.09 C 224.30 185.92 217.78 195.16 208.44 198.53 C 198.57 202.61 186.64 199.48 179.64 191.54 C 165.43 199.75 151.15 207.81 136.95 216.03 C 138.59 221.74 138.83 228.00 136.54 233.57 C 133.08 242.76 123.98 249.18 114.27 250.00 L 110.82 250.00 C 99.35 249.28 89.03 240.37 86.99 229.01 C 86.19 224.70 86.78 220.29 87.87 216.09 C 73.76 207.78 59.47 199.78 45.31 191.57 C 38.88 198.52 28.76 202.14 19.48 199.50 C 9.04 197.05 0.90 187.57 0.00 176.88 L 0.00 172.68 C 0.65 161.35 9.69 151.55 20.74 149.43 C 20.76 133.12 20.75 116.82 20.75 100.52 C 9.69 98.31 0.73 88.58 0.00 77.23 L 0.00 73.24 C 0.79 61.94 9.84 51.86 21.06 50.08 C 29.93 48.24 39.20 51.75 45.31 58.28 C 59.53 50.18 73.69 41.97 87.88 33.82 C 86.14 27.65 86.00 20.75 88.96 14.92 C 92.73 6.47 101.37 0.64 110.56 0.00 M 50.35 66.99 C 51.87 72.42 52.02 78.14 50.40 83.56 C 69.40 94.44 88.39 105.31 107.37 116.23 C 107.39 94.46 107.41 72.68 107.39 50.91 C 101.88 49.59 96.90 46.60 93.00 42.52 C 78.82 50.74 64.56 58.83 50.35 66.99 M 117.57 50.87 C 117.47 72.66 117.43 94.45 117.51 116.24 C 136.53 105.32 155.57 94.45 174.55 83.47 C 172.81 78.12 172.96 72.39 174.62 67.05 C 160.39 58.86 146.13 50.72 131.91 42.50 C 128.06 46.62 123.06 49.57 117.57 50.87 M 45.32 92.24 C 41.47 96.42 36.32 99.10 30.85 100.48 C 30.82 116.79 30.84 133.10 30.83 149.42 C 36.33 150.74 41.41 153.48 45.32 157.59 C 64.34 146.75 83.28 135.76 102.34 124.98 C 83.37 114.00 64.29 103.22 45.32 92.24 M 122.56 124.97 C 141.61 135.76 160.55 146.74 179.54 157.63 C 183.46 153.45 188.61 150.78 194.14 149.41 C 194.14 133.14 194.10 116.88 194.16 100.61 C 188.73 98.99 183.37 96.56 179.62 92.17 C 160.61 103.14 141.56 114.01 122.56 124.97 M 50.42 166.35 C 52.02 171.76 51.86 177.45 50.36 182.86 C 64.58 190.99 78.75 199.23 93.01 207.27 C 96.92 203.27 101.82 200.34 107.29 199.06 C 107.41 177.26 107.41 155.46 107.37 133.67 C 88.34 144.48 69.39 155.44 50.42 166.35 M 117.50 133.66 C 117.45 155.46 117.45 177.26 117.58 199.06 C 123.05 200.32 127.96 203.23 131.85 207.25 C 146.15 199.24 160.33 191.00 174.55 182.85 C 173.00 177.47 172.83 171.76 174.52 166.39 C 155.52 155.48 136.58 144.45 117.50 133.66 Z" /></svg>