<svg width="256px" height="256px" viewBox="0 0 256 256" version="1.1" xmlns="http://www.w3.org/2000/svg"><path d=" M 114.57 16.78 C 139.12 13.81 164.63 19.14 185.77 32.01 C 208.29 45.50 225.77 67.16 234.13 92.04 C 242.98 118.13 241.83 147.51 230.72 172.74 C 219.74 198.17 198.91 219.16 173.58 230.35 C 150.99 240.51 124.98 242.69 100.97 236.73 C 77.15 230.91 55.48 216.89 40.27 197.68 C 23.74 177.05 15.01 150.39 16.06 123.98 C 16.91 96.21 28.67 68.96 48.30 49.30 C 65.86 31.36 89.64 19.68 114.57 16.78 M 73.52 49.44 C 53.19 63.47 38.62 85.63 34.09 109.94 C 30.02 131.03 33.27 153.45 43.31 172.45 C 70.40 125.68 97.79 79.08 124.94 32.34 C 106.64 33.08 88.52 38.87 73.52 49.44 M 131.01 32.37 C 158.46 78.67 185.88 125.00 213.29 171.33 C 222.38 153.46 225.60 132.71 222.43 112.92 C 219.27 92.44 209.06 73.18 194.06 58.91 C 177.26 42.67 154.35 33.11 131.01 32.37 M 120.14 87.19 C 104.52 90.06 91.28 102.63 87.64 118.10 C 84.48 130.54 87.63 144.31 95.77 154.21 C 103.49 163.79 115.65 169.63 127.97 169.55 C 138.86 169.63 149.67 165.10 157.35 157.39 C 165.33 149.48 169.89 138.21 169.54 126.96 C 169.32 114.99 163.53 103.29 154.21 95.78 C 144.85 88.08 132.04 84.83 120.14 87.19 M 46.35 177.79 C 57.57 196.11 75.04 210.56 95.27 217.86 C 115.92 225.43 139.21 225.53 159.92 218.15 C 180.49 210.95 198.28 196.35 209.65 177.79 C 155.22 177.80 100.78 177.80 46.35 177.79 Z" /></svg>
