<svg width="256px" height="256px" viewBox="0 0 64 64" version="1.1" xmlns="http://www.w3.org/2000/svg"><path d=" M 28.88 3.14 C 29.12 0.05 34.85 0.04 35.12 3.12 C 35.44 6.79 35.18 10.49 35.25 14.18 C 43.81 15.68 51.45 22.37 53.14 31.04 C 54.51 36.02 53.51 41.47 51.09 45.98 C 50.66 47.16 48.79 48.37 50.18 49.58 C 52.95 52.62 56.07 55.32 58.88 58.32 C 60.77 60.96 57.85 64.31 54.95 62.96 C 51.45 59.90 48.36 56.39 45.00 53.18 C 37.54 58.81 26.46 58.80 19.00 53.18 C 16.02 56.13 13.08 59.13 10.11 62.08 C 8.91 63.59 5.88 63.66 5.00 61.78 C 4.09 60.56 4.66 58.68 5.67 57.72 C 8.57 54.68 11.87 52.01 14.46 48.69 C 11.09 43.58 9.17 37.13 10.86 31.08 C 12.53 22.39 20.17 15.68 28.75 14.18 C 28.82 10.50 28.57 6.81 28.88 3.14 M 27.68 17.71 C 20.07 19.38 14.05 26.33 13.49 34.11 C 17.55 34.07 21.61 34.08 25.66 34.08 C 27.05 31.82 29.03 29.34 32.02 29.71 C 35.00 29.35 36.95 31.83 38.34 34.08 C 42.39 34.08 46.45 34.07 50.51 34.11 C 49.92 23.25 38.16 14.65 27.68 17.71 M 13.52 37.19 C 13.79 39.87 14.38 42.53 15.76 44.87 C 16.38 45.85 17.09 47.61 18.56 46.96 C 21.19 44.15 24.34 41.73 26.51 38.54 C 26.33 38.21 25.96 37.56 25.77 37.23 C 21.69 37.11 17.60 37.26 13.52 37.19 M 38.09 37.14 C 38.00 37.59 37.83 38.50 37.75 38.95 C 39.96 41.91 42.90 44.28 45.44 46.96 C 45.75 46.98 46.36 47.00 46.67 47.01 C 49.15 44.37 50.14 40.71 50.48 37.19 C 46.35 37.19 42.22 37.25 38.09 37.14 M 20.14 49.93 C 26.54 55.79 37.45 55.76 43.86 49.95 C 41.14 46.85 38.13 44.02 35.16 41.16 C 33.19 42.26 30.82 42.27 28.85 41.16 C 25.87 44.01 22.88 46.85 20.14 49.93 Z" /></svg>
