<svg width="256px" height="256px" viewBox="0 0 128 128" version="1.1" xmlns="http://www.w3.org/2000/svg"><path d=" M 56.83 28.27 C 59.38 23.74 65.73 24.41 69.83 26.14 C 72.89 30.26 68.73 34.61 67.49 38.59 C 66.36 40.34 66.19 44.00 63.57 43.94 C 61.00 41.43 60.42 37.52 58.77 34.39 C 57.72 32.50 56.92 30.46 56.83 28.27 Z" /><path d=" M 47.79 32.77 C 48.87 31.74 50.55 32.12 51.90 31.84 C 53.82 34.75 55.53 38.31 54.86 41.88 C 53.71 45.75 49.57 47.31 47.39 50.47 C 42.88 55.60 39.24 62.87 42.16 69.66 C 44.64 74.85 48.31 79.53 53.06 82.83 C 55.51 84.45 57.08 87.12 57.87 89.90 C 57.97 93.60 58.54 97.26 58.94 100.93 C 59.36 102.25 57.62 103.96 56.63 102.44 C 50.14 96.27 42.24 91.59 36.75 84.39 C 35.86 83.61 35.30 82.06 34.01 81.94 C 31.79 83.12 29.71 84.57 27.50 85.78 C 26.24 86.14 24.99 86.53 23.74 86.92 C 22.09 86.10 20.43 85.33 18.74 84.62 C 21.54 80.69 27.01 79.92 30.97 77.42 C 30.63 74.43 28.56 71.85 27.79 68.92 C 22.22 69.83 16.59 69.99 10.96 70.23 C 7.82 70.27 3.92 72.24 1.34 69.63 C 3.32 66.26 5.14 62.06 9.48 61.34 C 15.53 60.53 21.70 61.53 27.80 61.43 C 27.94 58.84 28.83 56.40 29.99 54.11 C 25.70 53.20 20.74 52.90 17.50 49.58 C 16.29 47.54 15.81 45.18 15.01 42.97 C 21.49 42.92 27.27 46.59 33.45 48.16 C 37.24 42.22 42.53 37.40 47.79 32.77 Z" /><path d=" M 76.10 31.84 C 77.44 32.11 79.09 31.71 80.16 32.76 C 85.47 37.35 90.74 42.22 94.55 48.16 C 100.73 46.59 106.50 42.93 112.98 42.97 C 112.17 45.19 111.71 47.59 110.46 49.62 C 107.23 52.91 102.28 53.20 98.01 54.11 C 99.16 56.40 100.07 58.84 100.19 61.43 C 106.27 61.52 112.42 60.55 118.45 61.32 C 122.81 62.03 124.66 66.22 126.66 69.60 C 124.12 72.27 120.18 70.26 117.04 70.23 C 111.41 69.99 105.78 69.83 100.21 68.92 C 99.47 71.86 97.30 74.44 97.07 77.45 C 101.02 79.92 106.46 80.70 109.26 84.62 C 107.56 85.33 105.89 86.10 104.25 86.94 C 100.65 86.14 97.56 84.16 94.52 82.18 C 93.28 81.29 92.54 83.11 91.77 83.77 C 86.00 91.43 77.69 96.45 70.77 102.92 L 70.02 103.05 C 67.80 100.63 70.14 96.97 69.88 94.05 C 69.57 89.76 71.29 85.26 74.95 82.82 C 79.69 79.52 83.36 74.85 85.84 69.66 C 88.76 62.88 85.13 55.61 80.63 50.49 C 78.44 47.31 74.28 45.76 73.13 41.86 C 72.48 38.30 74.17 34.74 76.10 31.84 Z" /><path d=" M 54.03 64.46 C 57.21 62.63 60.40 60.47 64.02 59.71 C 67.72 60.41 70.76 62.93 74.22 64.33 C 74.06 65.43 73.48 66.23 72.49 66.72 C 69.70 68.15 66.92 69.63 64.02 70.83 C 60.63 69.24 57.03 67.86 54.01 65.64 C 54.02 65.34 54.03 64.75 54.03 64.46 Z" /></svg>
