<?xml version="1.0" encoding="utf-8"?>
<!-- Generator: Adobe Illustrator 23.1.1, SVG Export Plug-In . SVG Version: 6.00 Build 0)  -->
<svg version="1.1" id="Layer_1" xmlns="http://www.w3.org/2000/svg" xmlns:xlink="http://www.w3.org/1999/xlink" x="0px" y="0px"
	 viewBox="0 0 348 320.8" style="enable-background:new 0 0 348 320.8;" xml:space="preserve">
<title>kuvaflood</title>
<g id="vo5Dlr.tif">
	<path d="M181.4,189c4.9-11.8,11.2-23.2,14.3-35.4c6-23.7,1.1-34.9-19.4-47.9c-8.4-5.3-17.7-9.4-26.9-13.5
		C129,83,116.4,67.7,111.2,46c-0.4-1.8-0.8-3.6-1.4-5.3c-6.2-19.9,12-40.1,32.5-34.4c34.4,9.5,58.8,32,71.7,65.2
		c10.9,28.1,11.2,57.3,2.2,86.2c-5.3,17.2-17.3,27.5-35,31.1L181.4,189z"/>
	<path d="M186.4,191.5c0.9,4.8,1.4,9.3,2.5,13.6c1.7,6.8,3.2,13.7,5.8,20.2c9.4,22.5,22,29.6,46.2,26.2c9.6-1.3,19.2-3.1,28.7-5.4
		c21.2-5.2,39.8-0.1,56.5,13.2c1.1,1,2.3,2,3.6,2.8c9.2,5.6,15.3,12.6,12.9,24.6c-2.5,12.4-8.8,21.2-20.7,25.8
		c-15.8,6.1-32.3,6.5-48.7,4.4c-50.1-6.6-79.2-38.5-96.9-83C170.3,218.7,175.4,199.6,186.4,191.5z"/>
	<path d="M181.3,188.8c-1.4,7-5.4,2.3-8.3,1.7c-12.7-2.8-25.2-6.7-38-8.3c-12.1-1.4-22.3,4.1-28.1,15.1s-11.6,22.2-15.1,34.1
		c-8.8,30.1-31.2,43.7-59.2,50.9c-2.9,0.8-6.9-1.4-10-3c-13.5-7-20.2-20.6-16.1-35.2c12.5-44,44.5-76.2,93-83.1
		c9.7-1.3,19.4-1.8,29.1-1.7c23,0,41.4,8.7,52.8,29.7L181.3,188.8z"/>
</g>
</svg>
