<?xml version="1.0" encoding="utf-8"?>
<!-- Generator: Adobe Illustrator 23.1.1, SVG Export Plug-In . SVG Version: 6.00 Build 0)  -->
<svg version="1.1" id="Layer_1" xmlns="http://www.w3.org/2000/svg" xmlns:xlink="http://www.w3.org/1999/xlink" x="0px" y="0px"
	 viewBox="0 0 348 328" style="enable-background:new 0 0 348 328;" xml:space="preserve">
<title>kuva</title>
<g id="lTKw0z.tif">
	<path d="M348,260c-2.1,6.3-4,12.7-6.3,18.9c-11.7,30.6-35.1,45.5-66.7,47c-49.2,2.5-95.8-8.7-139.5-31.1
		c-29.7-15.2-53.2-37.9-73.1-64.5C36.7,196,17.3,158.5,7.2,116.6c-3.1-12.1-5.1-24.5-5.9-36.9c-0.4-9.5,0.9-19,3.7-28
		c5.2-16.8,13.8-32.1,26.4-44.7c2.3-2.3,5.8-3.2,8.8-4.8c0.5,3.1,1.7,6.2,1.6,9.3c-0.4,11-1.8,21.9-1.7,32.9
		c0.3,27.8,6.5,54.2,20.3,78.5c8.3,14.5,20.9,24,36.8,28.8c18,5.5,36.5,9.1,55.4,9.1c17.6,0,35.1-1.1,52.6-1.9
		c26.7-1.2,51.2,6.2,74.2,19.4c18.6,10.8,35.9,23.6,51.6,38.3c7.1,6.4,12.2,14.7,14.8,23.9c0.6,1.9,1.4,3.7,2.3,5.5V260z"/>
</g>
</svg>
