<svg width="18.3vw" height="32.5vh" viewBox="0 0 250 250" version="1.1" xmlns="http://www.w3.org/2000/svg"><path d=" M 121.79 0.00 L 128.01 0.00 C 141.69 0.62 155.36 2.97 168.21 7.79 C 205.66 21.39 235.64 53.98 245.62 92.61 C 248.28 102.13 249.46 111.97 250.00 121.82 L 250.00 128.05 C 249.20 148.76 243.75 169.40 233.29 187.36 C 218.50 212.83 194.61 233.09 166.71 242.76 C 154.36 247.20 141.28 249.38 128.19 250.00 L 121.94 250.00 C 88.33 249.05 55.28 234.29 32.79 209.19 C 12.49 187.32 0.93 157.94 0.00 128.17 L 0.00 121.97 C 0.76 104.02 4.76 86.07 12.89 69.98 C 26.75 41.43 52.00 18.69 81.81 7.80 C 94.58 2.96 108.18 0.67 121.79 0.00 M 63.19 40.28 C 43.56 54.49 29.12 75.75 23.30 99.28 C 17.22 122.98 19.86 148.79 30.56 170.79 C 59.96 120.58 89.51 70.46 118.93 20.26 C 98.94 21.39 79.29 28.37 63.19 40.28 M 131.07 20.26 C 160.50 70.45 190.00 120.59 219.46 170.76 C 228.80 151.47 232.04 129.29 228.53 108.14 C 224.83 84.44 212.47 62.30 194.52 46.44 C 177.11 30.91 154.37 21.51 131.07 20.26 M 116.65 78.92 C 98.60 81.84 83.21 96.43 79.22 114.25 C 75.58 129.27 80.12 145.98 90.96 157.02 C 99.67 166.25 112.33 171.41 124.98 171.38 C 137.29 171.17 149.51 166.02 158.01 157.06 C 168.01 146.91 172.70 131.94 170.49 117.88 C 168.51 103.74 159.39 90.97 146.95 84.08 C 137.84 78.93 126.95 77.21 116.65 78.92 M 35.72 180.02 C 51.28 205.68 78.50 223.92 108.15 228.54 C 126.45 231.54 145.56 229.59 162.85 222.87 C 184.05 214.70 202.47 199.42 214.31 180.02 C 154.78 179.99 95.25 179.98 35.72 180.02 Z" /></svg>