<svg width="16.1vw" height="32.55vh" viewBox="0 0 220 250" version="1.1" xmlns="http://www.w3.org/2000/svg"><path d=" M 97.70 8.48 C 100.22 -2.56 119.70 -2.57 122.29 8.43 C 123.91 23.47 122.64 38.63 123.02 53.72 C 156.72 59.55 187.00 85.86 194.27 119.76 C 200.78 143.10 195.22 168.89 181.55 188.60 C 180.29 190.52 180.43 193.19 182.20 194.75 C 193.19 206.80 205.49 217.57 216.70 229.41 C 218.62 231.31 219.50 233.94 220.00 236.54 L 220.00 238.28 C 219.36 243.97 214.95 248.77 209.38 250.00 L 205.41 250.00 C 203.81 249.61 202.12 249.21 200.90 248.04 C 187.26 235.98 175.19 222.29 162.01 209.75 C 132.18 232.16 87.82 232.14 57.99 209.75 C 45.75 221.91 33.59 234.16 21.39 246.37 C 16.02 251.47 5.48 251.08 1.89 244.06 C -1.36 239.10 0.39 232.34 4.30 228.29 C 16.01 215.98 29.28 205.15 39.84 191.76 C 26.30 171.28 18.74 145.33 25.45 121.08 C 32.24 86.59 62.82 59.59 96.98 53.72 C 97.35 38.65 96.13 23.51 97.70 8.48 M 61.08 84.10 C 46.86 96.55 37.33 114.49 35.95 133.42 C 52.19 133.37 68.42 133.28 84.66 133.27 C 88.52 127.18 92.93 120.92 99.58 117.64 C 104.32 115.12 109.87 115.66 115.03 115.92 C 124.48 117.40 130.58 125.72 135.34 133.27 C 151.57 133.28 167.81 133.37 184.04 133.42 C 181.87 94.77 144.27 62.88 105.95 65.50 C 89.59 66.97 73.37 73.01 61.08 84.10 M 36.08 145.77 C 37.34 159.15 41.15 172.73 49.63 183.38 C 51.37 185.53 55.18 186.31 57.08 183.98 C 67.40 173.04 79.49 163.65 88.04 151.14 C 87.06 149.39 86.07 147.65 85.07 145.92 C 68.75 145.50 52.41 145.93 36.08 145.77 M 134.29 145.64 C 133.88 148.04 133.46 150.44 133.01 152.83 C 142.01 164.68 153.57 174.18 163.82 184.89 C 165.46 184.91 167.10 184.96 168.74 185.02 C 178.51 174.38 182.59 159.87 183.91 145.77 C 167.37 145.79 150.83 145.86 134.29 145.64 M 97.33 161.70 C 85.45 173.07 73.53 184.43 62.56 196.70 C 88.29 220.15 131.59 220.00 157.43 196.81 C 146.59 184.41 134.55 173.14 122.72 161.70 C 114.90 165.96 105.14 165.98 97.33 161.70 Z" /></svg>