<svg width="11.3vw" height="32.5vh" viewBox="0 0 155 250" version="1.1" xmlns="http://www.w3.org/2000/svg"><path d=" M 8.96 0.00 L 155.00 0.00 L 155.00 250.00 L 8.96 250.00 C 41.58 208.38 74.13 166.71 106.64 125.00 C 74.14 83.29 41.58 41.62 8.96 0.00 Z" /><path d=" M 0.00 83.00 C 21.66 83.00 43.33 82.99 64.99 83.01 C 65.00 92.00 65.00 101.00 64.99 109.99 C 56.66 110.02 48.34 109.98 40.01 110.01 C 39.99 120.00 40.00 130.00 40.01 139.99 C 48.33 140.02 56.66 139.98 64.99 140.01 C 65.01 149.00 65.00 158.00 64.99 166.99 C 43.33 167.01 21.66 167.00 0.00 167.00 L 0.00 83.00 Z" /></svg>