<svg width="18.3vw" height="28.51vh" viewBox="0 0 250 219" version="1.1" xmlns="http://www.w3.org/2000/svg"><path d=" M 126.28 0.24 C 143.30 32.95 167.55 60.99 189.77 90.17 C 180.88 96.00 171.92 101.74 162.91 107.38 C 165.68 103.39 168.47 99.42 171.25 95.44 C 157.58 81.70 143.86 67.96 129.13 55.34 C 129.30 78.78 135.51 102.29 147.64 122.41 C 132.62 119.31 117.03 119.11 101.94 121.91 C 110.67 106.42 118.76 90.00 120.74 72.10 C 121.37 66.76 121.18 61.39 121.04 56.03 C 105.28 68.40 90.61 82.09 76.15 95.93 C 80.22 100.77 84.62 105.32 88.50 110.31 C 78.18 103.60 67.86 96.82 58.23 89.13 C 83.31 61.48 108.31 33.18 126.28 0.24 Z" /><path d=" M 171.46 126.26 C 181.08 121.70 191.09 118.08 200.92 114.03 C 215.10 148.28 229.18 182.94 249.99 213.82 C 212.53 210.52 174.99 214.75 137.74 218.59 C 138.21 208.71 136.88 198.67 138.72 188.92 C 139.01 192.96 140.29 196.81 141.28 200.71 C 160.17 196.62 179.07 192.56 197.80 187.76 C 177.41 175.29 153.40 170.05 129.72 169.16 C 138.99 157.87 148.79 146.21 152.56 131.78 C 164.96 151.54 180.05 171.22 201.77 181.24 C 197.37 162.49 191.87 144.02 186.59 125.51 C 181.55 125.78 176.51 126.13 171.46 126.26 Z" /><path d=" M 47.24 115.94 C 57.69 119.52 67.94 123.65 78.11 127.97 C 72.67 127.92 67.24 127.59 61.81 127.32 C 57.23 145.73 52.07 164.01 48.08 182.58 C 68.77 171.08 84.67 152.46 95.92 131.88 C 99.36 146.62 108.76 159.19 120.10 168.90 C 96.25 169.60 72.87 176.63 51.81 187.69 C 70.31 193.28 89.30 196.87 108.11 201.21 C 109.33 196.88 110.48 192.52 111.62 188.16 C 111.89 198.44 112.01 208.72 112.16 219.00 L 111.24 219.00 C 94.46 217.31 77.62 216.34 60.79 215.18 C 40.55 214.11 20.20 213.69 0.01 215.74 C 3.51 209.69 7.48 203.91 10.80 197.74 C 25.51 171.69 36.19 143.67 47.24 115.94 Z" /><path d=" M 103.95 128.90 C 117.21 128.32 130.50 127.78 143.76 128.77 C 142.90 141.55 136.08 153.30 126.61 161.68 C 125.87 162.26 124.72 163.72 123.89 162.34 C 114.66 153.13 106.35 141.99 103.95 128.90 Z" /></svg>