<svg width="18.3vw" height="20.3vh" viewBox="0 0 250 156" version="1.1" xmlns="http://www.w3.org/2000/svg"><path d=" M 110.56 6.87 C 116.08 -1.67 128.10 -0.91 136.35 2.70 C 140.04 6.51 138.88 12.52 136.76 16.84 C 133.93 22.45 131.46 28.22 129.12 34.04 C 128.47 36.16 126.64 37.41 124.85 38.50 C 119.17 33.89 118.18 26.16 114.97 19.98 C 112.77 15.89 110.96 11.55 110.56 6.87 Z" /><path d=" M 94.04 15.06 C 96.22 14.17 98.63 14.32 100.93 14.07 C 104.73 20.12 108.40 27.32 106.52 34.66 C 104.37 40.67 98.40 43.85 94.24 48.29 C 87.33 55.85 81.07 64.77 79.64 75.15 C 78.71 81.23 80.10 87.51 83.27 92.76 C 88.09 101.57 94.76 109.41 102.99 115.22 C 107.69 118.50 111.25 123.50 112.56 129.10 C 113.21 134.57 113.40 140.10 114.23 145.55 C 114.54 149.14 116.13 153.34 112.74 156.00 L 111.44 156.00 C 110.64 154.99 109.82 154.01 108.92 153.10 C 97.14 142.19 83.26 133.53 72.86 121.15 C 70.63 118.61 68.76 115.69 66.03 113.64 C 62.07 114.71 58.90 117.50 55.36 119.43 C 52.15 121.46 48.43 122.39 44.84 123.46 C 41.48 121.89 38.11 120.38 34.73 118.85 C 40.85 111.19 50.96 109.33 59.16 104.78 C 58.21 98.76 54.78 93.59 52.73 87.94 C 42.21 89.20 31.64 90.00 21.05 90.27 C 14.02 90.37 6.61 93.70 0.00 89.81 L 0.00 88.37 C 4.54 82.94 7.28 74.79 14.99 73.04 C 27.44 70.77 40.12 73.15 52.67 72.88 C 53.26 67.77 54.91 62.88 57.10 58.24 C 48.83 56.60 39.55 55.90 33.01 49.95 C 29.86 45.94 29.05 40.68 27.39 35.97 C 40.35 36.38 51.76 43.12 64.01 46.46 C 70.32 36.85 78.43 28.60 86.95 20.94 C 89.27 18.93 91.37 16.61 94.04 15.06 Z" /><path d=" M 149.02 14.06 C 151.97 14.34 155.35 14.05 157.65 16.30 C 168.12 25.26 178.20 34.92 185.87 46.46 C 198.16 42.96 209.68 36.61 222.64 35.71 C 220.49 41.42 219.89 48.85 214.05 52.15 C 207.64 56.12 199.95 56.82 192.72 58.26 C 194.97 62.85 196.61 67.74 197.15 72.84 C 209.50 73.13 221.91 70.94 234.20 72.84 C 242.34 74.53 245.97 82.81 250.00 89.14 L 250.00 89.17 C 244.62 93.95 237.38 90.76 231.12 90.40 C 219.76 90.01 208.41 89.34 197.13 87.94 C 195.04 93.46 192.08 98.63 190.49 104.35 C 198.47 109.58 209.01 110.93 215.14 118.84 C 211.74 120.35 208.35 121.88 205.04 123.57 C 199.99 122.21 195.19 120.03 190.78 117.22 C 188.56 115.90 186.48 114.23 183.95 113.52 C 181.02 115.74 179.08 118.92 176.64 121.62 C 165.25 134.74 150.28 143.98 137.85 156.00 L 137.66 156.00 C 132.29 151.28 137.10 143.89 136.64 137.97 C 136.19 129.73 139.07 120.87 146.00 115.93 C 155.43 109.39 163.00 100.31 168.03 90.02 C 170.87 84.27 171.11 77.50 169.51 71.36 C 167.20 62.54 161.75 54.95 155.69 48.31 C 151.53 43.87 145.60 40.70 143.43 34.71 C 141.54 27.37 145.15 20.09 149.02 14.06 Z" /><path d=" M 104.88 79.01 C 111.36 75.41 117.62 70.88 125.06 69.54 C 132.57 70.92 138.71 75.87 145.59 78.86 C 144.73 80.45 144.02 82.34 142.24 83.15 C 136.63 86.18 130.90 88.99 125.03 91.51 C 118.34 88.28 111.04 85.85 105.22 81.14 C 105.13 80.61 104.96 79.54 104.88 79.01 Z" /></svg>