<svg width="256px" height="256px" viewBox="0 0 849 849" version="1.1" xmlns="http://www.w3.org/2000/svg"><path d=" M 424.25 371.97 C 441.69 389.40 459.10 406.85 476.57 424.26 C 459.10 441.66 441.65 459.08 424.27 476.57 C 406.87 459.08 389.35 441.73 371.99 424.21 C 389.43 406.81 406.83 389.38 424.25 371.97 Z" /><path class="loader-left" d=" M 79.97 424.24 C 117.91 386.34 155.79 348.38 193.76 310.49 C 219.27 310.51 244.79 310.48 270.31 310.51 C 232.44 348.45 194.50 386.32 156.60 424.25 C 194.33 462.01 232.10 499.73 269.83 537.50 C 244.28 537.49 218.74 537.52 193.20 537.49 C 155.46 499.73 117.70 462.00 79.97 424.24 Z" /><path class="loader-center" d=" M 424.19 223.99 C 491.06 290.67 557.75 357.54 624.57 424.27 C 557.75 490.99 490.99 557.75 424.28 624.57 C 357.53 557.76 290.68 491.05 223.98 424.20 C 290.74 357.49 357.49 290.76 424.19 223.99 M 300.61 424.22 C 341.79 465.50 383.06 506.69 424.28 547.93 C 465.43 506.65 506.70 465.49 547.90 424.25 C 506.74 383.00 465.41 341.90 424.32 300.56 C 383.04 341.74 341.87 383.02 300.61 424.22 Z" /><path class="loader-right" d=" M 578.17 310.50 C 603.71 310.50 629.25 310.49 654.79 310.51 C 692.72 348.43 730.63 386.36 768.57 424.27 C 730.73 461.96 693.05 499.81 655.24 537.51 C 629.72 537.48 604.20 537.52 578.69 537.49 C 616.40 499.72 654.17 462.00 691.90 424.25 C 654.00 386.33 616.07 348.43 578.17 310.50 Z" /></svg>