<svg width="18.3vw" height="32.55vh" viewBox="0 0 250 250" version="1.1" xmlns="http://www.w3.org/2000/svg"><path d=" M 121.49 0.00 L 130.86 0.00 C 151.58 1.28 172.11 7.21 189.84 18.14 C 216.09 34.03 236.18 59.87 244.81 89.35 C 247.98 99.77 249.53 110.63 250.00 121.50 L 250.00 130.90 C 248.71 151.60 242.78 172.10 231.88 189.81 C 215.62 216.68 188.94 237.08 158.62 245.39 C 149.67 248.02 140.39 249.15 131.13 250.00 L 118.63 250.00 C 100.31 248.69 82.12 243.99 65.94 235.17 C 37.15 219.79 14.81 192.74 5.43 161.44 C 2.30 151.60 0.89 141.35 0.00 131.09 L 0.00 121.50 C 0.88 89.91 14.14 58.86 36.64 36.64 C 58.86 14.14 89.91 0.88 121.49 0.00 M 45.81 45.84 C 27.12 64.41 15.32 89.79 13.39 116.08 C 18.87 119.08 24.37 122.03 29.86 125.00 C 24.37 127.97 18.87 130.92 13.39 133.92 C 15.33 160.23 27.14 185.63 45.86 204.20 C 64.43 222.89 89.80 234.67 116.08 236.61 C 119.08 231.15 121.98 225.65 125.00 220.20 C 128.02 225.64 130.91 231.16 133.92 236.61 C 160.24 234.67 185.65 222.85 204.22 204.12 C 222.89 185.56 234.67 160.20 236.61 133.92 C 231.14 130.92 225.63 127.97 220.15 125.00 C 225.63 122.03 231.13 119.08 236.61 116.08 C 234.67 89.79 222.88 64.42 204.19 45.85 C 185.62 27.14 160.23 15.32 133.91 13.39 C 130.92 18.87 127.98 24.37 125.00 29.85 C 122.02 24.37 119.08 18.86 116.08 13.39 C 89.77 15.33 64.39 27.13 45.81 45.84 Z" /><path d=" M 80.89 89.83 C 88.91 84.32 98.21 80.47 107.93 79.45 C 108.28 80.14 108.98 81.52 109.34 82.21 C 99.37 84.41 90.08 89.30 82.67 96.31 C 90.91 92.21 99.38 88.29 108.51 86.65 C 120.96 84.41 133.95 84.60 146.23 87.73 C 153.62 89.59 160.49 92.98 167.32 96.29 C 159.98 89.15 150.58 84.51 140.67 82.21 C 141.02 81.52 141.72 80.14 142.07 79.45 C 152.45 80.56 162.70 84.73 170.75 91.33 C 181.75 110.05 185.97 131.94 187.57 153.36 C 178.47 164.07 164.49 169.68 150.68 170.59 C 149.06 168.53 147.49 166.44 145.95 164.33 C 155.20 161.05 163.69 155.54 170.14 148.11 C 154.77 159.70 134.78 163.44 115.90 161.55 C 102.94 160.46 90.32 155.84 79.85 148.10 C 86.30 155.54 94.80 161.05 104.05 164.33 C 102.50 166.44 100.93 168.53 99.32 170.59 C 85.51 169.68 71.55 164.07 62.44 153.38 C 63.80 133.54 67.74 113.55 76.75 95.69 C 77.94 93.63 78.78 91.15 80.89 89.83 M 104.45 119.55 C 94.81 121.96 93.89 137.22 102.78 141.23 C 108.69 144.20 115.54 139.08 116.27 132.98 C 117.94 126.13 111.93 117.68 104.45 119.55 M 141.41 119.55 C 135.35 121.05 132.28 128.25 133.95 133.96 C 135.06 138.83 139.93 142.98 145.09 141.92 C 151.52 140.69 154.82 132.99 152.90 127.08 C 151.67 122.19 146.54 118.21 141.41 119.55 Z" /></svg>