<svg width="18.3vw" height="32.55vh" viewBox="0 0 250 250" version="1.1" xmlns="http://www.w3.org/2000/svg"><path d=" M 121.49 0.00 L 130.86 0.00 C 151.58 1.28 172.11 7.21 189.84 18.14 C 216.09 34.03 236.18 59.87 244.81 89.35 C 247.98 99.77 249.53 110.63 250.00 121.50 L 250.00 130.90 C 248.71 151.60 242.78 172.10 231.88 189.81 C 215.62 216.68 188.94 237.08 158.62 245.39 C 149.67 248.02 140.39 249.15 131.13 250.00 L 118.63 250.00 C 100.31 248.69 82.12 243.99 65.94 235.17 C 37.15 219.79 14.81 192.74 5.43 161.44 C 2.30 151.60 0.89 141.35 0.00 131.09 L 0.00 121.50 C 0.88 89.91 14.14 58.86 36.64 36.64 C 58.86 14.14 89.91 0.88 121.49 0.00 M 45.81 45.84 C 27.12 64.41 15.32 89.79 13.39 116.08 C 18.87 119.08 24.37 122.03 29.86 125.00 C 24.37 127.97 18.87 130.92 13.39 133.92 C 15.33 160.23 27.14 185.63 45.86 204.20 C 64.43 222.89 89.80 234.67 116.08 236.61 C 119.08 231.15 121.98 225.65 125.00 220.20 C 128.02 225.64 130.91 231.16 133.92 236.61 C 160.24 234.67 185.65 222.85 204.22 204.12 C 222.89 185.56 234.67 160.20 236.61 133.92 C 231.14 130.92 225.63 127.97 220.15 125.00 C 225.63 122.03 231.13 119.08 236.61 116.08 C 234.67 89.79 222.88 64.42 204.19 45.85 C 185.62 27.14 160.23 15.32 133.91 13.39 C 130.92 18.87 127.98 24.37 125.00 29.85 C 122.02 24.37 119.08 18.86 116.08 13.39 C 89.77 15.33 64.39 27.13 45.81 45.84 Z" /><path d=" M 139.34 63.55 C 145.53 61.37 153.69 63.10 156.89 69.27 C 160.69 76.29 156.99 85.67 149.86 88.88 C 143.29 92.27 133.38 91.21 129.86 83.98 C 125.82 76.04 131.10 66.01 139.34 63.55 Z" /><path d=" M 95.82 118.86 C 103.98 109.34 114.23 100.61 126.89 98.21 C 132.71 97.12 139.95 96.71 144.31 101.47 C 148.41 106.41 146.90 113.45 145.01 119.01 C 140.19 131.73 135.26 144.41 130.37 157.11 C 128.94 160.99 126.70 164.78 126.77 169.04 C 127.00 171.01 129.34 171.62 130.88 170.70 C 138.28 167.06 142.11 159.01 148.96 154.69 C 150.67 155.70 151.78 157.82 150.53 159.67 C 146.85 166.28 140.93 171.31 135.02 175.90 C 126.61 182.01 116.64 187.42 105.92 186.73 C 101.11 186.57 96.23 183.13 96.00 178.02 C 95.62 170.11 98.65 162.55 101.27 155.22 C 106.65 142.04 112.17 128.91 117.61 115.75 C 118.14 114.31 118.88 112.57 117.87 111.14 C 116.74 109.35 114.35 110.09 112.81 110.86 C 106.28 114.46 102.58 121.31 96.93 125.94 C 95.42 127.48 93.04 125.88 92.84 124.06 C 93.27 122.06 94.57 120.42 95.82 118.86 Z" /></svg>