<svg width="256px" height="256px" viewBox="0 0 849 849" version="1.1" xmlns="http://www.w3.org/2000/svg"><path d=" M 424.25 371.97 C 441.69 389.40 459.10 406.85 476.57 424.26 C 459.10 441.66 441.65 459.08 424.27 476.57 C 406.87 459.08 389.35 441.73 371.99 424.21 C 389.43 406.81 406.83 389.38 424.25 371.97 Z" /><path class="loader-left" d=" M 79.96 424.26 C 117.92 386.34 155.80 348.34 193.81 310.47 C 214.98 310.54 236.15 310.47 257.31 310.51 C 219.42 348.45 181.49 386.36 143.56 424.26 C 181.36 461.96 219.08 499.74 256.82 537.49 C 235.61 537.50 214.41 537.52 193.20 537.49 C 155.46 499.74 117.72 461.99 79.96 424.26 Z" /><path class="loader-center" d=" M 424.25 223.97 C 491.03 290.73 557.77 357.52 624.57 424.27 C 557.76 490.99 490.99 557.76 424.27 624.57 C 357.54 557.75 290.68 491.06 223.99 424.20 C 290.77 357.48 357.49 290.71 424.25 223.97 M 424.27 287.55 C 378.72 333.14 333.15 378.71 287.56 424.26 C 333.18 469.77 378.69 515.39 424.28 560.93 C 469.78 515.33 515.34 469.79 560.93 424.28 C 515.39 378.69 469.76 333.18 424.27 287.55 Z" /><path class="loader-right" d=" M 591.18 310.51 C 612.39 310.50 633.60 310.48 654.81 310.51 C 692.72 348.44 730.63 386.36 768.57 424.27 C 730.73 461.96 693.05 499.82 655.22 537.52 C 634.05 537.47 612.87 537.53 591.69 537.49 C 629.42 499.73 667.14 461.97 704.93 424.27 C 667.01 386.35 629.08 348.44 591.18 310.51 Z" /></svg>