<svg width="250pt" height="250pt" viewBox="0 0 250 250" version="1.1" xmlns="http://www.w3.org/2000/svg"><path d=" M 124.93 2.90 C 125.48 5.07 125.89 7.26 126.23 9.47 C 127.63 17.19 129.99 24.72 133.12 31.92 C 150.45 33.64 167.22 40.21 181.06 50.80 C 199.76 65.06 213.49 86.45 216.55 109.96 C 217.36 119.73 217.26 129.57 216.63 139.35 C 211.58 178.44 178.09 211.74 139.05 216.87 C 136.84 217.37 133.67 217.04 132.58 219.53 C 128.30 228.15 126.85 237.77 124.97 247.11 C 123.38 237.01 121.03 226.90 116.44 217.71 C 76.53 214.70 40.75 182.50 33.87 143.02 C 32.61 136.75 32.82 130.34 32.71 123.98 C 31.77 102.99 39.88 82.20 53.00 66.02 C 68.49 46.89 91.89 34.41 116.39 32.23 C 121.05 23.09 123.32 12.96 124.93 2.90 M 120.09 40.67 C 123.31 40.65 126.53 40.65 129.75 40.66 C 128.34 36.68 126.92 32.70 125.50 28.72 C 122.80 32.22 121.71 36.63 120.09 40.67 M 45.42 91.30 C 32.61 120.81 38.29 157.34 59.55 181.50 C 73.15 197.37 92.75 207.92 113.41 210.84 C 111.90 207.78 110.23 204.80 108.67 201.77 C 119.42 203.14 130.34 203.19 141.09 201.74 C 139.58 204.82 138.00 207.86 136.44 210.91 C 165.36 206.98 191.89 187.52 203.63 160.70 C 208.78 149.20 211.66 136.65 211.33 124.02 C 211.15 100.55 200.99 77.25 183.62 61.42 C 170.66 49.36 153.90 41.63 136.43 39.00 C 137.96 42.02 139.56 44.99 141.09 48.00 C 130.35 46.87 119.52 46.91 108.77 48.00 C 110.31 44.98 111.94 42.00 113.52 39.00 C 83.86 43.09 56.61 63.34 45.42 91.30 M 120.18 209.23 C 121.66 213.34 122.87 217.66 125.49 221.23 C 126.89 217.28 128.27 213.32 129.72 209.39 C 126.54 209.33 123.36 209.27 120.18 209.23 Z" /><path d=" M 127.00 86.43 C 130.55 84.05 132.41 78.92 137.01 78.46 C 146.25 80.94 152.04 89.38 160.19 93.86 C 163.29 95.96 167.72 97.09 169.03 100.99 C 170.79 106.87 171.41 113.02 171.99 119.11 C 169.19 121.71 166.36 124.28 163.61 126.93 C 166.16 130.14 171.15 133.16 169.66 137.91 C 168.03 143.29 162.66 146.01 159.35 150.21 C 160.13 156.82 158.44 163.76 154.16 168.93 C 150.40 167.97 146.84 166.06 142.93 165.84 C 134.44 168.12 126.06 171.55 117.15 171.64 C 112.06 168.55 107.70 164.38 102.51 161.42 C 100.56 153.18 91.74 149.20 89.43 141.16 C 85.56 139.98 81.01 140.08 78.06 136.91 C 80.34 130.61 81.50 124.01 82.48 117.41 C 84.35 111.92 86.99 106.71 89.46 101.46 C 98.19 98.46 105.31 90.92 106.58 81.60 C 113.56 82.38 120.26 84.56 127.00 86.43 M 133.90 94.78 C 134.37 99.42 132.48 103.71 130.90 107.95 C 134.23 105.60 137.11 102.70 140.26 100.14 C 141.85 100.94 143.21 102.11 144.64 103.15 C 144.04 100.47 143.47 97.79 142.89 95.11 C 139.89 94.92 136.90 94.82 133.90 94.78 M 98.26 107.63 C 98.56 110.09 98.89 112.55 99.21 115.02 C 92.12 120.57 88.07 128.80 82.86 135.94 C 86.63 136.87 90.37 137.90 94.14 138.86 C 92.47 137.55 90.74 136.33 88.99 135.14 C 91.14 133.57 93.39 132.13 95.75 130.90 C 97.47 132.52 99.18 134.23 101.36 135.22 C 101.54 134.45 101.90 132.91 102.08 132.14 C 104.25 131.74 106.43 131.39 108.62 131.12 C 107.73 137.19 104.61 143.02 100.46 147.51 C 100.22 148.04 99.74 149.10 99.51 149.63 C 101.22 150.81 102.94 151.97 104.69 153.09 C 104.58 152.03 104.35 149.92 104.24 148.87 C 105.85 150.80 107.47 152.74 109.08 154.68 C 110.74 153.80 112.41 152.92 114.09 152.08 C 113.76 154.11 113.92 157.82 111.13 157.99 C 108.19 156.47 105.82 154.02 102.82 152.59 C 104.54 160.41 112.82 163.04 118.02 168.03 C 125.68 167.22 133.24 165.34 140.31 162.27 C 144.73 160.42 148.97 163.57 153.10 164.78 C 155.28 159.45 155.74 153.65 155.72 147.95 C 158.20 145.05 161.27 142.78 164.06 140.20 C 159.13 140.42 154.62 142.50 150.38 144.85 C 150.73 142.69 151.08 140.53 151.42 138.37 C 154.99 136.81 158.63 135.16 161.33 132.25 C 158.50 132.54 155.68 132.85 152.85 132.99 C 154.89 127.61 159.37 123.75 164.04 120.64 C 163.15 118.15 163.73 114.32 161.50 112.71 C 156.96 117.65 153.83 123.77 152.33 130.31 C 150.59 130.62 148.85 130.92 147.11 131.23 C 145.67 133.53 144.18 135.80 142.70 138.07 C 142.95 133.07 139.82 128.87 135.50 126.70 C 135.16 124.74 134.81 122.78 134.44 120.82 C 131.96 122.63 130.21 125.16 128.31 127.53 C 126.85 126.87 125.38 126.23 123.91 125.59 C 120.65 127.36 116.82 128.70 115.14 132.30 C 112.03 130.34 108.52 129.20 105.18 127.73 C 103.29 125.60 102.73 122.61 101.65 120.03 C 103.20 118.45 104.73 116.86 106.25 115.26 C 102.99 113.38 100.68 110.41 98.26 107.63 M 106.74 116.42 C 106.90 117.16 107.22 118.66 107.38 119.40 C 108.86 119.12 109.70 120.53 110.78 121.22 C 112.31 122.63 114.44 122.93 116.34 123.56 C 118.24 118.99 119.67 114.23 121.07 109.49 C 116.96 112.86 112.79 118.24 106.74 116.42 M 93.47 141.69 C 94.92 144.03 96.48 146.30 98.00 148.60 C 98.47 147.97 98.92 147.33 99.36 146.69 C 98.61 143.79 98.11 140.83 97.64 137.87 C 96.21 139.10 94.82 140.37 93.47 141.69 Z" /><path d=" M 125.55 133.55 C 129.74 132.62 134.06 133.36 138.30 133.55 C 139.19 135.60 139.90 137.74 140.49 139.90 C 136.01 139.57 131.43 139.25 127.04 140.48 C 127.55 142.03 128.06 143.59 128.58 145.14 C 127.14 149.45 124.67 153.30 121.08 156.13 C 119.10 154.31 117.07 152.55 114.98 150.88 C 119.00 149.02 120.39 144.51 120.07 140.38 C 118.70 142.50 117.45 144.68 116.18 146.86 C 114.20 144.69 110.83 142.48 111.70 139.08 C 112.82 136.81 114.99 135.33 116.89 133.75 C 116.35 136.48 115.79 139.20 115.32 141.94 C 118.42 138.84 121.08 134.75 125.55 133.55 Z" /><path d=" M 135.53 145.58 C 139.58 143.23 140.82 150.60 137.09 151.58 C 133.72 152.25 133.01 147.03 135.53 145.58 Z" /></svg>