<svg width="256px" height="256px" viewBox="0 0 128 128" version="1.1" xmlns="http://www.w3.org/2000/svg"><path d=" M 59.84 16.93 C 61.84 12.20 63.21 7.22 64.00 2.15 C 64.77 7.22 66.27 12.14 68.11 16.92 C 83.87 18.38 98.69 27.92 106.02 42.02 C 113.28 55.09 113.26 71.35 107.32 84.92 C 110.81 89.00 114.35 93.11 118.84 96.14 C 113.83 93.90 108.46 92.67 103.05 91.92 C 94.31 104.41 79.35 112.49 64.01 112.04 C 48.67 112.49 33.71 104.40 24.95 91.92 C 19.46 92.68 14.01 93.94 8.96 96.27 C 13.58 93.18 17.30 89.01 20.75 84.70 C 14.99 72.20 14.80 57.19 20.66 44.70 C 27.49 29.24 43.08 18.44 59.84 16.93 M 61.52 21.33 C 63.17 21.33 64.81 21.33 66.46 21.34 C 65.62 19.10 64.81 16.85 64.03 14.58 C 63.24 16.85 62.39 19.09 61.52 21.33 M 25.84 41.96 C 18.69 53.68 17.87 68.69 22.89 81.38 C 23.92 79.93 24.87 78.42 25.83 76.93 C 27.86 82.15 30.69 87.03 34.18 91.41 C 32.37 91.44 30.55 91.48 28.73 91.52 C 37.10 102.24 50.40 109.04 64.07 108.87 C 77.70 109.00 90.92 102.19 99.28 91.52 C 97.46 91.48 95.65 91.44 93.83 91.42 C 97.19 86.94 100.21 82.17 102.18 76.91 C 103.14 78.28 103.68 80.12 105.19 81.03 C 110.54 67.75 109.01 51.86 100.93 40.00 C 93.99 29.35 82.23 22.16 69.66 20.49 C 70.59 22.09 71.54 23.67 72.48 25.26 C 66.86 24.47 61.15 24.48 55.53 25.26 C 56.46 23.67 57.41 22.08 58.34 20.49 C 44.99 22.25 32.61 30.28 25.84 41.96 M 25.30 84.03 C 23.82 85.88 22.32 87.70 20.80 89.51 C 23.15 89.07 25.51 88.65 27.87 88.25 C 27.01 86.85 26.14 85.44 25.30 84.03 M 100.11 88.26 C 102.48 88.65 104.84 89.07 107.20 89.50 C 105.68 87.70 104.18 85.87 102.70 84.02 C 101.86 85.45 100.97 86.85 100.11 88.26 Z" /><path d=" M 53.85 43.72 C 56.52 41.23 60.53 41.36 63.95 41.20 C 68.41 40.94 74.29 41.83 76.13 46.55 C 77.56 47.31 78.45 48.45 78.24 50.16 C 78.80 50.18 79.92 50.22 80.48 50.25 C 82.45 52.36 84.87 54.18 86.24 56.77 C 86.99 59.76 86.32 62.89 86.74 65.93 C 86.80 68.23 87.83 71.06 85.85 72.87 C 81.97 77.20 77.44 80.89 73.50 85.17 C 67.49 88.28 60.37 87.53 54.15 85.40 C 54.00 85.01 53.70 84.24 53.55 83.85 C 51.91 82.61 50.55 81.06 49.21 79.50 C 49.08 78.92 48.82 77.77 48.70 77.19 C 48.08 77.18 46.84 77.16 46.22 77.14 C 44.43 75.18 42.17 73.49 41.02 71.04 C 40.84 68.37 41.49 65.72 41.40 63.04 C 41.52 60.73 40.96 58.20 42.10 56.06 C 45.41 51.38 50.53 48.38 53.85 43.72 M 55.17 44.08 C 55.10 47.63 57.63 50.22 59.12 53.19 C 58.23 49.97 57.91 46.38 55.17 44.08 M 68.89 51.48 C 69.99 50.22 71.00 48.90 72.03 47.58 C 72.05 46.64 72.11 44.77 72.13 43.83 C 70.35 46.05 69.22 48.65 68.89 51.48 M 45.46 56.46 C 45.55 56.54 45.55 56.54 45.46 56.46 M 52.84 64.29 C 53.70 68.26 57.68 69.87 60.43 72.32 C 57.56 71.23 54.33 70.56 52.12 68.26 C 49.87 69.52 46.40 70.02 45.62 72.85 C 49.47 74.73 51.90 78.21 54.66 81.33 C 56.52 80.08 57.83 78.23 59.20 76.49 C 58.76 78.62 58.31 80.75 57.94 82.90 C 61.97 83.03 66.01 83.22 70.04 82.90 C 69.54 80.68 69.00 78.47 68.58 76.24 C 70.14 78.14 71.48 80.20 72.88 82.22 C 73.27 81.60 74.06 80.36 74.45 79.74 C 77.26 77.08 79.72 74.07 83.03 71.96 C 80.97 70.29 78.61 69.09 76.11 68.24 C 73.48 70.00 70.62 71.39 67.63 72.41 C 70.21 69.70 74.70 68.29 75.20 64.12 C 72.96 62.01 71.01 59.61 68.71 57.56 C 69.68 59.39 70.83 61.11 71.81 62.93 C 70.93 65.39 67.65 65.45 65.90 67.11 C 67.14 66.69 69.64 65.84 70.89 65.42 C 69.17 67.55 68.05 70.31 65.72 71.88 C 62.90 73.23 60.77 70.37 58.81 68.89 C 61.73 69.76 64.80 70.18 67.81 69.56 C 63.80 69.51 59.18 69.34 56.66 65.66 C 58.40 66.04 60.14 66.42 61.89 66.80 C 60.19 65.97 58.45 65.21 56.77 64.35 C 55.60 61.91 58.57 59.83 59.23 57.59 C 56.93 59.66 54.99 62.07 52.84 64.29 M 43.91 58.49 C 44.62 62.26 44.02 66.09 44.23 69.89 C 45.36 69.51 46.49 69.12 47.61 68.72 C 48.98 66.93 52.01 66.00 50.48 63.28 C 50.83 62.98 51.53 62.38 51.88 62.08 C 49.09 61.21 46.11 60.56 43.91 58.49 M 76.31 62.04 C 77.76 63.06 77.38 64.58 77.02 66.03 C 79.41 67.30 81.19 69.56 84.00 69.95 C 84.37 66.14 84.21 62.32 83.93 58.52 C 81.81 60.47 79.02 61.27 76.31 62.04 Z" /><path d=" M 59.44 74.58 C 62.32 73.21 65.67 73.22 68.56 74.57 C 65.57 75.35 62.43 75.35 59.44 74.58 Z" /></svg>