<svg width="250pt" height="250pt" viewBox="0 0 250 250" version="1.1" xmlns="http://www.w3.org/2000/svg"><path d=" M 116.86 32.87 C 120.76 23.91 123.11 14.41 125.03 4.86 C 126.79 14.43 129.35 23.87 132.98 32.90 C 152.95 34.97 172.23 43.35 187.23 56.70 C 202.58 70.52 213.34 89.51 216.66 109.94 C 219.82 128.75 217.08 148.35 209.63 165.86 C 216.26 173.74 223.21 181.49 231.64 187.48 C 221.92 183.44 211.64 180.79 201.19 179.52 C 186.81 200.00 163.90 214.49 139.06 217.95 C 124.06 219.86 108.49 219.01 94.18 213.86 C 75.84 207.56 59.86 195.10 48.52 179.44 C 38.03 180.99 27.61 183.44 17.90 187.78 C 26.61 181.63 33.80 173.64 40.51 165.42 C 32.43 147.72 29.76 127.51 33.51 108.37 C 37.42 88.39 47.83 69.59 63.30 56.24 C 78.12 43.08 97.19 34.99 116.86 32.87 M 120.11 41.68 C 123.33 41.67 126.54 41.67 129.75 41.66 C 128.16 37.35 126.69 32.99 125.10 28.68 C 123.29 32.95 121.79 37.35 120.11 41.68 M 80.00 52.01 C 61.16 63.40 46.79 82.18 41.33 103.57 C 36.49 121.73 37.86 141.38 44.67 158.87 C 46.63 156.03 48.53 153.15 50.35 150.22 C 54.40 160.38 59.94 169.91 66.73 178.48 C 63.19 178.58 59.65 178.68 56.10 178.77 C 66.00 191.29 79.27 201.06 94.12 206.88 C 110.06 213.20 127.93 214.21 144.60 210.40 C 163.90 205.71 181.51 194.34 193.82 178.77 C 190.28 178.69 186.74 178.61 183.20 178.51 C 189.89 169.83 195.52 160.33 199.58 150.14 C 201.14 153.10 202.79 156.10 205.35 158.34 C 211.22 144.11 212.77 128.28 210.61 113.10 C 207.78 93.27 197.56 74.64 182.59 61.38 C 169.68 49.73 153.15 42.37 135.97 39.98 C 137.76 43.00 139.58 45.99 141.36 49.02 C 130.45 47.88 119.48 47.97 108.57 49.01 C 110.34 45.99 112.14 43.00 113.91 39.98 C 101.97 41.74 90.29 45.64 80.00 52.01 M 195.48 172.30 C 200.12 173.14 204.77 173.93 209.41 174.76 C 206.40 171.24 203.45 167.69 200.54 164.10 C 198.85 166.84 197.17 169.57 195.48 172.30 M 40.59 174.77 C 45.17 173.92 49.76 173.14 54.34 172.32 C 52.70 169.57 51.02 166.83 49.34 164.10 C 46.47 167.70 43.58 171.27 40.59 174.77 Z" /><path d=" M 108.92 82.85 C 114.90 80.23 121.60 80.66 127.98 80.41 C 135.07 80.42 143.36 82.13 147.40 88.56 C 149.33 91.70 153.17 93.69 153.07 97.85 C 154.40 97.92 155.73 97.99 157.06 98.07 C 160.90 102.15 165.61 105.63 168.26 110.67 C 170.07 116.90 168.57 123.49 169.48 129.85 C 169.73 133.88 171.07 138.74 167.92 142.01 C 160.64 150.05 152.27 157.01 144.88 164.93 C 143.20 166.86 140.72 167.71 138.36 168.47 C 127.73 171.82 116.09 170.43 105.75 166.70 C 104.55 162.49 100.30 160.51 97.77 157.23 C 95.94 155.54 95.55 153.04 94.97 150.76 C 93.40 150.71 91.83 150.67 90.25 150.63 C 86.73 146.87 82.45 143.56 80.21 138.82 C 79.55 133.57 81.08 128.30 80.84 123.02 C 81.06 118.29 79.82 112.93 82.73 108.78 C 88.09 101.51 95.56 96.23 101.63 89.62 C 103.88 87.19 105.73 84.15 108.92 82.85 M 134.46 100.43 C 136.55 97.89 138.92 95.53 140.55 92.67 C 140.91 90.32 140.74 87.92 140.74 85.56 C 137.45 89.91 135.13 94.98 134.46 100.43 M 107.68 85.91 C 107.71 92.44 111.92 97.68 115.02 103.06 C 113.90 96.93 112.51 90.29 107.68 85.91 M 103.38 125.52 C 104.63 133.06 112.57 136.43 117.78 141.03 C 112.08 139.29 106.23 137.37 101.67 133.35 C 97.02 135.55 91.18 136.88 88.86 142.03 C 96.25 145.96 101.47 152.64 106.83 158.86 C 110.18 156.16 112.94 152.83 115.52 149.41 C 114.68 153.55 113.88 157.70 113.08 161.86 C 120.97 162.06 128.86 162.44 136.74 161.88 C 135.73 157.58 134.80 153.26 133.88 148.93 C 136.92 152.62 139.59 156.59 142.30 160.52 C 143.72 158.25 145.12 155.93 147.03 154.02 C 151.81 149.24 156.48 144.26 162.11 140.43 C 158.03 137.31 153.47 134.84 148.60 133.22 C 143.48 136.62 137.93 139.39 132.07 141.28 C 137.25 136.20 145.44 133.23 146.99 125.35 C 142.69 121.21 138.83 116.62 134.37 112.63 C 136.26 116.18 138.34 119.61 140.36 123.08 C 137.79 127.40 132.50 128.27 128.56 130.85 C 131.84 130.04 135.03 128.92 138.21 127.79 C 134.94 132.20 132.62 137.79 127.68 140.62 C 122.52 142.30 118.62 137.60 115.12 134.65 C 120.42 136.02 125.93 136.75 131.39 135.98 C 123.91 135.62 115.31 134.85 110.49 128.29 C 113.67 128.85 116.81 129.56 119.97 130.15 C 116.92 128.43 113.55 127.29 110.63 125.33 C 109.19 120.41 114.04 116.74 115.66 112.51 C 111.20 116.47 107.27 121.01 103.38 125.52 M 85.81 114.35 C 86.91 121.67 86.08 129.07 86.32 136.43 C 91.31 135.42 95.55 132.46 98.66 128.48 C 99.87 126.99 98.95 125.08 98.78 123.40 C 99.61 122.66 100.45 121.91 101.29 121.17 C 95.84 119.67 90.22 118.07 85.81 114.35 M 149.28 121.01 C 151.34 123.22 150.98 126.19 150.58 128.93 C 154.91 131.77 158.84 135.48 164.02 136.73 C 164.78 129.29 164.40 121.81 163.91 114.38 C 159.64 117.74 154.51 119.70 149.28 121.01 Z" /><path d=" M 115.90 145.65 C 121.60 143.03 128.23 143.11 133.97 145.55 C 128.09 147.22 121.82 147.10 115.90 145.65 Z" /></svg>