<svg width="250pt" height="250pt" viewBox="0 0 250 250" version="1.1" xmlns="http://www.w3.org/2000/svg"><path d=" M 125.00 1.80 C 126.66 11.86 128.73 22.21 133.49 31.25 C 155.98 33.75 177.78 44.09 193.13 60.84 C 207.43 75.85 215.83 95.86 217.84 116.39 C 227.18 120.47 237.06 123.26 247.10 124.99 C 237.03 126.73 227.09 129.43 217.71 133.52 C 215.06 157.66 202.92 180.74 184.06 196.11 C 174.96 203.67 164.38 209.44 153.04 212.84 C 146.71 215.02 140.08 215.98 133.55 217.32 C 129.53 227.21 126.39 237.49 124.98 248.09 C 123.47 237.57 120.58 227.23 116.28 217.52 C 115.10 216.64 113.48 216.83 112.11 216.49 C 88.72 213.03 66.62 200.66 51.98 182.02 C 41.01 168.17 34.28 151.14 32.22 133.63 C 22.62 129.22 12.29 126.56 1.86 125.00 C 12.20 123.50 22.29 120.61 31.91 116.55 C 34.09 96.00 42.54 75.95 56.77 60.83 C 72.19 44.10 93.95 33.54 116.58 31.44 C 120.89 22.06 123.45 11.98 125.00 1.80 M 120.18 39.86 C 123.36 39.88 126.54 39.89 129.72 39.88 C 128.15 35.54 126.63 31.18 125.14 26.81 C 123.05 30.97 121.98 35.57 120.18 39.86 M 65.42 61.45 C 50.92 74.98 41.83 93.74 38.85 113.25 C 41.73 111.72 44.59 110.15 47.46 108.58 C 46.10 119.50 46.12 130.54 47.45 141.45 C 44.66 139.79 41.87 138.12 39.08 136.48 C 41.92 152.59 48.41 168.29 59.35 180.62 C 72.84 196.41 92.30 206.93 112.82 209.94 C 111.36 207.45 109.90 204.97 108.45 202.48 C 119.40 203.79 130.46 203.78 141.40 202.48 C 139.96 204.98 138.52 207.49 137.10 210.01 C 174.25 205.22 205.76 173.50 210.90 136.49 C 208.08 138.15 205.26 139.80 202.45 141.47 C 203.78 130.54 203.81 119.50 202.45 108.58 C 205.32 110.13 208.20 111.68 211.09 113.21 C 208.66 97.73 202.57 82.71 192.75 70.43 C 178.97 52.79 158.03 41.36 135.98 38.16 C 137.78 41.26 139.62 44.33 141.43 47.43 C 130.48 46.13 119.43 46.12 108.48 47.43 C 110.28 44.34 112.10 41.26 113.92 38.18 C 95.98 41.07 78.49 48.61 65.42 61.45 M 26.81 124.86 C 30.98 126.94 35.59 127.95 39.89 129.75 C 39.90 126.55 39.90 123.36 39.88 120.16 C 35.54 121.76 31.18 123.34 26.81 124.86 M 210.08 120.20 C 210.09 123.38 210.10 126.55 210.10 129.74 C 214.43 128.07 218.84 126.60 223.23 125.08 C 218.93 123.25 214.45 121.86 210.08 120.20 M 120.20 210.08 C 121.93 214.39 123.14 218.92 125.13 223.13 C 126.58 218.75 128.14 214.41 129.72 210.08 C 126.55 210.08 123.38 210.08 120.20 210.08 Z" /><path d=" M 101.71 101.74 C 109.50 93.40 118.66 86.26 125.01 76.67 C 132.63 87.96 143.48 96.39 152.76 106.21 C 159.00 112.45 164.78 119.32 172.30 124.09 C 165.20 130.04 158.52 136.48 152.16 143.21 C 143.22 152.74 133.05 161.12 124.99 171.46 C 118.11 162.90 109.93 155.52 102.21 147.73 C 94.05 139.81 86.58 131.14 77.60 124.09 C 86.92 118.12 93.65 109.17 101.71 101.74 M 124.35 92.17 C 122.22 95.92 119.42 99.25 116.90 102.74 C 119.56 101.24 122.31 99.91 125.11 98.68 C 127.38 99.86 129.67 100.99 131.93 102.18 C 126.73 97.01 125.44 89.62 124.50 82.67 C 124.54 85.83 124.77 89.02 124.35 92.17 M 124.39 110.95 C 123.97 112.19 123.54 113.43 123.11 114.67 C 126.52 118.99 130.41 122.94 134.76 126.31 C 135.38 125.93 136.63 125.18 137.25 124.80 C 134.19 119.16 129.00 115.23 124.39 110.95 M 84.01 124.84 C 89.55 130.34 95.04 135.88 100.58 141.38 C 104.17 140.10 107.82 138.99 111.46 137.87 C 107.35 134.34 103.42 130.61 99.48 126.90 C 100.30 125.16 101.14 123.43 101.97 121.69 C 98.43 120.48 95.01 118.88 92.00 116.65 C 89.31 119.36 86.66 122.10 84.01 124.84 M 148.02 121.66 C 148.78 123.40 149.59 125.12 150.40 126.84 C 148.38 128.78 146.38 130.74 144.34 132.67 C 146.50 133.47 148.61 134.45 150.32 136.02 C 147.86 135.55 145.50 134.72 143.19 133.77 C 141.58 135.09 140.00 136.43 138.44 137.80 C 141.94 139.08 145.45 140.34 148.92 141.69 C 151.59 138.71 154.46 135.92 157.62 133.48 C 155.68 132.73 153.74 131.99 151.80 131.25 C 153.88 131.74 155.97 132.18 158.07 132.59 C 160.71 130.00 163.38 127.44 165.99 124.83 C 163.29 122.11 160.59 119.39 157.89 116.68 C 154.89 118.87 151.51 120.44 148.02 121.66 M 116.79 118.32 C 120.64 122.63 124.47 126.99 128.95 130.67 C 130.31 130.25 131.68 129.83 133.05 129.41 C 129.16 125.20 125.47 120.77 120.94 117.22 C 119.55 117.59 118.17 117.96 116.79 118.32 M 113.51 124.94 C 116.83 129.18 120.79 132.83 125.01 136.15 C 125.55 135.79 126.62 135.06 127.16 134.70 C 124.98 128.55 118.91 125.30 114.64 120.78 C 114.27 122.17 113.90 123.56 113.51 124.94 M 101.56 142.37 C 103.22 144.06 104.90 145.73 106.62 147.37 C 110.90 145.58 115.61 144.41 120.23 145.62 C 117.63 143.66 115.15 141.55 112.77 139.34 C 109.01 140.29 105.33 141.51 101.56 142.37 M 129.69 145.61 C 134.32 144.40 139.04 145.61 143.34 147.38 C 144.90 145.92 146.43 144.41 147.94 142.89 C 144.38 141.67 140.84 140.42 137.25 139.27 C 134.79 141.45 132.30 143.61 129.69 145.61 M 107.76 148.98 C 109.48 150.55 111.22 152.10 112.98 153.63 C 120.85 151.81 129.05 151.82 136.92 153.62 C 138.68 152.09 140.43 150.55 142.17 148.98 C 130.84 146.72 119.09 146.70 107.76 148.98 M 114.95 156.98 C 117.01 158.20 118.93 159.71 121.18 160.59 C 123.66 160.83 126.17 160.85 128.65 160.60 C 130.90 159.75 132.82 158.25 134.84 157.00 C 128.23 156.22 121.57 156.34 114.95 156.98 Z" /><path d=" M 100.07 134.30 C 100.81 134.23 102.28 134.08 103.02 134.00 C 102.75 135.41 102.02 136.61 100.53 136.88 C 100.42 136.24 100.18 134.95 100.07 134.30 Z" /></svg>