<svg width="256px" height="256px" viewBox="0 0 128 128" version="1.1" xmlns="http://www.w3.org/2000/svg"><path d=" M 59.75 16.11 C 61.93 11.19 63.35 5.97 64.00 0.62 C 64.64 5.94 66.07 11.14 68.22 16.05 C 81.00 17.31 93.20 23.71 101.19 33.81 C 107.16 41.11 110.64 50.26 111.54 59.62 C 116.35 61.75 121.43 63.14 126.61 64.01 C 121.41 64.84 116.33 66.31 111.49 68.39 C 110.08 81.44 103.23 93.80 92.71 101.68 C 85.73 107.05 77.19 110.05 68.51 111.17 C 66.30 116.29 64.69 121.66 63.99 127.21 C 63.30 121.67 61.71 116.29 59.49 111.17 C 46.05 109.69 33.26 102.66 25.39 91.56 C 20.44 84.79 17.52 76.69 16.51 68.40 C 11.48 66.24 6.21 64.68 0.78 64.00 C 6.19 63.31 11.47 61.82 16.46 59.62 C 17.58 46.70 24.09 34.33 34.33 26.34 C 41.53 20.45 50.54 17.05 59.75 16.11 M 61.55 20.44 C 63.18 20.44 64.81 20.44 66.45 20.44 C 65.59 18.16 64.77 15.86 64.00 13.54 C 63.23 15.86 62.41 18.16 61.55 20.44 M 37.88 27.85 C 28.05 34.88 21.64 46.12 19.91 58.02 C 21.40 57.22 22.88 56.41 24.36 55.59 C 23.59 61.19 23.61 66.87 24.35 72.48 C 22.91 71.62 21.46 70.76 20.01 69.91 C 21.24 76.78 23.70 83.50 27.81 89.18 C 34.71 99.11 45.87 105.77 57.80 107.52 C 57.05 106.23 56.29 104.94 55.53 103.65 C 61.14 104.40 66.83 104.40 72.44 103.65 C 71.69 104.94 70.95 106.23 70.22 107.53 C 89.34 105.06 105.31 88.94 107.99 69.91 C 106.54 70.76 105.09 71.62 103.65 72.48 C 104.39 66.87 104.41 61.19 103.64 55.59 C 105.12 56.41 106.60 57.22 108.09 58.02 C 106.86 50.34 104.00 42.88 99.20 36.72 C 92.14 27.34 81.24 21.21 69.66 19.56 C 70.58 21.16 71.52 22.76 72.46 24.35 C 66.84 23.60 61.16 23.60 55.54 24.35 C 56.48 22.76 57.42 21.16 58.35 19.56 C 51.03 20.78 43.84 23.35 37.88 27.85 M 13.54 64.00 C 15.86 64.77 18.16 65.59 20.44 66.45 C 20.44 64.81 20.44 63.18 20.44 61.55 C 18.16 62.41 15.86 63.22 13.54 64.00 M 107.56 61.55 C 107.56 63.18 107.56 64.82 107.56 66.45 C 109.84 65.59 112.14 64.77 114.46 64.00 C 112.14 63.22 109.84 62.41 107.56 61.55 M 61.55 107.56 C 62.41 109.83 63.22 112.13 64.00 114.44 C 64.78 112.13 65.59 109.84 66.45 107.56 C 64.81 107.56 63.18 107.56 61.55 107.56 Z" /><path d=" M 52.11 52.11 C 56.07 47.83 60.84 44.23 64.00 39.26 C 68.24 45.47 74.32 50.10 79.39 55.60 C 82.20 58.39 84.79 61.51 88.27 63.53 C 82.64 68.10 77.89 73.62 72.66 78.62 C 69.69 81.61 66.55 84.46 64.00 87.84 C 60.56 83.37 56.26 79.70 52.36 75.65 C 48.16 71.60 44.32 67.15 39.73 63.53 C 44.56 60.56 47.97 55.90 52.11 52.11 M 63.95 41.45 C 63.81 43.40 63.75 45.34 63.72 47.29 C 62.50 49.13 61.20 50.92 59.85 52.67 C 61.21 51.86 62.62 51.16 64.08 50.57 C 65.47 51.20 66.81 51.92 68.10 52.76 C 64.76 49.84 63.92 45.68 63.95 41.45 M 63.04 58.70 C 64.72 60.97 66.79 62.93 69.00 64.67 L 70.28 63.94 C 68.85 60.98 65.99 59.09 63.72 56.83 C 63.55 57.29 63.21 58.23 63.04 58.70 M 47.17 59.71 C 45.79 61.12 44.40 62.53 43.01 63.93 C 45.86 66.73 48.69 69.54 51.48 72.40 C 53.35 71.76 55.23 71.17 57.13 70.62 C 54.97 68.83 52.93 66.92 50.94 64.95 C 51.38 64.07 51.81 63.19 52.24 62.31 C 50.42 61.72 48.65 60.96 47.17 59.71 M 59.83 60.62 C 61.83 62.79 63.72 65.10 66.06 66.92 C 66.58 66.77 67.63 66.46 68.15 66.30 C 66.16 64.14 64.28 61.82 61.91 60.05 C 61.39 60.19 60.35 60.48 59.83 60.62 M 80.83 59.73 C 79.35 60.98 77.56 61.70 75.76 62.31 C 76.19 63.19 76.62 64.06 77.04 64.94 C 75.98 65.97 74.92 67.00 73.85 68.03 C 75.10 68.31 76.17 68.87 77.06 69.70 C 75.77 69.45 74.53 69.06 73.33 68.51 C 72.72 69.04 71.50 70.08 70.88 70.60 C 72.69 71.23 74.48 71.89 76.27 72.58 C 77.63 71.03 79.14 69.63 80.74 68.33 C 79.93 68.05 78.32 67.51 77.51 67.23 C 78.37 67.40 80.11 67.73 80.97 67.90 C 82.31 66.57 83.65 65.25 85.00 63.93 C 83.60 62.53 82.21 61.13 80.83 59.73 M 58.15 63.92 C 59.78 66.15 61.86 68.02 64.01 69.74 L 65.09 69.01 C 64.15 65.91 60.84 64.15 58.74 61.82 C 58.59 62.35 58.30 63.39 58.15 63.92 M 52.00 72.93 C 52.86 73.78 53.73 74.63 54.59 75.48 C 56.82 74.55 59.22 73.85 61.63 74.65 C 60.29 73.58 58.97 72.47 57.68 71.35 C 55.80 71.95 53.90 72.45 52.00 72.93 M 70.35 71.32 C 69.04 72.46 67.71 73.58 66.36 74.67 C 68.77 73.84 71.17 74.55 73.41 75.48 C 74.19 74.71 74.98 73.94 75.77 73.17 C 73.96 72.57 72.15 71.97 70.35 71.32 M 55.17 76.31 C 56.07 77.11 56.98 77.91 57.90 78.71 C 61.91 77.73 66.09 77.73 70.10 78.71 C 71.01 77.91 71.92 77.11 72.83 76.31 C 67.04 75.09 60.96 75.10 55.17 76.31 M 58.86 80.46 C 59.64 80.92 61.22 81.85 62.01 82.31 C 63.33 82.30 64.66 82.30 65.99 82.30 C 66.78 81.84 68.36 80.92 69.15 80.45 C 65.73 80.00 62.27 80.01 58.86 80.46 Z" /><path d=" M 51.36 68.79 C 54.50 67.64 51.00 72.12 51.36 68.79 Z" /></svg>