<svg width="250pt" height="250pt" viewBox="0 0 250 250" version="1.1" xmlns="http://www.w3.org/2000/svg"><path d=" M 134.22 0.62 C 135.55 11.76 138.60 22.65 143.08 32.94 C 179.80 39.66 211.10 70.31 217.43 107.27 C 227.59 111.69 238.32 114.99 249.40 115.97 C 238.65 117.30 228.20 120.39 218.21 124.55 C 228.18 128.66 238.57 131.95 249.33 133.04 C 239.00 134.42 228.63 136.64 219.26 141.34 C 217.74 141.90 217.59 143.67 217.09 144.96 C 213.26 157.49 208.65 170.12 200.38 180.47 C 186.84 199.06 165.79 211.12 143.66 216.43 C 138.02 226.17 135.94 237.38 134.23 248.36 C 133.55 237.89 130.40 227.71 126.38 218.08 C 126.19 218.08 125.81 218.08 125.62 218.09 C 121.32 227.65 118.54 237.89 117.27 248.30 C 116.55 237.13 112.90 226.41 108.63 216.15 C 75.80 209.96 46.96 185.01 37.39 152.82 C 36.00 149.18 35.57 144.99 33.38 141.75 C 23.69 136.49 12.67 134.37 1.83 133.05 C 12.81 132.19 23.45 128.84 33.53 124.51 C 23.55 120.33 13.08 117.24 2.29 116.03 C 13.44 115.09 24.17 111.60 34.40 107.21 C 38.49 86.82 49.25 67.74 65.03 54.12 C 77.43 43.22 92.97 36.53 108.91 32.71 C 113.05 22.43 116.56 11.72 117.26 0.58 C 118.61 11.49 121.55 22.18 126.00 32.23 C 130.14 22.14 133.59 11.58 134.22 0.62 M 112.66 40.23 C 115.88 40.25 119.10 40.25 122.31 40.24 C 120.65 35.81 119.03 31.37 117.44 26.93 C 115.94 31.40 114.33 35.82 112.66 40.23 M 129.61 40.24 C 132.78 40.25 135.94 40.25 139.11 40.24 C 137.52 35.77 135.92 31.30 134.33 26.84 C 132.91 31.35 131.25 35.79 129.61 40.24 M 41.68 104.00 C 44.13 102.58 46.56 101.15 49.01 99.74 C 47.88 108.14 48.23 116.60 48.78 125.02 C 48.03 133.16 48.06 141.33 48.99 149.46 C 46.56 148.08 44.15 146.68 41.74 145.29 C 49.23 176.06 74.82 201.38 105.51 208.95 C 104.03 206.41 102.50 203.90 100.93 201.42 C 111.90 203.24 123.00 200.97 134.02 202.09 C 139.68 202.62 145.35 201.88 150.99 201.42 C 149.50 203.92 148.03 206.43 146.59 208.95 C 177.25 201.21 202.54 175.84 210.33 145.21 C 207.78 146.69 205.23 148.17 202.68 149.64 C 203.99 141.48 203.74 133.20 203.01 125.00 C 203.62 116.56 204.10 108.03 202.67 99.63 C 205.21 101.09 207.74 102.56 210.28 104.02 C 202.65 73.41 177.42 47.80 146.67 40.37 C 148.03 42.86 149.43 45.32 150.86 47.77 C 141.99 46.27 133.02 47.37 124.10 47.40 C 116.42 46.79 108.69 46.65 101.05 47.85 C 102.50 45.36 103.94 42.85 105.35 40.33 C 74.59 47.73 49.24 73.34 41.68 104.00 M 27.94 116.15 C 32.52 117.67 37.10 119.20 41.61 120.91 C 41.60 117.71 41.58 114.50 41.57 111.30 C 37.04 112.94 32.50 114.56 27.94 116.15 M 210.29 111.30 C 210.31 114.54 210.33 117.77 210.36 121.00 C 214.76 119.24 219.22 117.62 223.67 115.99 C 219.21 114.43 214.74 112.90 210.29 111.30 M 210.29 128.32 C 210.30 131.51 210.31 134.69 210.32 137.88 C 214.76 136.15 219.27 134.59 223.76 132.99 C 219.26 131.47 214.76 129.95 210.29 128.32 M 27.88 133.06 C 32.49 134.65 37.13 136.14 41.70 137.82 C 41.61 134.66 41.52 131.50 41.43 128.34 C 36.93 129.95 32.39 131.48 27.88 133.06 M 112.62 209.06 C 114.28 213.45 115.95 217.83 117.46 222.27 C 119.05 217.85 120.66 213.44 122.32 209.04 C 119.09 209.02 115.85 209.02 112.62 209.06 M 129.60 208.99 C 131.19 213.41 132.85 217.81 134.29 222.28 C 135.91 217.85 137.51 213.42 139.23 209.03 C 136.02 208.98 132.81 208.97 129.60 208.99 Z" /><path d=" M 123.58 76.66 C 125.03 71.28 122.85 64.90 126.89 60.31 C 127.64 65.72 127.18 71.28 128.41 76.63 C 131.56 84.84 138.03 91.34 140.81 99.75 C 139.00 106.40 135.13 112.16 132.22 118.34 C 138.40 115.47 144.09 111.25 150.83 109.82 C 158.51 112.20 164.56 117.81 171.68 121.32 C 177.49 124.49 184.91 121.08 190.36 125.33 C 184.45 126.76 178.13 125.39 172.38 127.58 C 165.92 130.43 160.58 135.28 154.11 138.11 C 152.52 138.76 150.77 139.58 149.05 138.88 C 143.00 137.13 137.84 133.35 132.10 130.87 C 134.41 137.69 141.03 143.27 140.13 150.95 C 137.46 158.97 130.94 165.11 128.20 173.12 C 127.15 178.30 127.59 183.64 126.99 188.87 C 122.52 184.39 125.23 177.75 123.54 172.35 C 120.76 165.84 116.08 160.37 112.93 154.05 C 112.13 152.32 110.96 150.48 111.52 148.50 C 112.80 142.05 117.21 136.91 119.64 130.92 C 113.44 133.52 107.94 138.05 101.16 139.10 C 92.15 137.31 86.10 129.18 77.27 126.93 C 73.26 125.89 69.07 126.61 65.03 125.94 C 63.64 125.67 63.21 124.10 62.36 123.17 C 67.40 122.75 72.54 123.44 77.51 122.35 C 85.90 118.85 93.04 112.96 101.30 109.17 C 107.04 112.07 112.96 114.61 118.53 117.83 C 119.05 117.73 120.10 117.53 120.62 117.43 C 122.30 118.95 123.93 120.51 125.57 122.08 C 127.33 120.38 129.10 118.68 130.86 116.97 C 129.09 115.19 127.31 113.40 125.54 111.61 C 123.36 113.22 121.96 116.23 119.29 116.90 C 116.71 112.91 114.46 108.69 112.57 104.34 C 111.99 102.48 110.81 100.47 111.52 98.49 C 114.25 90.54 120.47 84.42 123.58 76.66 M 115.89 96.29 C 119.24 99.58 122.72 102.75 126.24 105.86 C 127.58 102.76 130.33 100.78 133.22 99.25 C 130.29 99.25 127.36 99.15 124.44 99.05 C 128.64 98.05 132.87 97.13 137.04 95.98 C 132.89 95.58 128.74 95.25 124.59 94.90 C 128.14 94.15 131.73 93.63 135.29 92.92 C 131.76 91.96 128.12 91.52 124.48 91.18 C 127.31 90.27 130.08 89.23 132.83 88.11 C 129.94 87.79 127.06 87.45 124.18 87.05 C 126.03 86.64 127.87 86.26 129.73 85.88 C 128.37 83.59 127.02 81.30 125.69 79.00 C 122.68 84.90 119.30 90.61 115.89 96.29 M 80.44 124.59 C 87.00 127.10 93.25 130.46 98.68 134.95 C 98.65 133.16 98.64 131.36 98.61 129.57 C 100.06 129.71 101.50 129.86 102.94 130.01 C 102.73 128.71 102.52 127.42 102.31 126.13 C 104.12 125.86 105.94 125.59 107.76 125.32 C 104.55 121.62 101.15 118.09 97.75 114.57 C 91.92 117.81 86.19 121.23 80.44 124.59 M 144.20 125.41 C 145.99 125.64 147.78 125.87 149.57 126.09 C 149.38 127.38 149.19 128.67 149.01 129.96 C 150.40 129.85 151.80 129.75 153.20 129.64 C 153.19 131.38 153.19 133.11 153.17 134.85 C 159.04 131.01 164.69 126.66 171.54 124.70 C 165.73 121.24 159.89 117.85 154.03 114.48 C 150.71 118.09 147.43 121.73 144.20 125.41 M 128.39 124.72 C 130.19 126.53 131.99 128.33 133.81 130.12 C 135.63 128.31 137.44 126.48 139.24 124.64 C 137.43 122.81 135.62 120.98 133.81 119.16 C 131.99 121.00 130.19 122.85 128.39 124.72 M 112.32 124.66 C 114.08 126.40 115.84 128.14 117.61 129.88 C 119.37 128.09 121.13 126.31 122.90 124.53 C 121.18 122.78 119.47 121.03 117.75 119.28 C 115.93 121.06 114.12 122.86 112.32 124.66 M 120.15 132.26 C 121.92 134.01 123.70 135.76 125.48 137.51 C 127.29 135.74 129.09 133.97 130.88 132.19 C 129.13 130.44 127.37 128.69 125.62 126.93 C 123.78 128.70 121.96 130.47 120.15 132.26 M 122.60 144.01 C 123.83 145.16 125.08 146.28 126.34 147.39 C 123.62 147.93 120.90 148.49 118.18 149.06 C 121.12 149.81 124.07 150.53 127.01 151.28 C 122.88 151.75 118.74 152.09 114.61 152.49 C 118.56 154.45 122.91 155.33 127.23 156.04 C 123.75 156.53 120.25 156.88 116.74 157.10 C 120.14 158.03 123.55 158.91 126.99 159.71 C 124.37 160.28 121.74 160.78 119.11 161.25 C 121.80 162.02 124.48 162.79 127.18 163.56 C 125.80 163.75 124.43 163.94 123.06 164.13 C 124.01 166.19 124.97 168.24 125.93 170.29 C 129.19 164.39 132.50 158.52 135.96 152.73 C 131.95 149.26 128.64 143.62 122.60 144.01 Z" /><path d=" M 144.78 92.20 C 148.39 84.89 150.49 76.33 157.05 70.93 C 154.94 79.03 149.28 85.37 144.78 92.20 Z" /><path d=" M 94.59 71.11 C 101.44 75.98 103.37 84.60 106.86 91.75 C 102.39 85.13 96.96 78.90 94.59 71.11 Z" /><path d=" M 72.64 92.95 C 79.95 95.67 86.02 100.64 92.38 104.98 C 85.41 101.78 76.76 100.16 72.64 92.95 Z" /><path d=" M 175.65 94.44 C 177.00 93.59 178.23 94.96 179.45 95.40 C 172.73 99.25 165.69 102.48 158.69 105.75 C 164.26 101.87 169.50 97.40 175.65 94.44 Z" /><path d=" M 77.22 161.03 C 82.02 154.59 89.55 151.28 96.10 147.01 C 90.23 152.18 85.06 158.80 77.22 161.03 Z" /><path d=" M 155.66 146.99 C 162.29 151.15 169.59 154.67 174.71 160.80 C 166.71 158.94 161.59 152.07 155.66 146.99 Z" /><path d=" M 111.05 159.67 C 108.94 166.92 106.79 174.28 102.85 180.79 C 101.84 172.70 107.78 166.44 111.05 159.67 Z" /><path d=" M 140.65 159.37 C 144.06 166.16 150.05 172.51 148.90 180.68 C 145.09 174.04 142.88 166.65 140.65 159.37 Z" /></svg>