<svg width="256px" height="256px" viewBox="0 0 128 128" version="1.1" xmlns="http://www.w3.org/2000/svg"><path d=" M 59.72 16.50 C 61.99 11.59 63.35 6.32 64.00 0.97 C 64.69 6.31 66.00 11.58 68.26 16.48 C 89.20 18.11 107.81 35.11 110.88 55.95 C 111.32 60.97 111.25 66.03 110.99 71.06 C 108.55 90.92 91.84 107.93 72.08 110.93 C 70.70 111.45 68.43 110.84 67.82 112.59 C 65.67 117.13 64.74 122.13 64.00 127.07 C 63.37 121.70 61.99 116.42 59.72 111.51 C 36.47 109.81 15.87 88.62 16.83 64.97 C 15.80 51.42 21.94 37.93 31.85 28.85 C 39.47 21.83 49.41 17.44 59.72 16.50 M 61.51 20.81 C 63.16 20.82 64.81 20.82 66.46 20.83 C 65.69 18.72 64.93 16.61 64.16 14.51 C 63.12 16.54 62.27 18.66 61.51 20.81 M 22.88 47.77 C 17.01 62.14 19.66 79.51 29.36 91.58 C 36.39 100.52 46.94 106.40 58.17 107.99 C 57.34 106.43 56.48 104.87 55.62 103.32 C 61.15 104.04 66.76 104.07 72.29 103.31 C 71.47 104.87 70.66 106.44 69.88 108.01 C 85.69 105.85 100.05 94.70 105.38 79.55 C 110.95 65.34 108.18 48.35 98.67 36.46 C 91.65 27.51 81.09 21.64 69.87 19.98 C 70.67 21.56 71.50 23.12 72.33 24.69 C 66.78 23.97 61.16 23.96 55.62 24.71 C 56.47 23.14 57.32 21.57 58.15 19.99 C 42.58 22.13 28.38 32.95 22.88 47.77 M 61.55 107.12 C 62.25 109.31 63.07 111.46 64.17 113.49 C 64.93 111.39 65.68 109.29 66.44 107.20 C 64.81 107.18 63.18 107.15 61.55 107.12 Z" /><path d=" M 64.91 44.22 C 67.16 43.18 68.44 38.91 71.35 40.56 C 75.44 42.21 78.15 45.91 81.96 48.03 C 83.47 49.11 85.58 49.64 86.47 51.39 C 87.42 54.51 87.78 57.78 88.09 61.01 C 86.63 62.31 85.20 63.63 83.77 64.97 C 84.88 66.33 86.37 67.49 87.06 69.14 C 87.20 72.76 83.47 74.51 81.61 76.89 C 82.00 80.30 81.27 83.83 78.93 86.45 C 76.96 86.07 75.14 84.96 73.12 84.88 C 68.87 86.22 64.59 87.69 60.10 87.97 C 57.45 86.36 55.20 84.12 52.42 82.66 C 51.60 78.36 46.98 76.52 45.84 72.31 C 43.98 71.61 41.04 71.86 40.03 69.98 C 41.15 66.77 41.85 63.46 42.19 60.08 C 43.31 57.32 44.52 54.58 45.85 51.92 C 50.36 50.38 53.95 46.72 54.46 41.84 C 58.06 42.05 61.45 43.31 64.91 44.22 M 68.50 48.55 C 68.98 51.02 67.81 53.22 66.89 55.42 C 68.65 54.13 70.27 52.67 71.89 51.21 C 72.43 51.63 73.52 52.46 74.06 52.87 C 73.78 51.49 73.48 50.11 73.18 48.74 C 71.62 48.68 70.06 48.62 68.50 48.55 M 50.28 54.97 C 50.48 56.30 50.67 57.62 50.85 58.95 C 47.12 61.65 45.17 66.08 42.36 69.62 C 44.42 70.10 46.46 70.67 48.51 71.23 C 47.78 70.73 46.33 69.75 45.60 69.26 C 46.66 68.41 47.81 67.69 48.99 67.03 C 49.93 67.86 50.87 68.68 51.82 69.50 C 51.93 69.04 52.17 68.12 52.29 67.66 C 53.37 67.49 54.46 67.31 55.54 67.13 C 55.66 68.24 55.42 69.27 54.75 70.17 C 53.90 72.41 52.64 74.45 50.98 76.19 C 50.64 74.33 50.34 72.48 50.04 70.62 C 49.52 71.06 48.47 71.95 47.95 72.40 C 49.02 75.09 51.16 76.98 53.65 78.37 L 53.35 76.21 C 54.19 77.23 55.04 78.23 55.88 79.24 C 56.53 78.89 57.84 78.19 58.49 77.84 C 58.38 79.05 58.29 80.38 57.13 81.09 C 55.55 80.20 54.16 79.00 52.68 77.97 C 53.32 82.28 57.81 83.31 60.44 86.08 C 64.19 85.59 67.91 84.79 71.41 83.30 C 73.73 81.97 76.12 83.62 78.29 84.43 C 79.71 81.74 79.69 78.77 79.74 75.83 C 80.88 74.24 82.60 73.19 84.00 71.86 C 81.45 71.83 79.21 73.02 77.02 74.18 C 77.19 73.08 77.37 71.97 77.55 70.87 C 79.37 70.07 81.31 69.33 82.57 67.70 C 81.50 67.83 79.35 68.09 78.28 68.22 C 79.24 65.32 81.63 63.40 84.06 61.75 C 83.73 60.32 83.40 58.88 83.04 57.46 C 80.52 60.01 78.76 63.21 78.06 66.74 C 77.38 66.85 76.00 67.08 75.31 67.20 C 74.54 68.46 73.75 69.72 72.96 70.97 C 73.29 68.24 71.87 66.07 69.44 65.03 C 69.31 64.28 69.07 62.79 68.95 62.04 C 67.44 62.47 66.81 64.22 65.78 65.27 C 64.98 64.95 64.19 64.63 63.40 64.31 C 62.26 64.97 61.12 65.61 59.97 66.23 C 59.73 66.64 59.26 67.45 59.02 67.85 C 57.42 66.71 55.57 66.07 53.72 65.44 C 53.04 64.17 52.49 62.84 52.07 61.45 C 52.88 60.61 53.70 59.79 54.51 58.96 C 52.59 58.29 51.57 56.40 50.28 54.97 M 54.68 59.48 C 54.77 60.05 54.96 61.20 55.05 61.77 L 55.28 60.69 C 56.43 62.13 57.87 63.18 59.77 63.11 C 60.56 60.70 61.34 58.27 62.15 55.86 C 60.07 57.64 57.85 60.80 54.68 59.48 Z" /><path d=" M 63.80 68.54 C 66.09 67.80 68.51 68.34 70.85 68.43 C 71.27 69.50 71.81 70.55 71.91 71.71 C 69.62 71.37 67.32 71.34 65.07 71.95 C 65.33 72.75 65.59 73.55 65.85 74.35 C 65.37 75.40 64.89 76.46 64.42 77.52 C 63.62 78.35 62.83 79.19 62.04 80.03 C 61.01 79.02 59.93 78.08 58.80 77.18 C 61.21 76.37 61.56 73.93 61.54 71.72 C 60.86 72.86 60.19 74.01 59.54 75.18 C 58.31 73.94 56.27 72.59 57.53 70.63 C 58.12 70.06 59.31 68.91 59.91 68.34 C 59.70 69.43 59.27 71.59 59.06 72.68 C 60.59 71.26 61.78 69.33 63.80 68.54 Z" /><path d=" M 70.20 74.31 C 72.06 74.44 71.57 77.64 69.89 77.67 C 67.98 77.46 68.38 74.33 70.20 74.31 Z" /></svg>
