<?xml version="1.0" encoding="UTF-8" standalone="no"?>
<svg
   xmlns:dc="http://purl.org/dc/elements/1.1/"
   xmlns:cc="http://creativecommons.org/ns#"
   xmlns:rdf="http://www.w3.org/1999/02/22-rdf-syntax-ns#"
   xmlns:svg="http://www.w3.org/2000/svg"
   xmlns="http://www.w3.org/2000/svg"
   xmlns:sodipodi="http://sodipodi.sourceforge.net/DTD/sodipodi-0.dtd"
   xmlns:inkscape="http://www.inkscape.org/namespaces/inkscape"
   id="svg"
   version="1.1"
   width="400"
   height="369.8924731182796"
   viewBox="0, 0, 400,369.8924731182796"
   sodipodi:docname="req_vector.svg"
   inkscape:version="0.92.4 (5da689c313, 2019-01-14)">
  <metadata
     id="metadata10">
    <rdf:RDF>
      <cc:Work
         rdf:about="">
        <dc:format>image/svg+xml</dc:format>
        <dc:type
           rdf:resource="http://purl.org/dc/dcmitype/StillImage" />
      </cc:Work>
    </rdf:RDF>
  </metadata>
  <defs
     id="defs8" />
  <sodipodi:namedview
     pagecolor="#ffffff"
     bordercolor="#666666"
     borderopacity="1"
     objecttolerance="10"
     gridtolerance="10"
     guidetolerance="10"
     inkscape:pageopacity="0"
     inkscape:pageshadow="2"
     inkscape:window-width="2560"
     inkscape:window-height="1377"
     id="namedview6"
     showgrid="false"
     inkscape:zoom="3.6092044"
     inkscape:cx="238.17807"
     inkscape:cy="131.91506"
     inkscape:window-x="-8"
     inkscape:window-y="-8"
     inkscape:window-maximized="1"
     inkscape:current-layer="svg" />
  <g
     id="svgg"
     transform="translate(0.14693822,-1.7142793)">
    <path
       id="path1"
       d="m 201.922,6.192 c -0.344,8.12 -6.943,33.868 -11.537,45.015 l -0.775,1.88 -4.012,0.329 C 130.376,57.944 79.975,94.185 58.313,144.94 c -0.725,1.699 -0.693,1.683 -4.146,1.969 -1.035,0.086 -2.366,0.204 -2.957,0.262 -6.24,0.619 -29.455,0.63 -30.503,0.016 -0.078,-0.046 -1.352,-0.164 -2.831,-0.262 -1.478,-0.098 -3.837,-0.34 -5.242,-0.538 -2.456,-0.347 -3.328,-0.346 -2.256,0.002 0.544,0.177 0.837,0.298 2.928,1.213 6.76,2.956 14.622,7.01 22.716,11.713 5.055,2.937 13.978,9.098 13.978,9.651 0,0.216 -0.362,2.018 -0.803,4.004 -10.951,49.224 2.669,99.645 37.161,137.571 l 2.084,2.291 -0.917,2.276 c -4.051,10.048 -9.207,20.189 -15.555,30.591 -1.63,2.672 -5.557,8.561 -5.814,8.72 -0.163,0.1 -0.296,0.299 -0.296,0.441 0,0.142 1.301,-0.805 2.89,-2.105 7.021,-5.743 25.603,-18.346 27.049,-18.346 0.099,0 0.631,-0.284 1.182,-0.631 1.893,-1.191 8.885,-4.746 9.335,-4.746 0.247,0 1.86,1.012 3.585,2.248 22.416,16.063 48.094,25.483 76.389,28.022 39.618,3.555 77.519,-6.294 107.841,-28.022 1.725,-1.236 3.338,-2.248 3.586,-2.248 0.449,0 7.441,3.555 9.334,4.746 0.552,0.347 1.083,0.631 1.182,0.631 1.446,0 20.029,12.603 27.049,18.346 1.59,1.3 2.89,2.247 2.89,2.105 0,-0.142 -0.133,-0.341 -0.295,-0.441 -0.257,-0.159 -4.184,-6.048 -5.815,-8.72 -6.347,-10.402 -11.504,-20.543 -15.555,-30.591 l -0.917,-2.276 2.084,-2.291 c 34.492,-37.926 48.112,-88.347 37.162,-137.571 -0.442,-1.986 -0.804,-3.788 -0.804,-4.004 0,-0.553 8.923,-6.714 13.979,-9.651 8.094,-4.703 15.955,-8.757 22.715,-11.713 2.092,-0.915 2.384,-1.036 2.928,-1.213 1.072,-0.348 0.2,-0.349 -2.256,-0.002 -1.405,0.198 -3.764,0.44 -5.242,0.538 -1.479,0.098 -2.752,0.216 -2.831,0.262 -1.048,0.614 -24.263,0.603 -30.502,-0.016 -0.592,-0.058 -1.922,-0.176 -2.957,-0.262 -3.454,-0.286 -3.421,-0.27 -4.146,-1.969 C 324.058,94.185 273.656,57.944 218.434,53.416 l -4.012,-0.329 -0.774,-1.88 C 208.953,39.816 203.677,19.251 202.061,6.048 201.969,5.297 201.96,5.306 201.922,6.192 m 2.105,42.464 c 2.782,8.446 5.546,15.656 6.775,17.675 0.743,1.219 0.481,1.271 -4.55,0.894 -3.215,-0.241 -5.209,-0.241 -8.446,-10e-4 -5.063,0.376 -5.318,0.326 -4.576,-0.893 1.219,-2.002 4,-9.248 6.679,-17.406 0.802,-2.44 1.513,-4.596 1.58,-4.792 0.394,-1.147 1.062,0.041 2.538,4.523 M 183.44,66.331 c -2.427,4.53 -5.473,9.437 -8.094,13.037 -0.511,0.703 -0.88,1.277 -0.819,1.277 0.06,0 1.008,-0.309 2.106,-0.686 11.949,-4.108 38.817,-4.108 50.766,0 1.098,0.377 2.039,0.686 2.091,0.686 0.053,0 -0.57,-0.937 -1.382,-2.083 -2.785,-3.925 -9.218,-14.746 -8.935,-15.028 0.035,-0.036 1.799,0.167 3.92,0.45 39.54,5.277 74.633,26.697 97.697,59.632 3.931,5.614 9.48,15.073 11.4,19.431 l 0.548,1.247 -1.543,-0.36 c -0.848,-0.198 -1.834,-0.418 -2.189,-0.489 -0.355,-0.071 -2.158,-0.562 -4.006,-1.09 -1.848,-0.528 -3.542,-1.009 -3.763,-1.069 -0.695,-0.188 -4.396,-1.543 -5.283,-1.934 -1.395,-0.615 -1.508,-0.438 -0.579,0.903 1.753,2.53 4.513,7.618 4.519,8.33 10e-4,0.113 0.178,0.544 0.394,0.958 0.216,0.414 0.512,1.14 0.656,1.613 0.145,0.473 0.574,1.707 0.953,2.742 2.718,7.409 4.527,13.97 5.521,20.027 0.134,0.813 0.378,2.204 0.543,3.091 0.839,4.521 1.032,6.686 0.965,10.854 l -0.071,4.403 0.558,-0.774 c 2.12,-2.937 12.382,-13.554 13.872,-14.351 0.392,-0.21 0.528,0.245 1.153,3.847 6.834,39.403 -2.802,79.884 -26.535,111.473 -2.966,3.948 -6.165,7.777 -6.384,7.642 -0.545,-0.337 -3.008,-12.283 -3.592,-17.425 l -0.181,-1.588 -1.317,2.358 c -1.125,2.014 -3.507,5.629 -3.994,6.061 -0.083,0.074 -1.24,1.403 -2.57,2.954 -4.775,5.565 -12.706,13.125 -17.348,16.535 -0.403,0.296 -1.865,1.397 -3.251,2.446 -4.038,3.06 -9.108,6.018 -11.793,6.881 -0.222,0.071 0.565,0.337 1.747,0.591 4.594,0.985 15.634,4.282 16.186,4.834 0.484,0.484 -11.553,7.635 -18.874,11.213 -20.734,10.135 -39.279,14.224 -64.516,14.224 -25.236,0 -43.782,-4.089 -64.516,-14.224 -7.321,-3.578 -19.357,-10.729 -18.874,-11.213 0.552,-0.552 11.592,-3.849 16.186,-4.834 1.183,-0.254 1.969,-0.52 1.747,-0.591 -2.684,-0.863 -7.754,-3.821 -11.793,-6.881 -1.385,-1.049 -2.848,-2.15 -3.251,-2.446 -4.641,-3.41 -12.573,-10.97 -17.348,-16.535 -1.33,-1.551 -2.486,-2.88 -2.57,-2.954 -0.487,-0.432 -2.869,-4.047 -3.994,-6.061 l -1.317,-2.358 -0.181,1.588 c -0.584,5.142 -3.047,17.088 -3.592,17.425 -0.219,0.135 -3.418,-3.694 -6.383,-7.642 -23.734,-31.589 -33.37,-72.07 -26.536,-111.473 0.625,-3.602 0.762,-4.057 1.153,-3.847 1.49,0.797 11.752,11.414 13.872,14.351 l 0.559,0.774 -0.071,-4.403 c -0.068,-4.168 0.125,-6.333 0.964,-10.854 0.165,-0.887 0.409,-2.278 0.543,-3.091 0.995,-6.057 2.803,-12.618 5.521,-20.027 0.379,-1.035 0.808,-2.269 0.953,-2.742 0.145,-0.473 0.44,-1.199 0.656,-1.613 0.216,-0.414 0.393,-0.845 0.394,-0.958 0.006,-0.712 2.766,-5.8 4.519,-8.33 0.93,-1.341 0.816,-1.518 -0.579,-0.903 -0.887,0.391 -4.588,1.746 -5.282,1.934 -0.222,0.06 -1.916,0.541 -3.764,1.069 -1.848,0.528 -3.651,1.019 -4.006,1.09 -0.355,0.071 -1.34,0.291 -2.189,0.489 l -1.543,0.36 0.549,-1.247 c 7.39,-16.78 23.433,-36.697 40.388,-50.137 20.021,-15.87 48.758,-27.555 72.4,-29.441 0.213,-0.017 -0.266,1.134 -1.191,2.862 m 61.528,22.095 c -2.383,1.472 -3.775,6.649 -6.257,23.268 -2.768,18.539 -3.529,21.318 -6.973,25.483 -4.637,5.609 -7.5,5.998 -17.491,2.375 -2.667,-0.968 -3.542,-6.145 -2.455,-14.539 1.823,-14.086 -3.464,-22.036 -6.55,-9.849 -0.581,2.297 -0.8,3.804 -1.471,10.139 -0.474,4.484 -2.254,8.952 -4.999,12.552 l -1.368,1.794 -3.392,0.32 c -3.74,0.354 -8.648,1.176 -11.744,1.966 -2.436,0.622 -2.119,1.099 -2.426,-3.654 -0.464,-7.183 -1.742,-10.059 -4.507,-10.137 -2.354,-0.067 -3.561,4.388 -3.561,13.14 v 4.066 l -1.916,0.847 c -2.376,1.049 -2.283,1.056 -2.48,-0.181 -0.289,-1.802 -2.31,-7.784 -4.879,-14.437 -3.233,-8.373 -3.564,-9.494 -3.912,-13.249 -0.446,-4.818 -0.942,-5.72 -2.893,-5.257 -2.186,0.519 -2.218,0.741 -2.467,16.9 -0.222,14.454 -0.475,18.159 -1.619,23.65 -0.933,4.48 -1.03,4.671 -3.626,7.153 -2.965,2.833 -6.595,6.897 -8.491,9.504 -1.697,2.333 -1.711,2.339 -2.304,1.024 -0.708,-1.571 -0.587,-5.178 0.303,-9.073 1.637,-7.159 0.66,-11.906 -2.631,-12.792 -3.812,-1.027 -4.985,3.769 -4.673,19.109 0.206,10.155 -0.149,17.769 -0.918,19.674 -0.318,0.786 -1.036,2.817 -1.597,4.514 -1.432,4.329 -1.663,4.279 -2.132,-0.462 -0.684,-6.904 -1.447,-8.646 -3.374,-7.708 -4.71,2.292 -5.211,16.359 -1.096,30.778 1.541,5.398 3.448,13.072 4.471,17.989 6.21,29.847 31.002,53.99 61.132,59.532 47.762,8.786 90.535,-24.139 93.45,-71.933 0.214,-3.508 0.41,-5.06 0.679,-5.359 1.064,-1.19 2.011,-5.552 2.671,-12.303 0.847,-8.679 1.529,-12.506 2.987,-16.771 1.525,-4.458 1.256,-6.328 -0.997,-6.935 -2.636,-0.71 -3.736,1.77 -5.742,12.94 -0.521,2.901 -1.058,5.562 -1.194,5.914 -0.288,0.749 -0.173,1.021 -1.5,-3.526 -1.648,-5.645 -4.347,-11.918 -7.21,-16.757 l -1.088,-1.838 0.332,-4.479 c 0.183,-2.464 0.566,-6.294 0.852,-8.512 1.236,-9.592 1.419,-18.557 0.386,-18.95 -1.865,-0.71 -2.737,1.381 -4.948,11.864 -1.071,5.082 -1.679,6.756 -2.947,8.118 -1.365,1.466 -1.376,1.462 -4.108,-1.337 -1.383,-1.419 -3.999,-3.846 -5.812,-5.394 -6.999,-5.978 -9.273,-11.811 -9.256,-23.736 0.011,-7.036 0.635,-11.648 4.752,-35.081 1.451,-8.259 0.254,-12.381 -3.011,-10.364 m -38.92,59.302 c 12.333,2.113 18.549,6.658 18.549,13.562 0,11.804 -22.537,17.53 -38.295,9.729 -7.322,-3.625 -9.306,-11.294 -4.262,-16.483 4.776,-4.914 16.184,-8.148 24.008,-6.808 m -134.112,5.608 c 0.165,0.427 -0.085,1.338 -1.112,4.056 -0.908,2.404 -2.122,6.95 -2.547,9.543 -0.727,4.434 -0.82,4.556 -2.397,3.159 -2.697,-2.39 -7.307,-5.709 -14.469,-10.415 -6.089,-4.002 -6.113,-4.144 -0.739,-4.426 1.922,-0.1 3.797,-0.225 4.167,-0.277 0.369,-0.052 2.063,-0.179 3.763,-0.282 1.7,-0.102 3.309,-0.227 3.575,-0.277 0.265,-0.049 1.415,-0.169 2.553,-0.266 1.139,-0.097 2.132,-0.212 2.205,-0.256 0.074,-0.043 0.754,-0.157 1.51,-0.253 0.756,-0.096 1.723,-0.279 2.15,-0.407 1.099,-0.329 1.179,-0.323 1.341,0.101 m 261.801,-0.011 c 0.295,0.079 1.082,0.215 1.747,0.304 0.665,0.089 1.391,0.209 1.613,0.267 0.222,0.058 1.29,0.182 2.374,0.275 1.084,0.093 2.173,0.207 2.419,0.253 0.247,0.046 1.84,0.168 3.54,0.27 1.7,0.103 3.394,0.23 3.764,0.282 0.369,0.052 2.244,0.177 4.166,0.277 5.374,0.282 5.35,0.424 -0.739,4.426 -7.162,4.706 -11.772,8.025 -14.469,10.415 -1.577,1.397 -1.67,1.275 -2.397,-3.159 -0.425,-2.593 -1.639,-7.139 -2.546,-9.543 -1.387,-3.67 -1.493,-4.622 -0.482,-4.34 0.26,0.072 0.714,0.195 1.01,0.273 m -168.268,7.024 c 4.756,6.643 3.837,9.064 -5.926,15.599 -9.897,6.625 -13.172,6.891 -13.172,1.068 0,-5.262 5.173,-11.547 15.028,-18.258 2.133,-1.454 1.794,-1.586 4.07,1.591 m 80.23,0.63 c 7.973,5.976 11.962,11.324 11.962,16.037 0,5.823 -3.275,5.557 -13.172,-1.068 -9.963,-6.669 -10.765,-9.04 -5.485,-16.214 l 1.64,-2.229 0.982,0.578 c 0.54,0.319 2.373,1.622 4.073,2.896 m -76.082,24.724 c 2.673,1.979 2.567,5.608 -0.301,10.281 -2.74,4.465 -3.472,6.063 -4.015,8.758 -1.189,5.912 -3.225,7.405 -5.019,3.681 -1.09,-2.265 -1.584,-2.525 -5.588,-2.939 -8.062,-0.834 -9.091,-2.692 -5.642,-10.188 1.474,-3.203 3.791,-3.493 6.593,-0.825 2.414,2.298 3.596,2.025 4.573,-1.057 1.925,-6.08 6.516,-9.845 9.399,-7.711 m 68.426,-0.254 c 2.044,0.928 4.707,4.603 5.772,7.965 0.976,3.082 2.158,3.355 4.572,1.057 2.802,-2.668 5.12,-2.378 6.593,0.825 3.449,7.496 2.42,9.354 -5.642,10.188 -4.004,0.414 -4.497,0.674 -5.588,2.939 -1.794,3.724 -3.83,2.231 -5.019,-3.681 -0.542,-2.695 -1.275,-4.293 -4.015,-8.758 -2.671,-4.353 -2.957,-7.868 -0.803,-9.879 1.29,-1.205 2.499,-1.397 4.13,-0.656 m -94.886,1.501 c 1.192,1.192 0.901,2.022 -2.092,5.961 -1.841,2.424 -4.237,6.724 -4.237,7.607 0,0.76 0.944,1.778 3.318,3.576 5.074,3.843 5.149,4.062 5.547,16.202 0.54,16.474 1.121,21.506 2.668,23.11 0.575,0.596 1.305,1.603 1.623,2.239 0.726,1.451 0.964,1.536 2.593,0.928 1.629,-0.609 1.621,-0.428 0.301,-6.788 -3.628,-17.489 -3.573,-21.368 0.37,-26.152 1.062,-1.287 1.324,-1.26 2.646,0.278 2.659,3.095 4.034,7.037 4.055,11.627 0.046,10.231 2.192,12.984 7.799,10.001 1.113,-0.592 3.072,-1.396 4.355,-1.787 4.975,-1.518 5.272,-3.792 0.818,-6.272 -6.661,-3.709 -4.469,-6.668 2.472,-3.337 6.355,3.049 6.745,5.35 2.011,11.879 -8.032,11.075 -9.393,13.786 -9.393,18.702 0,6.081 1.196,7.642 6.381,8.33 l 1.386,0.183 1.584,-1.511 c 1.85,-1.764 2.065,-1.817 2.466,-0.601 1.081,3.273 5.42,8.079 10.29,11.397 3.223,2.196 3.287,2.262 4.761,4.897 1.41,2.524 2.595,3.758 4.539,4.728 3.536,1.765 7.064,0.051 9.736,-4.728 1.473,-2.635 1.537,-2.701 4.76,-4.897 4.87,-3.318 9.21,-8.124 10.29,-11.397 0.401,-1.216 0.616,-1.163 2.466,0.601 l 1.585,1.511 1.385,-0.183 c 5.186,-0.688 6.382,-2.249 6.382,-8.33 0,-4.916 -1.362,-7.627 -9.393,-18.702 -4.735,-6.529 -4.345,-8.83 2.01,-11.879 6.941,-3.331 9.133,-0.372 2.472,3.337 -4.454,2.48 -4.157,4.754 0.818,6.272 1.283,0.391 3.243,1.195 4.355,1.787 5.607,2.983 7.753,0.23 7.8,-10.001 0.021,-4.59 1.395,-8.532 4.054,-11.627 1.322,-1.538 1.585,-1.565 2.646,-0.278 3.943,4.784 3.998,8.663 0.37,26.152 -1.319,6.36 -1.327,6.179 0.302,6.788 1.628,0.608 1.867,0.523 2.592,-0.928 0.318,-0.636 1.049,-1.643 1.624,-2.239 1.546,-1.604 2.127,-6.636 2.667,-23.11 0.398,-12.14 0.473,-12.359 5.547,-16.202 2.374,-1.798 3.318,-2.816 3.318,-3.576 0,-0.883 -2.395,-5.183 -4.237,-7.607 -3.578,-4.71 -3.616,-6.621 -0.129,-6.621 3.289,0 5.1,2.179 7.299,8.783 14.087,42.303 -14.209,86.923 -58.608,92.42 -43.676,5.407 -81.153,-26.99 -81.153,-70.154 0,-10.905 3.074,-24.725 6.37,-28.642 1.951,-2.32 5.006,-3.152 6.411,-1.747 m 63.964,2.436 c 6.586,0.993 11.982,3.17 14.847,5.992 4.488,4.419 4.498,11.267 0.024,15.673 -8.201,8.074 -31.751,8.074 -39.951,0 -4.475,-4.406 -4.465,-11.254 0.023,-15.673 4.722,-4.649 16.027,-7.353 25.057,-5.992 m -2.501,43.819 c 12.574,2.614 19.389,11.479 16.742,21.779 -1.873,7.291 -9.146,11.683 -19.346,11.683 -13.782,0 -21.848,-8.155 -19.463,-19.678 1.723,-8.324 13.362,-15.594 22.067,-13.784 M 102.879,305.04 c 2.034,2.287 4.716,4.964 6.082,6.071 1.758,1.423 3.017,2.418 4.311,3.405 1.468,1.12 1.476,1.613 0.032,2.076 -0.59,0.189 -1.315,0.423 -1.61,0.52 -1.045,0.344 -12.413,6.201 -15.777,8.129 -4.645,2.663 -5.276,2.463 -3.591,-1.135 0.524,-1.121 0.954,-2.092 0.954,-2.159 0,-0.066 0.477,-1.13 1.06,-2.364 2.09,-4.423 4.802,-11.256 5.542,-13.965 0.805,-2.943 0.881,-2.957 2.997,-0.578 m 200.541,-1.478 c 0.143,0.185 0.471,1.11 0.73,2.056 0.741,2.709 3.453,9.542 5.542,13.965 0.584,1.234 1.061,2.298 1.061,2.364 0,0.067 0.429,1.038 0.954,2.159 1.685,3.598 1.053,3.798 -3.592,1.135 -3.364,-1.928 -14.731,-7.785 -15.776,-8.129 -0.296,-0.097 -1.021,-0.331 -1.611,-0.52 -1.443,-0.463 -1.436,-0.956 0.032,-2.076 1.294,-0.987 2.553,-1.982 4.311,-3.405 1.366,-1.107 4.048,-3.784 6.082,-6.071 1.703,-1.915 1.853,-2.013 2.267,-1.478"
       inkscape:connector-curvature="0"
       style="fill:#040404;fill-rule:evenodd;stroke:none" />
  </g>
</svg>
