<svg width="256px" height="256px" viewBox="0 0 575 500" version="1.1" xmlns="http://www.w3.org/2000/svg"><path d=" M 0.00 0.00 L 192.20 0.00 C 218.43 25.78 244.30 51.96 270.30 77.98 C 270.38 136.35 270.33 194.72 270.32 253.09 C 244.53 279.08 218.60 304.93 192.69 330.81 C 169.21 330.93 145.73 330.75 122.25 330.90 C 122.16 387.26 122.21 443.63 122.23 500.00 L 0.00 500.00 L 0.00 0.00 M 122.22 100.20 C 122.17 144.56 122.23 188.91 122.18 233.27 C 129.58 233.50 137.00 233.30 144.41 233.37 C 144.40 188.97 144.45 144.58 144.39 100.19 C 137.00 100.19 129.61 100.16 122.22 100.20 Z" /><path d=" M 368.47 0.00 L 496.63 0.00 C 508.81 11.58 520.46 23.75 532.44 35.56 C 546.37 49.56 560.42 63.45 574.30 77.51 C 574.48 77.47 574.83 77.38 575.00 77.34 L 575.00 77.64 C 574.86 77.61 574.58 77.56 574.44 77.54 C 575.16 79.63 574.72 81.81 574.83 83.96 C 574.82 121.17 574.84 158.39 574.82 195.60 C 531.95 195.59 489.08 195.62 446.21 195.58 C 446.35 164.23 446.26 132.87 446.26 101.52 C 439.35 101.44 432.45 101.56 425.55 101.46 C 425.09 121.94 425.48 142.51 425.35 163.02 C 425.37 241.89 425.32 320.76 425.38 399.63 C 432.28 399.69 439.18 399.64 446.08 399.65 C 446.56 361.52 446.11 323.25 446.30 285.06 C 463.82 284.62 481.44 285.00 499.00 284.87 C 524.33 284.94 549.67 284.74 575.00 284.97 L 575.00 421.52 C 567.27 429.91 558.90 437.72 550.92 445.89 C 533.92 462.89 516.91 479.89 499.92 496.92 C 499.07 498.00 497.57 498.61 497.16 500.00 L 368.74 500.00 C 363.60 495.59 359.10 490.48 354.21 485.79 C 333.00 464.39 311.39 443.31 290.41 421.72 C 290.39 307.49 290.42 193.26 290.40 79.04 C 290.10 77.67 291.48 77.00 292.22 76.14 C 317.67 50.79 342.93 25.25 368.47 0.00 Z" /></svg>
