<?xml version="1.0" standalone="no"?>
<!DOCTYPE svg PUBLIC "-//W3C//DTD SVG 20010904//EN"
 "http://www.w3.org/TR/2001/REC-SVG-20010904/DTD/svg10.dtd">
<svg version="1.0" xmlns="http://www.w3.org/2000/svg"
 width="550.000000pt" height="550.000000pt" viewBox="0 0 550.000000 550.000000"
 preserveAspectRatio="xMidYMid meet">
<metadata>
Created by potrace 1.13, written by Peter Selinger 2001-2015
</metadata>
<g transform="translate(0.000000,550.000000) scale(0.100000,-0.100000)"
fill="#000000" stroke="none">
<path d="M1365 5154 c-481 -86 -868 -442 -990 -910 -44 -169 -47 -268 -42
-1579 3 -1204 4 -1232 24 -1325 111 -501 467 -858 973 -976 66 -15 150 -18
691 -21 560 -4 618 -3 633 12 15 15 16 208 16 2396 0 1622 -3 2386 -10 2400
-10 18 -27 19 -613 18 -476 -1 -619 -4 -682 -15z m905 -2400 l0 -2026 -407 5
c-375 4 -415 6 -490 25 -322 83 -561 331 -628 654 -22 101 -22 2589 -1 2688
60 281 255 514 518 619 132 53 193 59 621 60 l387 1 0 -2026z"/>
<path d="M1451 4169 c-63 -12 -159 -60 -210 -105 -105 -91 -157 -220 -149
-372 4 -79 9 -100 41 -164 47 -97 118 -168 215 -216 67 -33 84 -37 171 -40 79
-3 107 0 160 18 217 73 348 284 311 500 -43 257 -287 429 -539 379z"/>
<path d="M3157 5163 c-4 -3 -7 -1087 -7 -2409 0 -2181 1 -2402 16 -2408 27
-10 803 -6 899 4 406 46 764 293 959 660 25 47 58 126 75 175 63 188 61 138
61 1575 0 1147 -2 1318 -16 1391 -99 521 -496 914 -1018 1004 -70 12 -178 15
-526 15 -240 0 -440 -3 -443 -7z m1068 -2178 c156 -41 284 -160 336 -312 33
-94 32 -232 -1 -318 -61 -158 -181 -269 -335 -310 -250 -65 -516 86 -589 334
-22 76 -21 204 4 282 75 245 335 389 585 324z"/>
</g>
</svg>
