<svg width="256px" height="256px" viewBox="0 0 500 500" version="1.1" xmlns="http://www.w3.org/2000/svg"><path d=" M 240.58 0.00 L 260.40 0.00 C 266.73 0.63 273.09 0.96 279.41 1.71 C 309.46 5.25 338.85 14.29 365.66 28.34 C 369.49 30.42 373.79 32.03 376.59 35.55 C 368.70 34.64 360.73 33.72 352.79 34.78 C 333.25 36.97 314.56 43.78 296.65 51.65 C 280.55 58.76 265.11 67.26 250.00 76.26 C 226.50 62.23 202.02 49.46 175.88 41.10 C 163.62 37.24 150.90 34.29 137.98 34.31 C 133.09 34.25 128.26 35.19 123.40 35.56 C 126.22 32.07 130.51 30.44 134.34 28.36 C 167.06 11.07 203.68 1.74 240.58 0.00 Z" /><path d=" M 69.29 77.30 C 72.16 74.52 74.76 70.71 79.02 70.12 C 85.38 69.23 91.72 71.09 97.59 73.42 C 110.20 78.62 121.51 86.46 132.32 94.67 C 148.64 107.30 163.90 121.28 178.36 135.98 C 145.27 176.46 116.07 220.12 90.94 265.96 C 75.89 294.06 61.93 323.13 54.11 354.16 C 51.39 365.49 49.54 377.20 50.47 388.88 C 50.83 393.46 52.10 397.90 52.70 402.44 C 51.26 401.18 49.87 399.84 48.70 398.32 C 32.17 375.82 19.33 350.59 11.11 323.89 C 4.65 303.31 1.35 281.89 0.00 260.41 L 0.00 240.60 C 0.74 231.36 1.32 222.11 2.74 212.95 C 10.16 162.28 33.84 114.23 69.29 77.30 Z" /><path d=" M 395.60 76.52 C 403.20 72.83 411.42 69.30 420.05 70.00 C 424.77 70.15 427.69 74.26 430.72 77.29 C 459.63 107.47 480.84 144.99 491.57 185.40 C 496.41 203.08 498.84 221.31 500.00 239.58 L 500.00 260.41 C 499.14 270.82 498.44 281.26 496.58 291.55 C 490.14 330.29 474.28 367.38 450.86 398.89 C 449.81 400.19 448.54 401.30 447.27 402.39 C 448.24 396.29 449.89 390.27 449.77 384.05 C 449.88 364.00 443.84 344.56 437.05 325.91 C 423.07 289.32 403.88 254.97 383.17 221.81 C 364.40 192.01 344.03 163.18 321.65 135.97 C 332.75 124.63 344.42 113.84 356.55 103.61 C 368.76 93.50 381.46 83.78 395.60 76.52 Z" /><path d=" M 182.49 257.50 C 203.70 235.88 225.85 215.05 250.01 196.74 C 269.70 211.56 287.91 228.26 305.55 245.45 C 326.73 266.32 346.85 288.30 365.49 311.48 C 377.43 326.43 388.82 341.86 398.84 358.18 C 406.49 370.75 413.53 383.83 418.15 397.86 C 420.95 406.68 422.92 416.12 421.19 425.36 C 420.17 430.96 417.22 436.18 412.79 439.80 C 398.15 452.29 382.13 463.20 365.03 472.05 C 332.77 488.95 296.75 498.15 260.42 500.00 L 238.60 500.00 C 225.60 498.95 212.59 497.72 199.81 494.99 C 157.93 486.49 118.37 466.90 86.16 438.82 C 80.03 433.41 77.84 424.86 78.19 416.94 C 78.66 405.53 82.60 394.60 87.18 384.25 C 95.77 365.40 107.17 348.00 119.32 331.30 C 138.51 305.17 159.90 280.72 182.49 257.50 Z" /></svg>
